<?xml version="1.0" encoding="UTF-8"?>
<svg width="24px" height="24px" viewBox="0 0 24 24" version="1.1" xmlns="http://www.w3.org/2000/svg" xmlns:xlink="http://www.w3.org/1999/xlink">
    <!-- Generator: Sketch 52.6 (67491) - http://www.bohemiancoding.com/sketch -->
    <title>icon/action-key-deregistred</title>
    <desc>Created with Sketch.</desc>
    <g id="icon/action-key-deregistred" stroke="none" stroke-width="1" fill="none" fill-rule="evenodd">
        <g id="icon/people-copy-8">
            <g id="icon/people">
                <rect id="Rectangle" fill-opacity="0" fill="#FFFFFF" x="0" y="0" width="24" height="24"></rect>
                <path d="M15.9016017,6.90526627 L15.9016017,5.5 C15.9016017,4.3954305 15.0061712,3.5 13.9016017,3.5 L5.76471969,3.5 C4.66015019,3.5 3.76471969,4.3954305 3.76471969,5.5 L3.76471969,18.75 C3.76471969,19.8545695 4.66015019,20.75 5.76471969,20.75 L6.56307222,20.75" id="Path-3" stroke="#8791AD" stroke-width="1.4"></path>
                <g id="prohibition" transform="translate(7.000000, 8.000000)" fill="#8791AD" fill-rule="nonzero" stroke="#8791AD" stroke-width="0.4">
                    <path d="M7,0 C3.13793103,0 0,3.13522825 0,6.99397071 C0,8.91128338 0.772413793,10.6477175 2.02758621,11.9138674 C2.02758621,11.9138674 2.03965517,11.9259259 2.03965517,11.9379845 C2.03965517,11.9379845 2.05172414,11.9379845 2.05172414,11.9500431 C3.31896552,13.2161929 5.06896552,14 7,14 C10.862069,14 14,10.8647717 14,7.00602929 C14,3.14728682 10.862069,0 7,0 Z M0.977586207,6.99397071 C0.977586207,3.67786391 3.68103448,0.988802756 7,0.988802756 C8.48448276,0.988802756 9.8362069,1.53143842 10.8862069,2.41171404 L2.4137931,10.8768303 C1.52068966,9.82773471 0.977586207,8.47717485 0.977586207,6.99397071 Z M7,13.0111972 C5.51551724,13.0111972 4.15172414,12.4685616 3.10172414,11.5762274 L11.5741379,3.11111111 C12.4672414,4.16020672 13.0103448,5.52282515 13.0103448,7.00602929 C13.0224138,10.3100775 10.3189655,13.0111972 7,13.0111972 Z" id="Shape"></path>
                </g>
            </g>
        </g>
    </g>
</svg>