<?xml version="1.0" encoding="UTF-8"?>
<svg width="24px" height="24px" viewBox="0 0 24 24" version="1.1" xmlns="http://www.w3.org/2000/svg" xmlns:xlink="http://www.w3.org/1999/xlink">
    <g id="icon/action-pool-retirement-canceled" stroke="none" stroke-width="1" fill="none" fill-rule="evenodd">
        <rect id="Rectangle" fill-opacity="0" fill="#FFFFFF" x="0" y="0" width="24" height="24"></rect>
        <g id="action-pool-retirement-canceled-01" transform="translate(4.000000, 2.000000)">
            <g id="Group">
                <path d="M6.9,8.6 C9.3,7.1 12.1,4.7 12.3,1.9 L1.3,1.9 C1.4,4.1 3.3,6.5 6.7,8.6 L6.9,8.6 Z" id="Path"></path>
                <path d="M6.7,10.3 C4.4,11.8 1.6,14.1 1.3,16.8 L7.6,16.8 C7.5,16.6 7.4,16.3 7.4,16.1 L2.8,16.1 C2.8,16.1 2.7,16.1 2.7,16.1 C2.6,16 2.5,15.9 2.6,15.8 C3.8,13.6 5.3,12.5 6.9,12.5 C7.2,12.5 7.6,12.6 7.9,12.7 C8.1,12.3 8.3,12 8.6,11.7 C8.1,11.3 7.5,10.9 6.9,10.5 L6.7,10.3 Z" id="Path"></path>
                <path d="M1.3,16.8 C1.6,14.1 4.4,11.8 6.7,10.3 L6.8,10.3 C7.4,10.7 8,11.1 8.5,11.5 C8.8,11.2 9.1,10.9 9.5,10.7 C9,10.3 8.4,9.9 7.9,9.5 L7.8,9.4 L7.9,9.3 C10.5,7.6 13.5,4.9 13.5,1.6 C13.5,1.5 13.5,1.5 13.5,1.4 C13.5,1.4 13.5,1.3 13.5,1.3 C13.5,1 13.5,0.7 12.6,0.7 L0.9,0.7 C0.1,0.7 0.1,1 0.1,1.4 C0.1,1.4 0.1,1.4 0.1,1.4 C0.1,1.5 0.1,1.5 0.1,1.6 C0.1,4.9 3.1,7.6 5.7,9.3 L5.8,9.4 L5.7,9.5 C3.1,11.2 0.1,13.9 0.1,17.2 C0.1,17.2 0.1,17.3 0.1,17.3 C0.1,17.3 0.1,17.3 0.1,17.4 C0.1,17.4 0.1,17.4 0.1,17.4 C0.1,17.4 0.1,17.4 0.1,17.5 C0.2,17.8 0.4,17.9 0.9,17.9 L8.1,17.9 C7.9,17.6 7.7,17.2 7.6,16.8 L1.3,16.8 Z M1.3,1.9 L12.3,1.9 C12.1,4.7 9.3,7.1 6.9,8.6 L6.8,8.6 C3.4,6.5 1.5,4.1 1.3,1.9 Z" id="Shape" fill="#8791AD" fill-rule="nonzero"></path>
                <path d="M7.9,12.6 C7.6,12.5 7.2,12.4 6.9,12.4 C5.3,12.4 3.9,13.5 2.6,15.7 C2.5,15.8 2.6,16 2.7,16 C2.7,16 2.8,16 2.8,16 L7.4,16 C7.3,15.7 7.3,15.3 7.3,15 C7.3,14.1 7.6,13.3 7.9,12.6 Z" id="Path" fill="#8791AD"></path>
            </g>
            <path d="M11.8,9.7 C8.9,9.7 6.6,12 6.6,14.9 C6.6,16.2 7.1,17.5 8.1,18.5 L8.2,18.6 C9.2,19.6 10.5,20.1 11.8,20.1 C14.7,20.1 17,17.8 17,14.9 C17,12 14.6,9.7 11.8,9.7 Z M11.8,10.8 C12.7,10.8 13.6,11.1 14.3,11.6 L8.6,17.3 C8.1,16.6 7.8,15.7 7.8,14.8 C7.7,12.6 9.5,10.8 11.8,10.8 Z M11.8,19 C10.9,19 10,18.7 9.3,18.2 L15,12.5 C15.5,13.2 15.8,14.1 15.8,15 C15.8,16.1 15.4,17.1 14.6,17.9 C13.9,18.6 12.9,19 11.8,19 Z" id="Shape" fill="#8791AD" fill-rule="nonzero"></path>
        </g>
    </g>
</svg>