<?xml version="1.0" encoding="UTF-8"?>
<svg width="24px" height="24px" viewBox="0 0 24 24" version="1.1" xmlns="http://www.w3.org/2000/svg" xmlns:xlink="http://www.w3.org/1999/xlink">
    <!-- Generator: Sketch 52.6 (67491) - http://www.bohemiancoding.com/sketch -->
    <title>icon/key-deregistred-target</title>
    <desc>Created with Sketch.</desc>
    <g id="icon/key-deregistred-target" stroke="none" stroke-width="1" fill="none" fill-rule="evenodd">
        <g id="icon/key-deregistred-copy-2">
            <rect id="Rectangle" fill-opacity="0" fill="#FFFFFF" x="0" y="0" width="24" height="24"></rect>
            <g id="target" transform="translate(1.000000, 1.000000)">
                <circle id="Oval" stroke="#8791AD" stroke-width="1.2" cx="11.5" cy="11.5" r="8.9"></circle>
                <path d="M11.5,5 C7.875,5 5,7.875 5,11.5 C5,13.125 5.625,14.75 6.875,16 L7,16.125 C8.25,17.375 9.875,18 11.5,18 C15.125,18 18,15.125 18,11.5 C18,7.875 15,5 11.5,5 Z M11.5,6.375 C12.625,6.375 13.75,6.75 14.625,7.375 L7.5,14.5 C6.875,13.625 6.5,12.5 6.5,11.375 C6.375,8.625 8.625,6.375 11.5,6.375 Z M11.5,16.625 C10.375,16.625 9.25,16.25 8.375,15.625 L15.5,8.5 C16.125,9.375 16.5,10.5 16.5,11.625 C16.5,13 16,14.25 15,15.25 C14.125,16.125 12.875,16.625 11.5,16.625 Z" id="Shape" fill="#8791AD" fill-rule="nonzero"></path>
                <path d="M0.84042624,12.2 C0.53857454,12.2 0.293875389,11.9313708 0.293875389,11.6 C0.293875389,11.2686292 0.53857454,11 0.84042624,11 L5.24732454,11 C5.54917624,11 5.79387539,11.2686292 5.79387539,11.6 C5.79387539,11.9313708 5.54917624,12.2 5.24732454,12.2 L0.84042624,12.2 Z" id="Path-15" fill="#8791AD" fill-rule="nonzero"></path>
                <path d="M17.5465509,12.2 C17.2446992,12.2 17,11.9313708 17,11.6 C17,11.2686292 17.2446992,11 17.5465509,11 L21.9534491,11 C22.2553008,11 22.5,11.2686292 22.5,11.6 C22.5,11.9313708 22.2553008,12.2 21.9534491,12.2 L17.5465509,12.2 Z" id="Path-15-Copy" fill="#8791AD" fill-rule="nonzero"></path>
                <path d="M9.37901563,3.75511482 C9.07716393,3.75511482 8.83246478,3.48648567 8.83246478,3.15511482 C8.83246478,2.82374397 9.07716393,2.55511482 9.37901563,2.55511482 L13.7859139,2.55511482 C14.0877656,2.55511482 14.3324648,2.82374397 14.3324648,3.15511482 C14.3324648,3.48648567 14.0877656,3.75511482 13.7859139,3.75511482 L9.37901563,3.75511482 Z" id="Path-15-Copy-2" fill="#8791AD" fill-rule="nonzero" transform="translate(11.582465, 3.155115) rotate(90.000000) translate(-11.582465, -3.155115) "></path>
                <path d="M9.39655085,20.35 C9.09469915,20.35 8.85,20.0813708 8.85,19.75 C8.85,19.4186292 9.09469915,19.15 9.39655085,19.15 L13.8034491,19.15 C14.1053008,19.15 14.35,19.4186292 14.35,19.75 C14.35,20.0813708 14.1053008,20.35 13.8034491,20.35 L9.39655085,20.35 Z" id="Path-15-Copy-3" fill="#8791AD" fill-rule="nonzero" transform="translate(11.600000, 19.750000) rotate(90.000000) translate(-11.600000, -19.750000) "></path>
            </g>
        </g>
    </g>
</svg>