<?xml version="1.0" encoding="UTF-8"?>
<svg width="24px" height="24px" viewBox="0 0 24 24" version="1.1" xmlns="http://www.w3.org/2000/svg" xmlns:xlink="http://www.w3.org/1999/xlink">
    <g id="icon/key-reward-reveived" stroke="none" stroke-width="1" fill="none" fill-rule="evenodd">
        <g id="icon/startpage-currency-copy-7">
            <rect id="Rectangle" fill="#FFFFFF" opacity="0" x="0" y="0" width="24" height="24"></rect>
            <g id="rewards" transform="translate(4.000000, 2.000000)" fill="#8791AD" fill-rule="nonzero">
                <path d="M12.0618851,19.2528011 C11.9476978,19.4099736 11.767493,19.5029412 11.5758426,19.5029412 C11.3431204,19.5029412 11.1342387,19.3674519 11.0329216,19.1580869 L9.30899968,15.5988768 L9.52188603,15.5768966 C9.8338927,15.5446824 10.1422155,15.4926367 10.445579,15.4212348 L10.614943,15.5018572 L11.6794482,17.69961 L12.7761601,16.1900902 C12.8903901,16.0330213 13.0704468,15.9400589 13.2624314,15.9398703 L15.096182,15.9398703 L13.9668761,13.6079356 L13.9961005,13.4362035 C14.2263314,13.2072186 14.4424083,12.9633998 14.6429165,12.7063054 L14.7911432,12.5162472 L14.896199,12.7331725 L16.6161973,16.284725 C16.7089916,16.4761536 16.6991083,16.7029049 16.5900007,16.8850526 C16.4800639,17.068847 16.2845738,17.1814444 16.0734129,17.1814444 L13.6003109,17.1814444 L12.0618851,19.2528011 Z M6.9139126,15.5028786 L7.08319169,15.422231 C7.38667784,15.4934706 7.69511781,15.5453416 8.00723568,15.577369 L8.22027822,15.59923 L8.12692234,15.7919726 L6.49651723,19.1581078 C6.39495487,19.3676216 6.18631448,19.5029412 5.95360638,19.5029412 C5.76191313,19.5029412 5.58182906,19.4100533 5.46740173,19.2527661 L3.98262286,17.2090496 L1.45603611,17.1814444 C1.2449144,17.1814444 1.04942836,17.068885 0.939311563,16.8850525 C0.830343363,16.7028773 0.820469935,16.4761668 0.913116494,16.2847218 L2.7364712,12.520448 L2.88470183,12.7102595 C3.08532241,12.9671572 3.30149552,13.2107755 3.53180654,13.4395578 L3.56109123,13.6113662 L2.43314174,15.9400114 L4.26701752,15.9400114 C4.45891619,15.9400114 4.63905622,16.0329892 4.75318201,16.1901313 L5.8499939,17.6996134 L6.9139126,15.5028786 Z M3.14078265,11.7870023 L3.13343759,11.7652273 C2.3771981,10.6098797 1.97441466,9.25733674 1.97441466,7.85497379 C1.97441466,3.99340197 5.01937499,0.85 8.7647245,0.85 C12.510074,0.85 15.5550343,3.99340197 15.5550343,7.85497379 C15.5550343,9.26103157 15.1501247,10.6169629 14.4143271,11.701556 L14.3894428,11.7784245 C13.1277044,13.6825488 11.0403084,14.8453075 8.76226624,14.8453075 C7.02140967,14.8453075 5.3829605,14.1684423 4.13168804,12.9712891 C4.04416479,12.8868785 3.95874105,12.8000597 3.87550726,12.7109161 C3.6039452,12.424124 3.35903047,12.1153256 3.14078265,11.7870023 Z M3.18644265,7.85497379 C3.18644265,11.0339495 5.69004425,13.6185146 8.7647245,13.6185146 C11.8394047,13.6185146 14.3430063,11.0339495 14.3430063,7.85497379 C14.3430063,4.67599811 11.8394047,2.09143297 8.7647245,2.09143297 C5.69004425,2.09143297 3.18644265,4.67599811 3.18644265,7.85497379 Z" id="Combined-Shape-Copy"></path>
                <path d="M11.171217,5.5549264 C11.3840854,5.30097027 11.7625214,5.26766201 12.0164775,5.48053033 C12.2704336,5.69339866 12.3037419,6.07183465 12.0908736,6.32579078 L8.73803749,10.3257908 C8.51032573,10.5974554 8.09798723,10.6135408 7.84980428,10.360441 L5.58803919,8.05386634 C5.3560341,7.81726482 5.35976024,7.43738411 5.59636175,7.20537902 C5.83296327,6.97337393 6.21284398,6.97710007 6.44484908,7.21370159 L8.24339336,9.04787818 L11.171217,5.5549264 Z" id="Path-3"></path>
            </g>
        </g>
    </g>
</svg>