<?xml version="1.0" encoding="UTF-8"?>
<svg width="24px" height="24px" viewBox="0 0 24 24" version="1.1" xmlns="http://www.w3.org/2000/svg" xmlns:xlink="http://www.w3.org/1999/xlink">
    <!-- Generator: Sketch 52.6 (67491) - http://www.bohemiancoding.com/sketch -->
    <title>icon/action-pool-removed</title>
    <desc>Created with Sketch.</desc>
    <g id="icon/action-pool-removed" stroke="none" stroke-width="1" fill="none" fill-rule="evenodd">
        <g id="delete-button">
            <rect id="Rectangle-Copy-16" fill-opacity="0" fill="#FFFFFF" x="0" y="0" width="24" height="24"></rect>
            <path d="M17.1844658,4.27366667 L14.2304576,4.27366667 C14.0830994,2.99586749 12.9959296,2 11.6792257,2 C10.3625611,2 9.27554865,2.99582816 9.12819048,4.27366667 L6.17402484,4.27366667 C4.97855901,4.27366667 4.00609731,5.24640373 4.00609731,6.44183023 L4.00609731,6.5530766 C4.00609731,7.46661077 4.57491718,8.24852174 5.37622153,8.56711594 L5.37622153,18.8093747 C5.37622153,20.0048406 6.34880124,20.9775383 7.54418841,20.9775383 L15.8143416,20.9775383 C17.0097681,20.9775383 17.9822692,20.0047619 17.9822692,18.8093747 L17.9822692,8.56715528 C18.7835342,8.24852174 19.3523934,7.46661077 19.3523934,6.55311594 L19.3523934,6.44186957 C19.3523934,5.24640373 18.379853,4.27366667 17.1844658,4.27366667 Z M11.6792257,3.02824224 C12.4280932,3.02824224 13.0531656,3.56500207 13.1914762,4.27366667 L10.1672505,4.27366667 C10.3055217,3.56496273 10.9306335,3.02824224 11.6792257,3.02824224 Z M16.9540269,18.8093747 C16.9540269,19.4379089 16.4426398,19.9493354 15.8143023,19.9493354 L7.54414907,19.9493354 C6.91581159,19.9493354 6.40442443,19.4378696 6.40442443,18.8093747 L6.40442443,8.72124017 L16.9540269,8.72124017 L16.9540269,18.8093747 Z M18.3241511,6.5530766 C18.3241511,7.18161077 17.812764,7.69303727 17.1844265,7.69303727 L6.17402484,7.69303727 C5.54568737,7.69303727 5.03430021,7.18161077 5.03430021,6.5530766 L5.03430021,6.44183023 C5.03430021,5.81329607 5.54568737,5.30186957 6.17402484,5.30186957 L17.1844658,5.30186957 C17.8128033,5.30186957 18.3241905,5.81329607 18.3241905,6.44183023 L18.3241905,6.5530766 L18.3241511,6.5530766 Z" id="Shape" fill="#8791AD" fill-rule="nonzero"></path>
            <path d="M8.92284886,18.6343623 C9.20678675,18.6343623 9.43695031,18.4041201 9.43695031,18.1203002 L9.43695031,12.3316335 C9.43695031,12.0477743 9.20674741,11.8174928 8.92284886,11.8174928 C8.63895031,11.8174928 8.40874741,12.0477743 8.40874741,12.3316335 L8.40874741,18.1203002 C8.40870807,18.4041988 8.63891097,18.6343623 8.92284886,18.6343623 Z" id="Path" fill="#8791AD"></path>
            <path d="M11.6792257,18.6343623 C11.9631636,18.6343623 12.1933665,18.4041201 12.1933665,18.1203002 L12.1933665,12.3316335 C12.1933665,12.0477743 11.9630849,11.8174928 11.6792257,11.8174928 C11.3953271,11.8174928 11.1651242,12.0477743 11.1651242,12.3316335 L11.1651242,18.1203002 C11.1651242,18.4041988 11.3952878,18.6343623 11.6792257,18.6343623 Z" id="Path" fill="#8791AD"></path>
            <path d="M14.4356025,18.6343623 C14.719501,18.6343623 14.9496646,18.4041201 14.9496646,18.1203002 L14.9496646,12.3316335 C14.9496646,12.0477743 14.7194617,11.8174928 14.4356025,11.8174928 C14.1516253,11.8174928 13.9214617,12.0477743 13.9214617,12.3316335 L13.9214617,18.1203002 C13.9214224,18.4041988 14.1517039,18.6343623 14.4356025,18.6343623 Z" id="Path" fill="#8791AD"></path>
        </g>
    </g>
</svg>