<?xml version="1.0" encoding="UTF-8"?>
<svg width="24px" height="24px" viewBox="0 0 24 24" version="1.1" xmlns="http://www.w3.org/2000/svg" xmlns:xlink="http://www.w3.org/1999/xlink">
    <!-- Generator: Sketch 52.6 (67491) - http://www.bohemiancoding.com/sketch -->
    <title>icon/action-pool-created</title>
    <desc>Created with Sketch.</desc>
    <g id="icon/action-pool-created" stroke="none" stroke-width="1" fill="none" fill-rule="evenodd">
        <g id="icon/people-copy-6">
            <g id="icon/people-copy-7">
                <rect id="Rectangle-Copy-4" fill-opacity="0" fill="#FFFFFF" x="0" y="0" width="24" height="24"></rect>
                <path d="M19.8101115,4.16329787 C18.2628774,2.61223404 15.7467072,2.61223404 14.1994732,4.16329787 L3.91266468,14.4462766 C3.83223915,14.5267021 3.78245191,14.6301064 3.76713276,14.7411702 L3.0050051,20.3862766 C2.98202638,20.5471277 3.03947319,20.7079787 3.15053702,20.8190426 C3.2462817,20.9147872 3.38032425,20.972234 3.51436681,20.972234 C3.53734553,20.972234 3.56032425,20.972234 3.58330298,20.9684043 L6.98415404,20.5088298 C7.26755829,20.4705319 7.46670723,20.2101064 7.42840936,19.9267021 C7.39011149,19.6432979 7.12968595,19.4441489 6.8462817,19.4824468 L4.11947319,19.8501064 L4.65181361,15.9130851 L8.7956434,20.0569149 C8.89138808,20.1526596 9.02543064,20.2101064 9.15947319,20.2101064 C9.29351574,20.2101064 9.42755829,20.1564894 9.52330298,20.0569149 L19.8101115,9.77393617 C20.5607498,9.02329787 20.9743668,8.02755319 20.9743668,6.96670213 C20.9743668,5.90585106 20.5607498,4.91010638 19.8101115,4.16329787 Z M14.3986221,5.42712766 L16.1258562,7.1543617 L6.73904766,16.5411702 L5.01181361,14.8139362 L14.3986221,5.42712766 Z M9.16330298,18.9615957 L7.47436681,17.2726596 L16.8611753,7.88585106 L18.5501115,9.57478723 L9.16330298,18.9615957 Z M19.2701115,8.8356383 L15.1377711,4.70329787 C15.6624519,4.27053191 16.3173455,4.03308511 17.0067072,4.03308511 C17.7918136,4.03308511 18.5271328,4.33946809 19.0824519,4.89095745 C19.6377711,5.44244681 19.9403243,6.18159574 19.9403243,6.96670213 C19.9403243,7.65989362 19.7028774,8.31095745 19.2701115,8.8356383 Z" id="Shape" fill="#8791AD" fill-rule="nonzero"></path>
            </g>
        </g>
    </g>
</svg>