<?xml version="1.0" encoding="UTF-8"?>
<svg width="24px" height="24px" viewBox="0 0 24 24" version="1.1" xmlns="http://www.w3.org/2000/svg" xmlns:xlink="http://www.w3.org/1999/xlink">
    <g id="icon/registred-pool-owner" stroke="none" stroke-width="1" fill="none" fill-rule="evenodd">
        <g id="icon/key-registred-pool-owner">
            <rect id="Rectangle" fill-opacity="0" fill="#FFFFFF" x="0" y="0" width="24" height="24"></rect>
            <g id="Group-2" transform="translate(3.000000, 1.000000)">
                <path d="M9.26381931,20.0265501 C9.84530118,20.0265501 10.3166854,19.5551659 10.3166854,18.9736841 C10.3166854,18.3922022 9.84530118,17.920818 9.26381931,17.920818 C8.68233745,17.920818 8.21095326,18.3922022 8.21095326,18.9736841 C8.21095326,19.5551659 8.68233745,20.0265501 9.26381931,20.0265501 Z M9.26381931,21.0265501 C8.1300527,21.0265501 7.21095326,20.1074507 7.21095326,18.9736841 C7.21095326,17.8399174 8.1300527,16.920818 9.26381931,16.920818 C10.3975859,16.920818 11.3166854,17.8399174 11.3166854,18.9736841 C11.3166854,20.1074507 10.3975859,21.0265501 9.26381931,21.0265501 Z M16.2638193,20.0265501 C16.8453012,20.0265501 17.3166854,19.5551659 17.3166854,18.9736841 C17.3166854,18.3922022 16.8453012,17.920818 16.2638193,17.920818 C15.6823374,17.920818 15.2109533,18.3922022 15.2109533,18.9736841 C15.2109533,19.5551659 15.6823374,20.0265501 16.2638193,20.0265501 Z M16.2638193,21.0265501 C15.1300527,21.0265501 14.2109533,20.1074507 14.2109533,18.9736841 C14.2109533,17.8399174 15.1300527,16.920818 16.2638193,16.920818 C17.3975859,16.920818 18.3166854,17.8399174 18.3166854,18.9736841 C18.3166854,20.1074507 17.3975859,21.0265501 16.2638193,21.0265501 Z M2.26381931,20.0265501 C2.84530118,20.0265501 3.31668537,19.5551659 3.31668537,18.9736841 C3.31668537,18.3922022 2.84530118,17.920818 2.26381931,17.920818 C1.68233745,17.920818 1.21095326,18.3922022 1.21095326,18.9736841 C1.21095326,19.5551659 1.68233745,20.0265501 2.26381931,20.0265501 Z M2.26381931,21.0265501 C1.1300527,21.0265501 0.210953261,20.1074507 0.210953261,18.9736841 C0.210953261,17.8399174 1.1300527,16.920818 2.26381931,16.920818 C3.39758593,16.920818 4.31668537,17.8399174 4.31668537,18.9736841 C4.31668537,20.1074507 3.39758593,21.0265501 2.26381931,21.0265501 Z" id="Combined-Shape" fill="#8791AD" fill-rule="nonzero"></path>
                <polyline id="Path-11" stroke="#8791AD" stroke-linejoin="round" points="9.30686383 13.247875 9.30686383 15.1715548 9.30686383 17.0377905"></polyline>
                <path d="M2.6808926,17.1565185 L1.6808926,17.1565185 L1.6808926,16.0247088 C1.6808926,15.1962816 2.35246548,14.5247088 3.1808926,14.5247088 L9.17707993,14.5247088 L15.2997459,14.5247088 C16.128173,14.5247088 16.7997459,15.1962816 16.7997459,16.0247088 L16.7997459,17.1565185 L15.7997459,17.1565185 L15.7997459,16.0247088 C15.7997459,15.7485664 15.5758883,15.5247088 15.2997459,15.5247088 L9.17707993,15.5247088 L3.1808926,15.5247088 C2.90475023,15.5247088 2.6808926,15.7485664 2.6808926,16.0247088 L2.6808926,17.1565185 Z" id="Path-4" fill="#8791AD" fill-rule="nonzero"></path>
                <circle id="Oval-Copy-2" stroke="#8791AD" stroke-width="1.2" cx="9.33954193" cy="7.48993285" r="5.9"></circle>
                <path d="M11.594315,5.20451479 C11.8071833,4.95055866 12.1856193,4.9172504 12.4395755,5.13011872 C12.6935316,5.34298705 12.7268399,5.72142304 12.5139715,5.97537917 L9.16113547,9.97537917 C8.93342372,10.2470438 8.52108521,10.2631292 8.27290227,10.0100294 L6.01113717,7.70345473 C5.77913208,7.46685321 5.78285822,7.0869725 6.01945974,6.85496741 C6.25606126,6.62296232 6.63594197,6.62668846 6.86794706,6.86328998 L8.66649134,8.69746657 L11.594315,5.20451479 Z" id="Path" fill="#8791AD" fill-rule="nonzero"></path>
            </g>
        </g>
    </g>
</svg>