<?xml version="1.0" encoding="UTF-8"?>
<svg width="24px" height="24px" viewBox="0 0 24 24" version="1.1" xmlns="http://www.w3.org/2000/svg" xmlns:xlink="http://www.w3.org/1999/xlink">
    <g id="icon/key-deregistred-pool-owner" stroke="none" stroke-width="1" fill="none" fill-rule="evenodd">
        <g id="key">
            <rect id="Rectangle" fill-opacity="0" fill="#FFFFFF" x="0" y="0" width="24" height="24"></rect>
            <g id="Group-2" transform="translate(3.000000, 1.000000)">
                <path d="M9.26381931,20.0265501 C9.84530118,20.0265501 10.3166854,19.5551659 10.3166854,18.9736841 C10.3166854,18.3922022 9.84530118,17.920818 9.26381931,17.920818 C8.68233745,17.920818 8.21095326,18.3922022 8.21095326,18.9736841 C8.21095326,19.5551659 8.68233745,20.0265501 9.26381931,20.0265501 Z M9.26381931,21.0265501 C8.1300527,21.0265501 7.21095326,20.1074507 7.21095326,18.9736841 C7.21095326,17.8399174 8.1300527,16.920818 9.26381931,16.920818 C10.3975859,16.920818 11.3166854,17.8399174 11.3166854,18.9736841 C11.3166854,20.1074507 10.3975859,21.0265501 9.26381931,21.0265501 Z M16.2638193,20.0265501 C16.8453012,20.0265501 17.3166854,19.5551659 17.3166854,18.9736841 C17.3166854,18.3922022 16.8453012,17.920818 16.2638193,17.920818 C15.6823374,17.920818 15.2109533,18.3922022 15.2109533,18.9736841 C15.2109533,19.5551659 15.6823374,20.0265501 16.2638193,20.0265501 Z M16.2638193,21.0265501 C15.1300527,21.0265501 14.2109533,20.1074507 14.2109533,18.9736841 C14.2109533,17.8399174 15.1300527,16.920818 16.2638193,16.920818 C17.3975859,16.920818 18.3166854,17.8399174 18.3166854,18.9736841 C18.3166854,20.1074507 17.3975859,21.0265501 16.2638193,21.0265501 Z M2.26381931,20.0265501 C2.84530118,20.0265501 3.31668537,19.5551659 3.31668537,18.9736841 C3.31668537,18.3922022 2.84530118,17.920818 2.26381931,17.920818 C1.68233745,17.920818 1.21095326,18.3922022 1.21095326,18.9736841 C1.21095326,19.5551659 1.68233745,20.0265501 2.26381931,20.0265501 Z M2.26381931,21.0265501 C1.1300527,21.0265501 0.210953261,20.1074507 0.210953261,18.9736841 C0.210953261,17.8399174 1.1300527,16.920818 2.26381931,16.920818 C3.39758593,16.920818 4.31668537,17.8399174 4.31668537,18.9736841 C4.31668537,20.1074507 3.39758593,21.0265501 2.26381931,21.0265501 Z" id="Combined-Shape" fill="#8791AD" fill-rule="nonzero"></path>
                <polyline id="Path-11" stroke="#8791AD" stroke-linejoin="round" points="9.30686383 13.247875 9.30686383 15.1715548 9.30686383 17.0377905"></polyline>
                <path d="M2.6808926,17.1565185 L1.6808926,17.1565185 L1.6808926,16.0247088 C1.6808926,15.1962816 2.35246548,14.5247088 3.1808926,14.5247088 L9.17707993,14.5247088 L15.2997459,14.5247088 C16.128173,14.5247088 16.7997459,15.1962816 16.7997459,16.0247088 L16.7997459,17.1565185 L15.7997459,17.1565185 L15.7997459,16.0247088 C15.7997459,15.7485664 15.5758883,15.5247088 15.2997459,15.5247088 L9.17707993,15.5247088 L3.1808926,15.5247088 C2.90475023,15.5247088 2.6808926,15.7485664 2.6808926,16.0247088 L2.6808926,17.1565185 Z" id="Path-4" fill="#8791AD" fill-rule="nonzero"></path>
                <path d="M9.20478719,0.977600925 C5.57978719,0.977600925 2.70478719,3.85260092 2.70478719,7.47760092 C2.70478719,9.10260092 3.32978719,10.7276009 4.57978719,11.9776009 L4.70478719,12.1026009 C5.95478719,13.3526009 7.57978719,13.9776009 9.20478719,13.9776009 C12.8297872,13.9776009 15.7047872,11.1026009 15.7047872,7.47760092 C15.7047872,3.85260092 12.7047872,0.977600925 9.20478719,0.977600925 Z M9.20478719,2.35260092 C10.3297872,2.35260092 11.4547872,2.72760092 12.3297872,3.35260092 L5.20478719,10.4776009 C4.57978719,9.60260092 4.20478719,8.47760092 4.20478719,7.35260092 C4.07978719,4.60260092 6.32978719,2.35260092 9.20478719,2.35260092 Z M9.20478719,12.6026009 C8.07978719,12.6026009 6.95478719,12.2276009 6.07978719,11.6026009 L13.2047872,4.47760092 C13.8297872,5.35260092 14.2047872,6.47760092 14.2047872,7.60260092 C14.2047872,8.97760092 13.7047872,10.2276009 12.7047872,11.2276009 C11.8297872,12.1026009 10.5797872,12.6026009 9.20478719,12.6026009 Z" id="Shape" fill="#8791AD" fill-rule="nonzero"></path>
            </g>
        </g>
    </g>
</svg>