<?xml version="1.0" encoding="UTF-8"?>
<svg width="24px" height="24px" viewBox="0 0 24 24" version="1.1" xmlns="http://www.w3.org/2000/svg" xmlns:xlink="http://www.w3.org/1999/xlink">
    <g id="icon/action-pool-retiring" stroke="none" stroke-width="1" fill="none" fill-rule="evenodd">
        <g id="icon/epoch-copy-4">
            <rect id="Rectangle" fill-opacity="0" fill="#FFFFFF" x="0" y="0" width="24" height="24"></rect>
            <path d="M19.087606,3.83829276 C19.016073,6.59975452 16.8928975,9.32599304 13.2599972,11.7321144 L13.1432292,11.8094515 L13.2599275,11.8868934 C16.9622428,14.3437785 19.0876145,17.1154957 19.0823489,19.9245152 C19.0823487,20.12215 18.995874,20.2984858 18.8590455,20.4165476 C18.7057247,20.5956851 18.4454952,20.6937949 18.0476404,20.6937949 L6.02420484,20.6937949 C5.45747627,20.6937949 5.20568939,20.546355 5.12896648,20.1500821 C5.10341806,20.0800348 5.08947368,20.0041702 5.08947368,19.9248833 C5.08947368,17.1146416 7.22250449,14.3375075 10.9225128,11.8869396 L11.0393947,11.809527 L10.9225128,11.7321144 C7.23008786,9.28656905 5.09303624,6.50239955 5.09303624,3.69417066 C5.09303624,3.6607078 5.09552007,3.62785451 5.1003118,3.59579087 C5.0995417,3.34909076 5.09750107,3.09448625 5.19824938,2.95927656 C5.33132533,2.78068142 5.59603711,2.6937949 6.02420484,2.6937949 L18.0476404,2.6937949 C18.6927435,2.6937949 19.1095276,2.85714722 19.1095276,3.41719055 C19.1132779,3.59979837 19.1066274,3.73651881 19.087606,3.83829276 Z M17.8049757,4.08177305 L6.37764157,4.08177305 C6.5852763,6.43517289 8.6649069,8.82295761 11.988622,10.907937 L12.1425881,10.9234151 C15.5412699,8.78816148 17.5991816,6.42629277 17.8049727,4.08177305 Z M17.7714497,19.3058168 C17.4536666,17.0294495 15.4098516,14.7363499 12.1904685,12.7112464 L12.0363593,12.6956388 C8.74950007,14.7606389 6.71663502,17.0375872 6.40028403,19.3058168 L17.7714497,19.3058168 Z" id="Combined-Shape" fill="#8791AD" fill-rule="nonzero"></path>
            <path d="M12.30923,15 C13.9299785,15 15.3041651,16.1014511 16.4303758,18.2861562 C16.4486456,18.3215971 16.4581778,18.3608923 16.4581778,18.4007652 C16.4581778,18.5389075 16.3461913,18.650894 16.2080474,18.650894 L8.25023255,18.6507652 C8.20706265,18.6507652 8.16462571,18.639594 8.12704966,18.618338 C8.0067824,18.550305 7.96443809,18.3976576 8.03247102,18.2773903 C9.26558808,16.0979689 10.6912252,15 12.30923,15 Z" id="Path-13" fill="#8791AD" fill-rule="nonzero"></path>
        </g>
    </g>
</svg>