<?xml version="1.0" encoding="UTF-8"?>
<svg width="24px" height="24px" viewBox="0 0 24 24" version="1.1" xmlns="http://www.w3.org/2000/svg" xmlns:xlink="http://www.w3.org/1999/xlink">
    <!-- Generator: Sketch 52.6 (67491) - http://www.bohemiancoding.com/sketch -->
    <title>icon/action-key-registred</title>
    <desc>Created with Sketch.</desc>
    <g id="icon/action-key-registred" stroke="none" stroke-width="1" fill="none" fill-rule="evenodd">
        <g id="icon/people-copy">
            <g id="icon/people">
                <rect id="Rectangle" fill-opacity="0" fill="#FFFFFF" x="0" y="0" width="24" height="24"></rect>
                <path d="M21.0947305,7.90618507 C19.889467,6.69793831 17.9294223,6.69793831 16.7241588,7.90618507 L8.71094698,15.9164136 C8.64829715,15.9790634 8.60951392,16.0596132 8.59758062,16.1461297 L8.00389887,20.5435512 C7.98599892,20.6688509 8.0307488,20.7941506 8.11726524,20.880667 C8.19184837,20.9552501 8.29626476,21 8.40068114,21 C8.41858109,21 8.43648105,21 8.454381,20.9970167 L11.1035739,20.6390176 C11.32434,20.6091844 11.4794729,20.4063183 11.4496396,20.1855522 C11.4198064,19.9647861 11.2169403,19.8096532 10.9961742,19.8394864 L8.87204655,20.1258857 L9.28672877,17.0590272 L12.5146868,20.2869852 C12.5892699,20.3615684 12.6936863,20.4063183 12.7981027,20.4063183 C12.9025191,20.4063183 13.0069355,20.3645517 13.0815186,20.2869852 L21.0947305,12.2767567 C21.6794622,11.6920249 22.0016614,10.9163603 22.0016614,10.0899792 C22.0016614,9.2635981 21.6794622,8.48793351 21.0947305,7.90618507 Z M16.8792918,8.89068244 L18.2247715,10.2361622 L10.9126411,17.5482926 L9.56716135,16.2028128 L16.8792918,8.89068244 Z M12.801086,19.4337542 L11.4854395,18.1181077 L18.79757,10.8059773 L20.1132164,12.1216238 L12.801086,19.4337542 Z M20.6740816,11.545842 L17.4550736,8.32683395 C17.8637891,7.98971818 18.3739378,7.80475201 18.9109363,7.80475201 C19.522518,7.80475201 20.0953165,8.04341804 20.5278987,8.47301689 C20.9604808,8.90261574 21.1961635,9.47839753 21.1961635,10.0899792 C21.1961635,10.6299611 21.0111974,11.1371264 20.6740816,11.545842 Z" id="Shape" stroke="#8791AD" stroke-width="0.3" fill="#8791AD" fill-rule="nonzero"></path>
                <path d="M15.9016017,6.90526627 L15.9016017,5.5 C15.9016017,4.3954305 15.0061712,3.5 13.9016017,3.5 L5.76471969,3.5 C4.66015019,3.5 3.76471969,4.3954305 3.76471969,5.5 L3.76471969,18.75 C3.76471969,19.8545695 4.66015019,20.75 5.76471969,20.75 L6.56307222,20.75" id="Path-3" stroke="#8791AD" stroke-width="1.4"></path>
            </g>
        </g>
    </g>
</svg>