<?xml version="1.0" encoding="UTF-8"?>
<svg width="24px" height="24px" viewBox="0 0 24 24" version="1.1" xmlns="http://www.w3.org/2000/svg" xmlns:xlink="http://www.w3.org/1999/xlink">
    <!-- Generator: Sketch 52.6 (67491) - http://www.bohemiancoding.com/sketch -->
    <desc>Created with Sketch.</desc>
    <g id="icon/arrow-left-last-page" stroke="none" stroke-width="1" fill="none" fill-rule="evenodd">
        <g>
            <rect id="Rectangle" fill="#FFFFFF" opacity="0" x="0" y="0" width="24" height="24"></rect>
            <g id="icon/arrow-right-copy" transform="translate(12.000000, 12.500000) scale(-1, 1) translate(-12.000000, -12.500000) translate(6.000000, 5.000000)" fill="currentColor">
                <path d="M14.8669869,4.1352657 C14.6878122,3.95491143 14.3966532,3.95491143 14.2174784,4.1352657 L8.5062832,9.89533011 L2.78388954,4.1352657 C2.60471479,3.95491143 2.31355582,3.95491143 2.13438106,4.1352657 C1.95520631,4.31561997 1.95520631,4.60869565 2.13438106,4.78904992 L8.17033054,10.8647343 C8.25991792,10.9549114 8.37190214,11 8.49508478,11 C8.607069,11 8.73025164,10.9549114 8.81983902,10.8647343 L14.8557885,4.78904992 C15.0461617,4.60869565 15.0461617,4.31561997 14.8669869,4.1352657 Z" id="Path-Copy-11" stroke="currentColor" stroke-width="0.5" transform="translate(8.500000, 7.500000) rotate(90.000000) translate(-8.500000, -7.500000) "></path>
                <path d="M0.560655975,1 C0.560655975,0.613400675 0.87405665,0.3 1.26065598,0.3 C1.6472553,0.3 1.96065598,0.613400675 1.96065598,1 L1.96065598,14 C1.96065598,14.3865993 1.6472553,14.7 1.26065598,14.7 C0.87405665,14.7 0.560655975,14.3865993 0.560655975,14 L0.560655975,1 Z" id="Path" fill-rule="nonzero"></path>
            </g>
        </g>
    </g>
</svg>