<?xml version="1.0" encoding="UTF-8"?>
<svg width="24px" height="24px" viewBox="0 0 24 24" version="1.1" xmlns="http://www.w3.org/2000/svg" xmlns:xlink="http://www.w3.org/1999/xlink">
    <!-- Generator: Sketch 52.6 (67491) - http://www.bohemiancoding.com/sketch -->
    <title>icon/coppied</title>
    <desc>Created with Sketch.</desc>
    <g id="icon/coppied" stroke="none" stroke-width="1" fill="none" fill-rule="evenodd">
        <g id="icon/arrow-left-copy">
            <g id="icon/price-copy" fill="#FFFFFF" opacity="0">
                <rect id="Rectangle" x="0" y="0" width="24" height="24"></rect>
            </g>
            <g id="copy" transform="translate(4.363636, 2.181818)" fill="#4D20C0" stroke="#4D20C0" stroke-width="0.4">
                <path d="M10.5505855,3.3986014 L1.53333057,3.3986014 C0.687218107,3.3986014 0,4.09582971 0,4.95426688 L0,18.0806982 C0,18.9391353 0.687218107,19.6363636 1.53333057,19.6363636 L10.5505855,19.6363636 C11.396698,19.6363636 12.0839161,18.9391353 12.0839161,18.0806982 L12.0839161,4.95426688 C12.0799437,4.09582971 11.3927256,3.3986014 10.5505855,3.3986014 Z M11.0074068,18.0766679 C11.0074068,18.3346021 10.8008441,18.5441736 10.5466132,18.5441736 L1.52935822,18.5441736 C1.27512724,18.5441736 1.06856457,18.3346021 1.06856457,18.0766679 L1.06856457,4.95426688 C1.06856457,4.69633271 1.27512724,4.48676119 1.52935822,4.48676119 L10.5466132,4.48676119 C10.8008441,4.48676119 11.0074068,4.69633271 11.0074068,4.95426688 L11.0074068,18.0766679 Z" id="Shape" fill-rule="nonzero"></path>
                <path d="M14.1379981,0 L5.12074316,0 C4.27463069,0 3.58741259,0.697228312 3.58741259,1.55566548 C3.58741259,1.85793209 3.82575413,2.09974538 4.12368105,2.09974538 C4.42160798,2.09974538 4.65994952,1.85793209 4.65994952,1.55566548 C4.65994952,1.29773131 4.86651219,1.08815979 5.12074316,1.08815979 L14.1379981,1.08815979 C14.3922291,1.08815979 14.5987917,1.29773131 14.5987917,1.55566548 L14.5987917,14.6820968 C14.5987917,14.9400309 14.3922291,15.1496024 14.1379981,15.1496024 C13.8400712,15.1496024 13.6017296,15.3914157 13.6017296,15.6936823 C13.6017296,15.995949 13.8400712,16.2377622 14.1379981,16.2377622 C14.9841106,16.2377622 15.6713287,15.5405339 15.6713287,14.6820968 L15.6713287,1.55566548 C15.6713287,0.697228312 14.9841106,0 14.1379981,0 Z" id="Path"></path>
            </g>
            <g id="Group-11" transform="translate(7.000000, 11.000000)" stroke="#4D20C0" stroke-linecap="round" stroke-linejoin="round" stroke-width="1.4">
                <polyline id="Path-3" points="0.596089122 2.12480389 3.09416278 5.18120674 6.74888412 0.18120674"></polyline>
            </g>
        </g>
    </g>
</svg>