<?xml version="1.0" encoding="UTF-8"?>
<svg width="24px" height="24px" viewBox="0 0 24 24" version="1.1" xmlns="http://www.w3.org/2000/svg" xmlns:xlink="http://www.w3.org/1999/xlink">
    <!-- Generator: Sketch 52.6 (67491) - http://www.bohemiancoding.com/sketch -->
    <desc>Created with Sketch.</desc>
    <g id="icon/delegated-stakepool-info" stroke="none" stroke-width="1" fill="none" fill-rule="evenodd">
        <g id="icon/delegated">
            <rect id="Rectangle" fill-opacity="0" fill="#FFFFFF" x="0" y="0" width="24" height="24"></rect>
            <g id="Group-2" transform="translate(2.000000, 1.000000)">
                <path d="M16.7055349,8.33109295 C16.0162142,7.12860145 14.9057888,6.1333488 13.5878768,5.51693631 L13.5878768,4.53207319 C15.3880017,5.26578232 16.8799664,6.61619747 17.7923091,8.33109295 L16.7055349,8.33109295 Z M7.32216504,4.53207319 L7.32216504,5.51693645 C6.00424289,6.13335444 4.89298116,7.12907607 4.13402271,8.37061646 L3.11529326,8.33568181 C4.02741458,6.61860653 5.52043481,5.26643664 7.32216504,4.53207319 Z M10.4550209,19.629709 C12.3193949,19.629709 14.0759431,18.937718 15.4282448,17.7105965 L16.6927435,17.7105965 C15.1276564,19.4899031 12.8763206,20.5320732 10.4550209,20.5320732 C8.03372124,20.5320732 5.78238546,19.4899031 4.21729834,17.7105965 L5.51379344,17.7105965 C6.81347351,18.9295674 8.57969933,19.629709 10.4550209,19.629709 Z" id="Combined-Shape" fill="currentColor"></path>
                <g id="user-copy-3" transform="translate(0.790056, 8.789630)" stroke="currentColor">
                    <circle id="Oval" cx="2.88651609" cy="2.47807005" r="1.21072171"></circle>
                    <path d="M0.676008496,7.03895348 C0.670168825,7.05797067 0.66719994,7.07775289 0.66719994,7.09764648 C0.66719994,7.20807324 0.756718514,7.29759182 0.867151772,7.29759182 L5.07231878,7.29764648 C5.09677246,7.29764648 5.12101881,7.29316179 5.14385465,7.28441495 C5.24700167,7.24490642 5.29859245,7.12925861 5.25908686,7.02611447 C4.8087018,5.85027027 4.04973562,5.3 2.90228869,5.3 C1.75196933,5.3 1.04111646,5.8499607 0.676008496,7.03895348 Z" id="Path-3"></path>
                </g>
                <g id="user-copy-5" transform="translate(14.790056, 8.789630)" stroke="currentColor">
                    <circle id="Oval" cx="2.88651609" cy="2.47807005" r="1.21072171"></circle>
                    <path d="M0.676008496,7.03895348 C0.670168825,7.05797067 0.66719994,7.07775289 0.66719994,7.09764648 C0.66719994,7.20807324 0.756718514,7.29759182 0.867151772,7.29759182 L5.07231878,7.29764648 C5.09677246,7.29764648 5.12101881,7.29316179 5.14385465,7.28441495 C5.24700167,7.24490642 5.29859245,7.12925861 5.25908686,7.02611447 C4.8087018,5.85027027 4.04973562,5.3 2.90228869,5.3 C1.75196933,5.3 1.04111646,5.8499607 0.676008496,7.03895348 Z" id="Path-3"></path>
                </g>
                <g id="user-copy-6" transform="translate(7.574998, 0.683597)" stroke="currentColor">
                    <circle id="Oval" cx="2.88651609" cy="2.47807005" r="1.21072171"></circle>
                    <path d="M0.676008496,7.03895348 C0.670168825,7.05797067 0.66719994,7.07775289 0.66719994,7.09764648 C0.66719994,7.20807324 0.756718514,7.29759182 0.867151772,7.29759182 L5.07231878,7.29764648 C5.09677246,7.29764648 5.12101881,7.29316179 5.14385465,7.28441495 C5.24700167,7.24490642 5.29859245,7.12925861 5.25908686,7.02611447 C4.8087018,5.85027027 4.04973562,5.3 2.90228869,5.3 C1.75196933,5.3 1.04111646,5.8499607 0.676008496,7.03895348 Z" id="Path-3"></path>
                </g>
            </g>
        </g>
    </g>
</svg>