<?xml version="1.0" encoding="UTF-8"?>
<svg width="48px" height="48px" viewBox="0 0 48 48" version="1.1" xmlns="http://www.w3.org/2000/svg" xmlns:xlink="http://www.w3.org/1999/xlink">
    <!-- Generator: Sketch 52.6 (67491) - http://www.bohemiancoding.com/sketch -->
    <title>icon/emphasis</title>
    <desc>Created with Sketch.</desc>
    <g id="icon/emphasis" stroke="none" stroke-width="1" fill="none" fill-rule="evenodd">
        <g>
            <circle id="Oval-Copy-4" fill="#87E6D4" cx="24" cy="24" r="24"></circle>
            <g id="information-(3)" transform="translate(13.000000, 13.000000)">
                <path d="M11.0000094,2.44249065e-15 C5.07133402,2.44249065e-15 1.87377909e-05,5.06175231 1.87377909e-05,11 C1.87377909e-05,13.0284271 0.581271305,15.1855926 1.56132724,16.8172302 L0.0220066448,21.4345245 C-0.0293544169,21.5887757 0.0107609161,21.75914 0.125903662,21.874115 C0.241549915,21.9897614 0.412081996,22.0292053 0.565661545,21.9778442 L5.18295196,20.4386902 C6.81442029,21.4189148 8.97158398,22 11.0000094,22 C16.9301954,22 22,16.9375763 22,11 C22,5.06980895 16.9377485,0 11.0000094,2.44249065e-15 Z" id="Shape" fill="#FFFFFF" fill-rule="nonzero"></path>
                <path d="M9.75869475,7.90452701 C9.79686269,7.97971498 9.83503063,8.05490295 9.87319856,8.11129393 C9.9113665,8.1676849 9.96861841,8.22407588 10.0067864,8.28046686 C10.0640383,8.33685784 10.1212902,8.39324881 10.197626,8.44963979 C10.254878,8.48723378 10.3312138,8.54362475 10.4266337,8.56242175 C10.5029696,8.60001573 10.5793054,8.61881272 10.6747253,8.63760972 C10.7701451,8.65640671 10.846481,8.65640671 10.9228169,8.65640671 C10.9991528,8.65640671 11.0945726,8.65640671 11.1709085,8.63760972 C11.2472444,8.61881272 11.3235802,8.60001573 11.3808322,8.56242175 L11.3999161,8.56242175 C11.476252,8.52482776 11.5525879,8.48723378 11.6289238,8.4308428 C11.6861757,8.39324881 11.7434276,8.33685784 11.8006795,8.28046686 L11.8197634,8.26166987 C11.8770154,8.20527889 11.9151833,8.14888791 11.9533512,8.09249693 C11.9915192,8.03610596 12.0296871,7.97971498 12.0487711,7.90452701 C12.0487711,7.88573002 12.0487711,7.88573002 12.0678551,7.86693302 C12.106023,7.79174505 12.125107,7.69776009 12.1441909,7.62257212 C12.1632749,7.54738415 12.1632749,7.45339919 12.1632749,7.37821122 C12.1632749,7.30302325 12.1632749,7.20903829 12.1441909,7.13385032 C12.125107,7.05866235 12.106023,6.98347438 12.0678551,6.88948942 C12.0106031,6.75791047 11.9342673,6.64512851 11.8388474,6.55114355 C11.8197634,6.53234656 11.8197634,6.53234656 11.8006795,6.51354957 C11.7434276,6.45715859 11.6861757,6.4195646 11.6098398,6.36317363 C11.5335039,6.32557964 11.476252,6.28798566 11.3999161,6.25039167 C11.3235802,6.21279769 11.2472444,6.19400069 11.1709085,6.1752037 C11.0754886,6.15640671 10.9991528,6.15640671 10.9228169,6.15640671 C10.846481,6.15640671 10.7510612,6.15640671 10.6747253,6.1752037 C10.5983894,6.19400069 10.5220535,6.21279769 10.4457176,6.25039167 L10.4266337,6.25039167 C10.3502978,6.28798566 10.2739619,6.32557964 10.21671,6.36317363 C10.1403741,6.4195646 10.0831222,6.45715859 10.0258703,6.51354957 C9.96861841,6.56994054 9.9113665,6.62633152 9.87319856,6.6827225 C9.83503063,6.73911348 9.79686269,6.81430145 9.75869475,6.88948942 C9.72052681,6.96467739 9.70144284,7.03986536 9.68235887,7.11505333 C9.6632749,7.20903829 9.6632749,7.28422626 9.6632749,7.35941423 C9.6632749,7.4346022 9.6632749,7.52858716 9.68235887,7.60377513 C9.70144284,7.75415107 9.73961078,7.82933904 9.75869475,7.90452701 Z" id="Path" fill="#87E6D4"></path>
                <path d="M12.8128861,15.3383838 L12.325684,15.3383838 C12.0495416,15.3383838 11.825684,15.1145262 11.825684,14.8383838 L11.825684,9.88888889 C11.825684,9.87745195 11.811579,9.86363636 11.7749338,9.86363636 L9.55075022,9.86363636 C9.51495742,9.86363636 9.5,9.87752592 9.5,9.88888889 L9.5,10.979798 C9.5,10.9912349 9.51410503,11.0050505 9.55075022,11.0050505 L9.99558694,11.0050505 C10.2717293,11.0050505 10.4955869,11.2289081 10.4955869,11.5050505 L10.4955869,14.8585859 C10.4955869,15.1347282 10.2717293,15.3585859 9.99558694,15.3585859 L9.55075022,15.3585859 C9.51495742,15.3585859 9.5,15.3724754 9.5,15.3838384 L9.5,16.4747475 C9.5,16.4861844 9.51410503,16.5 9.55075022,16.5 L12.8128861,16.5 C12.8486789,16.5 12.8636364,16.4861104 12.8636364,16.4747475 L12.8636364,15.3838384 C12.8636364,15.3625665 12.8389299,15.3383838 12.8128861,15.3383838 Z" id="Path" fill="#87E6D4" fill-rule="nonzero"></path>
            </g>
            <rect id="Rectangle" fill="#FFFFFF" opacity="0" x="12" y="12" width="24" height="24"></rect>
        </g>
    </g>
</svg>