<?xml version="1.0" encoding="UTF-8"?>
<svg width="24px" height="24px" viewBox="0 0 24 24" version="1.1" xmlns="http://www.w3.org/2000/svg" xmlns:xlink="http://www.w3.org/1999/xlink">
    <g id="icon/epoch" stroke="none" stroke-width="1" fill="none" fill-rule="evenodd">
        <g id="icon/epoch-copy-2">
            <rect id="Rectangle" fill-opacity="0" fill="#FFFFFF" x="0" y="0" width="24" height="24"></rect>
            <g id="Group-2" transform="translate(3.000000, 4.000000)" fill="#8791AD">
                <path d="M16.3552632,5.23026316 L1.01315789,5.23026316 L1.01315789,13.0263158 C1.01315789,13.2661236 1.20756057,13.4605263 1.44736842,13.4605263 L10.2645165,13.4605263 C10.3471446,13.8139118 10.4667664,14.1530666 10.6190752,14.4736842 L1.44736842,14.4736842 C0.648008915,14.4736842 0,13.8256753 0,13.0263158 L0,2.89473684 C0,2.09537734 0.648008915,1.44736842 1.44736842,1.44736842 L15.9210526,1.44736842 C16.7204121,1.44736842 17.3684211,2.09537734 17.3684211,2.89473684 L17.3684211,7.72433834 C17.0478034,7.57202951 16.7086486,7.45240779 16.3552632,7.36977968 L16.3552632,5.23026316 Z M16.3552632,4.17763158 L16.3552632,2.89473684 C16.3552632,2.65492899 16.1608605,2.46052632 15.9210526,2.46052632 L1.44736842,2.46052632 C1.20756057,2.46052632 1.01315789,2.65492899 1.01315789,2.89473684 L1.01315789,4.17763158 L16.3552632,4.17763158 Z" id="Combined-Shape" fill-rule="nonzero"></path>
                <polygon id="Path-5" fill-rule="nonzero" points="2.89473684 0 3.94736842 0 3.94736842 3.68445776 2.89473684 3.68445776"></polygon>
                <polygon id="Path-5-Copy" fill-rule="nonzero" points="13.6052632 0 14.6578947 0 14.6578947 3.68445776 13.6052632 3.68445776"></polygon>
                <path d="M15.6710526,12.0657895 L17.5328947,12.0657895 L17.5328947,13.1184211 L14.6381579,13.1184211 L14.6381579,13.0263158 L14.6184211,13.0263158 L14.6184211,10.1315789 L15.6710526,10.1315789 L15.6710526,12.0657895 Z" id="Combined-Shape" fill-rule="nonzero"></path>
                <path d="M8.60677632,8.16388158 C9.39221884,8.16388158 9.97333145,8.31645681 10.3501316,8.62161184 C10.7269317,8.92676688 10.9153289,9.34203685 10.9153289,9.86743421 C10.9153289,10.201778 10.833071,10.504275 10.6685526,10.7749342 C10.5040343,11.0455935 10.2572604,11.2605255 9.92822368,11.4197368 C9.59918695,11.5789482 9.19320417,11.6585526 8.71026316,11.6585526 C8.31223485,11.6585526 7.92747993,11.6015028 7.55598684,11.4874013 C7.18449376,11.3732999 6.87138285,11.2154177 6.61664474,11.01375 L7.05447368,10.2097368 C7.2614484,10.3795623 7.50954899,10.5135631 7.79878289,10.6117434 C8.0880168,10.7099237 8.38653355,10.7590132 8.69434211,10.7590132 C9.06052815,10.7590132 9.34843097,10.6833889 9.55805921,10.5321382 C9.76768745,10.3808874 9.8725,10.172589 9.8725,9.90723684 C9.8725,9.62065646 9.759727,9.40439766 9.53417763,9.25845395 C9.30862826,9.11251024 8.92254659,9.03953947 8.37592105,9.03953947 L7.03059211,9.03953947 L7.31717105,6.00657895 L10.5889474,6.00657895 L10.5889474,6.87427632 L8.19282895,6.87427632 L8.07342105,8.16388158 L8.60677632,8.16388158 Z" id="5"></path>
                <path d="M15.1973684,16.4276316 C12.9191938,16.4276316 11.0723684,14.5808062 11.0723684,12.3026316 C11.0723684,10.024457 12.9191938,8.17763158 15.1973684,8.17763158 C17.475543,8.17763158 19.3223684,10.024457 19.3223684,12.3026316 C19.3223684,14.5808062 17.475543,16.4276316 15.1973684,16.4276316 Z M15.1973684,15.4144737 C16.9159914,15.4144737 18.3092105,14.0212545 18.3092105,12.3026316 C18.3092105,10.5840086 16.9159914,9.19078947 15.1973684,9.19078947 C13.4787455,9.19078947 12.0855263,10.5840086 12.0855263,12.3026316 C12.0855263,14.0212545 13.4787455,15.4144737 15.1973684,15.4144737 Z" id="Oval-Copy" fill-rule="nonzero"></path>
            </g>
        </g>
    </g>
</svg>
