<?xml version="1.0" encoding="UTF-8"?>
<svg width="48px" height="48px" viewBox="0 0 48 48" version="1.1" xmlns="http://www.w3.org/2000/svg" xmlns:xlink="http://www.w3.org/1999/xlink">
    <!-- Generator: Sketch 52.6 (67491) - http://www.bohemiancoding.com/sketch -->
    <title>icon/epoch number</title>
    <desc>Created with Sketch.</desc>
    <g id="icon/epoch-number" stroke="none" stroke-width="1" fill="none" fill-rule="evenodd">
        <g id="icon/epoch-copy">
            <g id="icon/bg-for-icon" fill="#4D20C0" opacity="0.1">
                <circle id="Oval-Copy-4" cx="24" cy="24" r="24"></circle>
            </g>
            <g id="icon/epoch" transform="translate(8.000000, 8.000000)">
                <rect id="Rectangle" fill-opacity="0" fill="#FFFFFF" x="0" y="0" width="32" height="32"></rect>
                <path d="M16,29.7 C8.43369893,29.7 2.3,23.5663011 2.3,16 C2.3,8.43369893 8.43369893,2.3 16,2.3 C23.5663011,2.3 29.7,8.43369893 29.7,16 C29.7,23.5663011 23.5663011,29.7 16,29.7 Z M16,28.3 C22.7931024,28.3 28.3,22.7931024 28.3,16 C28.3,9.20689758 22.7931024,3.7 16,3.7 C9.20689758,3.7 3.7,9.20689758 3.7,16 C3.7,22.7931024 9.20689758,28.3 16,28.3 Z" id="Oval" fill="#92B9FC" fill-rule="nonzero"></path>
                <path d="M18.84,14.848 L18.456,17.952 L20.68,17.952 L20.68,19.12 L18.312,19.12 L17.96,22 L16.824,22 L17.176,19.12 L14.152,19.12 L13.8,22 L12.664,22 L13.016,19.12 L10.808,19.12 L10.808,17.952 L13.16,17.952 L13.56,14.848 L11.32,14.848 L11.32,13.68 L13.704,13.68 L14.056,10.8 L15.192,10.8 L14.84,13.68 L17.848,13.68 L18.2,10.8 L19.336,10.8 L18.984,13.68 L21.192,13.68 L21.192,14.848 L18.84,14.848 Z M17.704,14.848 L14.696,14.848 L14.296,17.952 L17.32,17.952 L17.704,14.848 Z" id="#" fill="#4D20C0"></path>
            </g>
        </g>
    </g>
</svg>