<?xml version="1.0" encoding="UTF-8"?>
<svg width="24px" height="24px" viewBox="0 0 24 24" version="1.1" xmlns="http://www.w3.org/2000/svg" xmlns:xlink="http://www.w3.org/1999/xlink">
    <!-- Generator: Sketch 52.6 (67491) - http://www.bohemiancoding.com/sketch -->
    <desc>Created with Sketch.</desc>
    <g id="icon/error" stroke="none" stroke-width="1" fill="none" fill-rule="evenodd">
        <rect id="Rectangle" fill="#FFFFFF" opacity="0" x="0" y="0" width="24" height="24"></rect>
        <path d="M13.3682388,5.34316408 L20.8705027,18.768268 C21.2746271,19.491438 21.0159896,20.4052908 20.2928195,20.8094152 C20.0691857,20.9343871 19.8172711,21 19.5610875,21 L4.5565596,21 C3.72813247,21 3.0565596,20.3284271 3.0565596,19.5 C3.0565596,19.2438164 3.12217254,18.9919018 3.24714437,18.768268 L10.7494083,5.34316408 C11.1535328,4.61999402 12.0673855,4.36135645 12.7905556,4.7654809 C13.0328564,4.90088433 13.2328353,5.10086321 13.3682388,5.34316408 Z" id="Triangle" fill="#FFFFFF"></path>
        <path d="M11.2265512,9.45355325 C11.2265512,9.21103632 11.3089791,9.0239348 11.4740336,8.89205008 C11.6388895,8.76016536 11.8524077,8.694223 12.1147868,8.694223 C12.3769673,8.694223 12.5698288,8.76274744 12.6925769,8.89999495 C12.8155237,9.03724245 12.8770964,9.22156326 12.8770964,9.45355325 C12.8770964,10.2130821 12.8637887,10.5660326 12.8381666,12.2849037 C12.8119485,14.0037747 12.7992367,14.5456143 12.7992367,15.304746 C12.7992367,15.463246 12.7249523,15.5871858 12.5767806,15.6767642 C12.4284103,15.7661439 12.2744786,15.811231 12.1147868,15.811231 C11.6472316,15.811231 11.4134541,15.6424026 11.4134541,15.304746 C11.4134541,14.5456143 11.3822705,14.0037747 11.3201019,12.2849037 C11.2577348,10.565834 11.2265512,10.2128835 11.2265512,9.45355325 M11.133199,17.8381641 C11.133199,17.6002154 11.230325,17.3980187 11.4243782,17.2315738 C11.6184315,17.0651289 11.8545926,16.9815092 12.1318683,16.9815092 C12.3761728,16.9815092 12.5873075,17.0651289 12.7652724,17.2315738 C12.943436,17.3980187 13.0326171,17.6002154 13.0326171,17.8381641 C13.0326171,18.0663802 12.943436,18.2661935 12.7652724,18.4374053 C12.5873075,18.6088157 12.3759742,18.694223 12.1318683,18.694223 C11.8543939,18.694223 11.6184315,18.6088157 11.4243782,18.4374053 C11.230325,18.2661935 11.133199,18.0663802 11.133199,17.8381641" id="Fill-1" fill="#FF1755"></path>
    </g>
</svg>