<?xml version="1.0" encoding="UTF-8"?>
<svg width="24px" height="24px" viewBox="0 0 24 24" version="1.1" xmlns="http://www.w3.org/2000/svg" xmlns:xlink="http://www.w3.org/1999/xlink">
    <!-- Generator: Sketch 52.6 (67491) - http://www.bohemiancoding.com/sketch -->
    <title>fee</title>
    <desc>Created with Sketch.</desc>
    <defs>
        <polygon id="path-1" points="0 0.4646 16.5146 0.4646 16.5146 16.9996 0 16.9996"></polygon>
        <polygon id="path-3" points="0.3467 0.521 8.614 0.521 8.614 9.1912 0.3467 9.1912"></polygon>
    </defs>
    <g id="fee" stroke="none" stroke-width="1" fill="none" fill-rule="evenodd">
        <g id="Group">
            <rect id="Rectangle-Copy" fill="#FFFFFF" opacity="0" x="0" y="0" width="24" height="24"></rect>
            <g id="Group-6" transform="translate(3.000000, 4.479400)">
                <mask id="mask-2" fill="white">
                    <use xlink:href="#path-1"></use>
                </mask>
                <g id="Clip-5"></g>
                <path d="M8.2676,0.4646 C3.7016,0.4646 -0.0004,4.1666 -0.0004,8.7326 C-0.0004,13.2986 3.7016,16.9996 8.2676,16.9996 C12.6976,16.9996 16.3036,13.5126 16.5146,9.1346 L8.2676,9.1346 L8.2676,0.4646 Z M7.2676,1.5326 L7.2676,9.1346 L7.2676,10.1346 L8.2676,10.1346 L15.3896,10.1346 C14.7366,13.4966 11.7876,15.9996 8.2676,15.9996 C4.2606,15.9996 0.9996,12.7396 0.9996,8.7326 C0.9996,5.0646 3.7316,2.0226 7.2676,1.5326 Z" id="Fill-4" fill="#8791AD" mask="url(#mask-2)"></path>
            </g>
            <g id="Group-3" transform="translate(12.000000, 3.479400)">
                <mask id="mask-4" fill="white">
                    <use xlink:href="#path-3"></use>
                </mask>
                <g id="Clip-2"></g>
                <path d="M0.3467,0.5202 L0.3467,9.1912 L8.5937,9.1912 C8.6007,9.0562 8.6147,8.9242 8.6147,8.7882 C8.6147,4.2222 4.9127,0.5202 0.3467,0.5202 M1.3467,1.5892 C4.6887,2.0512 7.3127,4.7932 7.5897,8.1912 L1.3467,8.1912 L1.3467,1.5892" id="Fill-1" fill="#8791AD" mask="url(#mask-4)"></path>
            </g>
        </g>
    </g>
</svg>