<?xml version="1.0" encoding="UTF-8"?>
<svg width="24px" height="24px" viewBox="0 0 24 24" version="1.1" xmlns="http://www.w3.org/2000/svg" xmlns:xlink="http://www.w3.org/1999/xlink">
    <!-- Generator: Sketch 52.6 (67491) - http://www.bohemiancoding.com/sketch -->
    <desc>Created with Sketch.</desc>
    <g id="icon/from-genesis" stroke="none" stroke-width="1" fill="none" fill-rule="evenodd">
        <g>
            <rect id="Rectangle" fill="#FFFFFF" opacity="0" x="0" y="0" width="24" height="24"></rect>
            <g id="icon/price-copy" transform="translate(1.000000, 5.000000)">
                <g id="blocks" transform="translate(17.000000, 1.000000)" fill="#8791AD" fill-rule="nonzero">
                    <path d="M4,7 C3.44771525,7 3,6.55228475 3,6 C3,5.44771525 3.44771525,5 4,5 C4.55228475,5 5,5.44771525 5,6 C5,6.55228475 4.55228475,7 4,7 Z" id="Oval"></path>
                    <path d="M4,12 C3.44771525,12 3,11.5522847 3,11 C3,10.4477153 3.44771525,10 4,10 C4.55228475,10 5,10.4477153 5,11 C5,11.5522847 4.55228475,12 4,12 Z" id="Oval-Copy-4"></path>
                    <path d="M4,2 C3.44771525,2 3,1.55228475 3,1 C3,0.44771525 3.44771525,0 4,0 C4.55228475,0 5,0.44771525 5,1 C5,1.55228475 4.55228475,2 4,2 Z" id="Oval-Copy-3"></path>
                    <polygon id="Path-15-Copy" points="0.824489832 11.4538835 0.824489832 10.6538835 3.68811604 10.6538835 3.68811604 11.4538835"></polygon>
                    <polygon id="Path-15-Copy-2" points="0.983938535 6.46370369 0.983938535 5.66370369 3.84756474 5.66370369 3.84756474 6.46370369"></polygon>
                    <polygon id="Path-15-Copy-3" points="0.931514868 1.49619447 0.931514868 0.696194466 3.79514108 0.696194466 3.79514108 1.49619447"></polygon>
                </g>
                <g id="blocks-copy" transform="translate(2.500000, 7.000000) scale(-1, 1) translate(-2.500000, -7.000000) translate(0.000000, 1.000000)" fill="#8791AD" fill-rule="nonzero">
                    <path d="M4,7 C3.44771525,7 3,6.55228475 3,6 C3,5.44771525 3.44771525,5 4,5 C4.55228475,5 5,5.44771525 5,6 C5,6.55228475 4.55228475,7 4,7 Z" id="Oval"></path>
                    <path d="M4,12 C3.44771525,12 3,11.5522847 3,11 C3,10.4477153 3.44771525,10 4,10 C4.55228475,10 5,10.4477153 5,11 C5,11.5522847 4.55228475,12 4,12 Z" id="Oval-Copy-4"></path>
                    <path d="M4,2 C3.44771525,2 3,1.55228475 3,1 C3,0.44771525 3.44771525,0 4,0 C4.55228475,0 5,0.44771525 5,1 C5,1.55228475 4.55228475,2 4,2 Z" id="Oval-Copy-3"></path>
                    <polygon id="Path-15-Copy" points="0.824489832 11.4538835 0.824489832 10.6538835 3.68811604 10.6538835 3.68811604 11.4538835"></polygon>
                    <polygon id="Path-15-Copy-2" points="0.983938535 6.46370369 0.983938535 5.66370369 3.84756474 5.66370369 3.84756474 6.46370369"></polygon>
                    <polygon id="Path-15-Copy-3" points="0.931514868 1.49619447 0.931514868 0.696194466 3.79514108 0.696194466 3.79514108 1.49619447"></polygon>
                </g>
                <rect id="Rectangle-Copy-8" stroke="#8791AD" x="4.5" y="0.5" width="13" height="13" rx="2"></rect>
                <path d="M9.27844985,7.3398515 L9.27819256,7.34050128 L9.61642137,6.47785411 C9.65190996,6.42015025 9.65190996,6.42015025 9.71484716,6.40693583 L12.1542529,6.40693583 C12.2171901,6.42015025 12.2171901,6.42015025 12.2505415,6.47204764 L12.6008145,7.3398515 C12.6044349,7.44301292 12.6044349,7.44301292 12.5044093,7.48258087 L9.37536319,7.48258087 C9.27784308,7.44747051 9.27784308,7.44747051 9.27844985,7.3398515 Z M11.0117265,3.40100755 L11.0125492,3.40298546 L11.918289,5.64802194 C11.9188958,5.75564096 11.9188958,5.75564096 11.8213757,5.79075131 L10.0380684,5.79075131 C9.94054832,5.75564096 9.94054832,5.75564096 9.94087568,5.64872823 L10.8202743,3.40100755 C10.9160004,3.31663932 10.9160004,3.31663932 11.0117265,3.40100755 Z M15.0131478,7.77682499 C15.0056914,7.61453659 14.8522468,7.48258087 14.6709066,7.48258087 L13.4069895,7.48258087 C13.3329674,7.46047909 13.3329674,7.46047909 13.3112091,7.41746906 L12.9609362,6.54966521 C12.9573158,6.44650378 12.9573158,6.44650378 13.0573413,6.40693583 L13.8450661,6.40693583 C14.0264449,6.40693583 14.1799163,6.27492391 14.1873028,6.1127954 C14.1949387,5.93716945 14.0516461,5.79075131 13.871493,5.79075131 L12.7249723,5.79075131 C12.6620351,5.7775369 12.6620351,5.7775369 12.6286771,5.72562302 L11.2041391,2.19451708 C11.1563129,2.07572294 11.0432686,2.0006803 10.9084199,1.99950772 C10.7783274,1.99989375 10.6620254,2.07878162 10.615512,2.19717892 L9.23645513,5.71983304 C9.20096654,5.7775369 9.20096654,5.7775369 9.13802934,5.79075131 L8.02149298,5.79075131 C7.8395863,5.79075131 7.68576001,5.9227403 7.67873888,6.08459042 C7.67072629,6.26048584 7.81381238,6.40693583 7.99404966,6.40693583 L8.81480807,6.40693583 C8.91232818,6.44204619 8.91232818,6.44204619 8.9119787,6.54901543 L8.57374989,7.4116626 C8.5382613,7.46936645 8.5382613,7.46936645 8.4753241,7.48258087 L7.21547265,7.48258087 C7.03381177,7.48258087 6.87973569,7.61480134 6.8727181,7.77693805 C6.86470895,7.9523765 7.00785277,8.09876539 7.18802934,8.09876539 L8.15311925,8.09876539 C8.25561846,8.14316416 8.25561846,8.14316416 8.24929473,8.24079065 L7.12767433,11.1076056 C7.06571258,11.2659523 7.14619446,11.4434616 7.30902909,11.5050543 C7.34562556,11.518778 7.3839539,11.5256223 7.42282214,11.5256223 C7.55295543,11.5256223 7.67091866,11.4475293 7.71796951,11.3274556 L8.95371613,8.16968366 C8.98920472,8.1119798 8.98920472,8.1119798 9.05214192,8.09876539 L12.8367784,8.09876539 C12.8997156,8.1119798 12.8997156,8.1119798 12.933073,8.16389238 L14.2198485,11.353388 C14.2680442,11.4727476 14.3851012,11.5495082 14.5138698,11.5495082 C14.5539203,11.5495082 14.5928293,11.542267 14.6311688,11.5273148 C14.7927509,11.4646055 14.8713614,11.2859561 14.807877,11.1283922 L13.6434616,8.24149476 C13.6428548,8.13387575 13.6428548,8.13387575 13.7403749,8.09876539 L14.6973335,8.09876539 C14.8774511,8.09876539 15.0207228,7.95240488 15.0131478,7.776825 Z M15.0131478,7.776825 C15.0131463,7.77679044 15.0131448,7.77675587 15.0131433,7.77672131 L15.0131525,7.77692867 C15.0131509,7.77689411 15.0131493,7.77685955 15.0131478,7.77682499 Z" id="Fill-1" stroke="#8791AD" stroke-width="0.2" fill="#8791AD"></path>
            </g>
        </g>
    </g>
</svg>