<?xml version="1.0" encoding="UTF-8"?>
<svg width="48px" height="48px" viewBox="0 0 48 48" version="1.1" xmlns="http://www.w3.org/2000/svg" xmlns:xlink="http://www.w3.org/1999/xlink">
    <!-- Generator: Sketch 52.6 (67491) - http://www.bohemiancoding.com/sketch -->
    <desc>Created with Sketch.</desc>
    <g id="icon/qrcode" stroke="none" stroke-width="1" fill="none" fill-rule="evenodd">
        <g id="qr-code">
            <circle id="Oval" fill="#4D20C0" cx="24" cy="24" r="24"></circle>
            <g id="qr-code.icon" transform="translate(12.000000, 12.000000)" fill="#FFFFFF">
                <path d="M3.5,3.5 L3.5,9.5 L9.5,9.5 L9.5,3.5 L3.5,3.5 Z M2,2 L11,2 L11,11 L2,11 L2,2 Z" id="Rectangle-Copy-9"></path>
                <path d="M14.5,3.5 L14.5,9.5 L20.5,9.5 L20.5,3.5 L14.5,3.5 Z M13,2 L22,2 L22,11 L13,11 L13,2 Z" id="Rectangle-Copy-10"></path>
                <path d="M3.5,14.5 L3.5,20.5 L9.5,20.5 L9.5,14.5 L3.5,14.5 Z M2,13 L11,13 L11,22 L2,22 L2,13 Z" id="Rectangle-Copy-11"></path>
                <path d="M18,20.5 L20.5,20.5 L20.5,17 L22,17 L22,22 L18,22 L18,20.5 Z M16,20.5 L16,22 L13,22 L13,20 L14.5,20 L14.5,20.5 L16,20.5 Z M19,14.5 L19,13 L22,13 L22,15 L20.5,15 L20.5,14.5 L19,14.5 Z M17,14.5 L14.5,14.5 L14.5,18 L13,18 L13,13 L17,13 L17,14.5 Z" id="Combined-Shape"></path>
                <rect id="Rectangle-Copy-13" x="6" y="16" width="2" height="2"></rect>
                <rect id="Rectangle-Copy-14" x="6" y="6" width="2" height="2"></rect>
                <rect id="Rectangle-Copy-15" x="16" y="6" width="2" height="2"></rect>
                <rect id="Rectangle-Copy-16" x="16" y="16" width="2" height="2"></rect>
                <rect id="Rectangle" opacity="0" x="0" y="0" width="24" height="24"></rect>
            </g>
        </g>
    </g>
</svg>