<?xml version="1.0" encoding="UTF-8"?>
<svg width="48px" height="48px" viewBox="0 0 48 48" version="1.1" xmlns="http://www.w3.org/2000/svg" xmlns:xlink="http://www.w3.org/1999/xlink">
    <!-- Generator: Sketch 52.6 (67491) - http://www.bohemiancoding.com/sketch -->
    <title>icon/rewarded-address</title>
    <desc>Created with Sketch.</desc>
    <g id="icon/rewarded-address" stroke="none" stroke-width="1" fill="none" fill-rule="evenodd">
        <g id="icon/startpage-currency-copy-6">
            <g id="icon/bg-for-icon" fill="#4D20C0" opacity="0.1">
                <circle id="Oval-Copy-4" cx="24" cy="24" r="24"></circle>
            </g>
            <g id="icon/price" transform="translate(8.000000, 8.000000)" fill="#FFFFFF" opacity="0">
                <rect id="Rectangle" x="0" y="0" width="32" height="32"></rect>
            </g>
            <g id="logo-copy-3" transform="translate(18.000000, 14.000000)" fill="#4D20C0">
                <path d="M6.3875,8.52651283e-14 C6.4306375,8.52651283e-14 6.47358906,0.0254591913 6.48772031,0.0761917404 L7.875,5.1026166 L7.86700469,5.1026166 C7.45775625,4.78521296 6.94549844,4.59436194 6.3875,4.59436194 C5.82950156,4.59436194 5.31705781,4.78521296 4.90799531,5.1026166 L4.9,5.1026166 L6.28746563,0.0761917404 C6.30141094,0.0254591913 6.3443625,8.52651283e-14 6.3875,8.52651283e-14 Z M7.63885938,9.07499378 C7.65708125,9.06384377 7.67604688,9.0590121 7.69445469,9.0590121 C7.75841719,9.0590121 7.8140125,9.11847882 7.79430313,9.18946722 L6.48772031,13.9237618 C6.45964375,14.0254127 6.31535625,14.0254127 6.28746563,13.9237618 L4.98069688,9.18946722 C4.95540938,9.09803713 5.05488594,9.02556206 5.13614063,9.07499378 C5.50113594,9.29725066 5.92879219,9.42603328 6.3875,9.42603328 C6.84620781,9.42603328 7.27386406,9.29725066 7.63885938,9.07499378 Z M4.2272627,5.612425 C4.23675402,5.60982188 4.24606625,5.60852031 4.25502033,5.60852031 C4.32683199,5.60852031 4.37804929,5.69014688 4.34044218,5.76229063 C4.1615398,6.10422969 4.05946337,6.49581406 4.05946337,6.9125 C4.05946337,7.31951719 4.15652552,7.70310625 4.32790648,8.03946719 C4.36891614,8.12035 4.29925345,8.212575 4.21401067,8.18840313 L0.0734681701,7.00249375 C-0.02448939,6.97423125 -0.02448939,6.83031563 0.0734681701,6.80205313 L4.2272627,5.612425 Z M8.43460259,5.76229063 C8.39699548,5.69014688 8.44821278,5.60852031 8.52002444,5.60852031 C8.52897852,5.60852031 8.53829075,5.60982188 8.54778207,5.612425 L12.7013975,6.80205313 C12.7995342,6.83031563 12.7995342,6.97423125 12.7013975,7.00249375 L8.56085502,8.18840313 C8.47579132,8.212575 8.40594955,8.12035 8.44731737,8.03946719 C8.61851925,7.70310625 8.7155814,7.31951719 8.7155814,6.9125 C8.7155814,6.49581406 8.61350497,6.10422969 8.43460259,5.76229063 Z M4.95487068,6.9125 C4.95487068,6.09084219 5.59634048,5.425 6.38752239,5.425 C7.17888337,5.425 7.82017409,6.09084219 7.82017409,6.9125 C7.82017409,7.73397188 7.17888337,8.4 6.38752239,8.4 C5.59634048,8.4 4.95487068,7.73397188 4.95487068,6.9125 Z" id="Combined-Shape"></path>
            </g>
            <path d="M25.5319627,31.2572122 C25.9647681,31.213951 26.3897561,31.1441548 26.8052761,31.0494742 L28.323331,34.0836515 L28.4809248,34.0978652 L30.0708108,31.979335 C30.1872607,31.8243207 30.3698267,31.7330918 30.56379,31.7329073 L33.2134769,31.7329073 L33.2966717,31.5982673 L31.6976943,28.4018052 C32.0145327,28.0967322 32.3120677,27.7717519 32.5882863,27.4288769 L34.91165,32.0732794 C35.0072111,32.2641282 34.9970019,32.4905768 34.8847048,32.6720697 C34.7725321,32.8536208 34.5742412,32.9641965 34.3607944,32.9641965 L30.9182879,32.9641965 L28.778199,35.7537547 C28.6617318,35.9089523 28.4790078,36 28.2855874,36 C28.0456291,36 27.83606,35.8627067 27.7345755,35.6596843 L25.5319627,31.2572122 Z M23.4445187,31.2578425 L21.2422361,35.6596548 C21.1404517,35.8629295 20.9311313,36 20.6912094,36 C20.4976864,36 20.3150866,35.9090142 20.1983787,35.7537089 L18.1329116,33.0013846 L14.6160023,32.9641965 C14.4025677,32.9641965 14.2042446,32.8536274 14.0919073,32.6720697 C13.979786,32.4906017 13.9695745,32.2641018 14.0649901,32.0732235 L16.3861178,27.4341471 C16.6624892,27.7767572 16.9601566,28.1014709 17.2771084,28.4062768 L15.679944,31.5984448 L15.7631352,31.7330918 L18.4130067,31.7330918 C18.6069599,31.7330918 18.7895034,31.8243095 18.9057913,31.9793216 L20.495875,34.0978694 L20.6534673,34.0836486 L22.1707223,31.0508037 C22.5864078,31.1452685 23.0115572,31.214832 23.4445187,31.2578425 Z M17.0604537,25.997492 L17.0594388,25.9821604 C16.0609772,24.5104898 15.5188316,22.7765769 15.5188316,20.9641965 C15.5188316,16.021418 19.542634,12 24.4883984,12 C29.4341627,12 33.4579651,16.021418 33.4579651,20.9641965 C33.4579651,22.7764801 32.9158768,24.5102195 31.9175411,25.9817935 L31.9172286,25.9865131 C30.2960287,28.3550762 27.5720515,29.9092483 24.4850779,29.9092483 C22.124468,29.9092483 19.9761262,29.0004203 18.3708615,27.513573 C18.2545804,27.4050042 18.140985,27.2932112 18.0302147,27.1782852 L18.0279196,27.1786357 C17.6733438,26.8135073 17.3494668,26.4184044 17.0604537,25.997492 Z M16.7507765,20.9641965 C16.7507765,25.2282874 20.2218343,28.6972883 24.4883984,28.6972883 C28.7549624,28.6972883 32.2260202,25.2282874 32.2260202,20.9641965 C32.2260202,16.7001056 28.7549624,13.2311047 24.4883984,13.2311047 C20.2218343,13.2311047 16.7507765,16.7001056 16.7507765,20.9641965 Z" id="Combined-Shape" fill="#4D20C0"></path>
            <path d="M27,24 L28.3686912,25.0019413 L27,24 Z M27,18.0019413 L28.3686912,17 L27,18.0019413 Z M21.6147769,23.9819154 L20.2460857,24.9838567 L21.6147769,23.9819154 Z M21.6147769,17.9838567 L20.2460857,16.9819154 L21.6147769,17.9838567 Z" id="Combined-Shape" stroke="#92B9FC" stroke-linecap="round" stroke-linejoin="round"></path>
        </g>
    </g>
</svg>