<?xml version="1.0" encoding="UTF-8"?>
<svg width="36px" height="36px" viewBox="0 0 36 36" version="1.1" xmlns="http://www.w3.org/2000/svg" xmlns:xlink="http://www.w3.org/1999/xlink">
    <!-- Generator: Sketch 52.6 (67491) - http://www.bohemiancoding.com/sketch -->
    <desc>Created with Sketch.</desc>
    <defs>
        <path d="M9.15842634,24.2024361 C10.6754524,20.4705795 12.9700261,18.6046512 16.0421473,18.6046512 C19.1142685,18.6046512 21.4622706,20.4705795 23.0861538,24.2024361 C23.2427909,25.1973595 22.7106624,25.5469485 21.4897682,25.2512029 C19.6584269,24.8075846 16.3547137,23.7788696 11.204938,25.2512029 C9.61469828,25.5475205 8.93252774,25.1979316 9.15842634,24.2024361 Z" id="sad-smile-path-1"></path>
    </defs>
    <g id="icon/sad-smile" stroke="none" stroke-width="1" fill="none" fill-rule="evenodd">
        <rect id="Rectangle" opacity="0" x="0" y="0" width="36" height="36"></rect>
        <g transform="translate(2.000000, 2.000000)">
            <circle id="Oval" fill="#4D20C0" cx="16" cy="16" r="16"></circle>
            <path d="M19.1627907,12.8372093 C19.6187963,13.527288 20.8626769,14.0224169 22.3256716,14.0224169 C23.7882123,14.0224169 25.0317749,13.5275952 25.4881278,12.8378516 C25.472872,14.5715297 24.0627425,15.9722301 22.325462,15.9722301 C20.5879669,15.9722301 19.1777038,14.5711838 19.1627907,12.8372093 Z" id="Combined-Shape-Copy" fill="#FFFFFF"></path>
            <path d="M6.69767442,12.8372093 C7.15368006,13.527288 8.39756061,14.0224169 9.8605553,14.0224169 C11.323096,14.0224169 12.5666586,13.5275952 13.0230115,12.8378516 C13.0077557,14.5715297 11.5976263,15.9722301 9.86034574,15.9722301 C8.12285067,15.9722301 6.7125875,14.5711838 6.69767442,12.8372093 Z" id="Combined-Shape-Copy-2" fill="#FFFFFF"></path>
            <mask id="mask-2" fill="white">
                <use xlink:href="#sad-smile-path-1"></use>
            </mask>
            <use id="Path-15" fill="#FFFFFF" xlink:href="#sad-smile-path-1"></use>
        </g>
    </g>
</svg>