<?xml version="1.0" encoding="UTF-8"?>
<svg width="24px" height="24px" viewBox="0 0 24 24" version="1.1" xmlns="http://www.w3.org/2000/svg" xmlns:xlink="http://www.w3.org/1999/xlink">
    <!-- Generator: Sketch 52.6 (67491) - http://www.bohemiancoding.com/sketch -->
    <desc>Created with Sketch.</desc>
    <g id="icon/size" stroke="none" stroke-width="1" fill="none" fill-rule="evenodd">
        <g id="icon/export">
            <rect id="Rectangle" fill="#FFFFFF" opacity="0" x="0" y="0" width="24" height="24"></rect>
            <g id="memory-card" transform="translate(3.000000, 2.000000)" fill="#8791AD">
                <path d="M13.2227594,0.132488479 C13.1305765,0.0475230415 13.0062547,0 12.8769292,0 L2.48797569,0 C1.1281338,0.00144009217 0.0261730115,1.03218608 0.0246334226,2.30414747 L0.0246334226,17.6958525 C0.0261730115,18.9678139 1.1281338,19.9985599 2.48797569,20 L14.336652,20 C15.6964939,19.9985599 16.7984546,18.9678139 16.7999942,17.6958525 L16.7999942,3.6221918 C16.7999942,3.49870392 16.7470709,3.38043636 16.6531559,3.29385078 L13.2227594,0.132488479 Z M15.8146573,17.6958525 C15.8136951,18.4591014 15.1526341,19.077441 14.336652,19.078341 L2.48797569,19.078341 C1.67199356,19.077441 1.01093256,18.4591014 1.00997033,17.6958525 L1.00997033,2.30414747 C1.01093256,1.54089862 1.67199356,0.922559032 2.48797569,0.921658986 L12.6750507,0.921658986 L15.8146573,3.81498415 L15.8146573,17.6958525 Z" id="Shape" fill-rule="nonzero"></path>
                <path d="M2.53724253,8.68663594 L2.53724253,16.9930876 C2.53724253,17.2476239 2.75778862,17.4539171 3.02991098,17.4539171 L13.6063095,17.4539171 C13.7621929,17.4537371 13.9090311,17.3846126 14.0017914,17.2676051 C14.0947441,17.1504176 14.123034,16.9990279 14.078001,16.859519 L14.078001,8.68663594 C14.078001,8.43209963 13.8574549,8.22580645 13.5853326,8.22580645 L3.02991098,8.22580645 C2.75778862,8.22580645 2.53724253,8.43209963 2.53724253,8.68663594 Z M3.52257944,9.14746544 L13.0926641,9.14746544 L13.0926641,16.5322581 L3.52257944,16.5322581 L3.52257944,9.14746544 Z" id="Shape" fill-rule="nonzero"></path>
                <path d="M4.88973439,6.20967742 C5.16185676,6.20967742 5.38240284,6.00338424 5.38240284,5.74884793 L5.38240284,4.15898618 C5.38240284,3.90444986 5.16185676,3.69815668 4.88973439,3.69815668 C4.61761203,3.69815668 4.39706594,3.90444986 4.39706594,4.15898618 L4.39706594,5.74884793 C4.39706594,6.00338424 4.61761203,6.20967742 4.88973439,6.20967742 Z" id="Path"></path>
                <path d="M8.21524645,6.20967742 C8.48736881,6.20967742 8.7079149,6.00338424 8.7079149,5.74884793 L8.7079149,4.15898618 C8.7079149,3.90444986 8.48736881,3.69815668 8.21524645,3.69815668 C7.94312408,3.69815668 7.72257799,3.90444986 7.72257799,4.15898618 L7.72257799,5.74884793 C7.72257799,6.00338424 7.94312408,6.20967742 8.21524645,6.20967742 Z" id="Path"></path>
                <path d="M11.5407585,6.20967742 C11.8128809,6.20967742 12.033427,6.00338424 12.033427,5.74884793 L12.033427,4.15898618 C12.033427,3.90444986 11.8128809,3.69815668 11.5407585,3.69815668 C11.2686361,3.69815668 11.04809,3.90444986 11.04809,4.15898618 L11.04809,5.74884793 C11.04809,6.00338424 11.2686361,6.20967742 11.5407585,6.20967742 Z" id="Path"></path>
            </g>
        </g>
    </g>
</svg>