<?xml version="1.0" encoding="UTF-8"?>
<svg width="24px" height="24px" viewBox="0 0 24 24" version="1.1" xmlns="http://www.w3.org/2000/svg" xmlns:xlink="http://www.w3.org/1999/xlink">
    <!-- Generator: Sketch 52.6 (67491) - http://www.bohemiancoding.com/sketch -->
    <title>icon/size</title>
    <desc>Created with Sketch.</desc>
    <g id="icon/size" stroke="none" stroke-width="1" fill="none" fill-rule="evenodd">
        <g id="icon/export">
            <rect id="Rectangle" fill="#FFFFFF" opacity="0" x="0" y="0" width="24" height="24"></rect>
            <g id="export-(4)" transform="translate(7.000000, 5.000000)" fill="#8791AD">
                <path d="M6.57136184,7.94717358 L6.57136184,12.3907469 C6.57136184,12.7302935 6.29613738,13.0054861 5.95659086,13.0054861 C5.61704435,13.0054861 5.34185175,12.7302935 5.34185175,12.3907469 L5.34185175,9.37203517 L1.04942269,13.4353561 C0.92931663,13.5554303 0.77193628,13.6154833 0.614778939,13.6154833 C0.457398589,13.6154833 0.300018239,13.5554303 0.180135191,13.4353561 C-0.0600450637,13.1953988 -0.0600450637,12.8060577 0.180135191,12.5661004 L4.41342061,8.55879029 L1.5098951,8.55879029 C1.17034858,8.55879029 0.895155979,8.28359768 0.895155979,7.94405117 C0.895155979,7.6044728 1.17034858,7.3292802 1.5098951,7.3292802 L5.95346942,7.3292802 C6.11179037,7.32847636 6.27036199,7.38851877 6.39123461,7.50940743 C6.51212327,7.63018383 6.57216568,7.78880452 6.57136184,7.94717357 Z" id="Combined-Shape-Copy-2" transform="translate(3.285685, 10.472378) scale(-1, -1) translate(-3.285685, -10.472378) "></path>
                <path d="M9.57866133,1.19557205 L9.57866133,5.63914542 C9.57866133,5.97869193 9.30343687,6.25388453 8.96389036,6.25388453 C8.62434385,6.25388453 8.34915124,5.97869193 8.34915124,5.63914542 L8.34915124,2.62043365 L4.05672218,6.68375454 C3.93661612,6.80382874 3.77923577,6.86388177 3.62207843,6.86388177 C3.46469808,6.86388177 3.30731773,6.80382874 3.18743468,6.68375454 C2.94725443,6.4437973 2.94725443,6.05445615 3.18743468,5.81449891 L7.42072011,1.80718876 L4.51719459,1.80718876 C4.17764808,1.80718876 3.90245547,1.53199616 3.90245547,1.19244965 C3.90245547,0.852871277 4.17764808,0.577678673 4.51719459,0.577678673 L8.96076891,0.577678673 C9.11908986,0.576874837 9.27766149,0.636917246 9.39853411,0.7578059 C9.51942276,0.878582308 9.57946517,1.037203 9.57866133,1.19557205 Z" id="Combined-Shape-Copy-3"></path>
            </g>
            <rect id="Rectangle" stroke="#8791AD" x="3.5" y="3.5" width="17" height="17" rx="2"></rect>
        </g>
    </g>
</svg>