<?xml version="1.0" encoding="UTF-8"?>
<svg width="24px" height="24px" viewBox="0 0 24 24" version="1.1" xmlns="http://www.w3.org/2000/svg" xmlns:xlink="http://www.w3.org/1999/xlink">
    <!-- Generator: Sketch 52.6 (67491) - http://www.bohemiancoding.com/sketch -->
    <desc>Created with Sketch.</desc>
    <g id="icon/slot-leader" stroke="none" stroke-width="1" fill="none" fill-rule="evenodd">
        <g id="icon/price-copy-3">
            <rect id="Rectangle" fill="#FFFFFF" opacity="0" x="0" y="0" width="24" height="24"></rect>
            <g id="logo-copy-3" transform="translate(5.579813, 5.021084)" fill="#8791AD">
                <path d="M6.3875,4.26325641e-14 C6.4306375,4.26325641e-14 6.47358906,0.0254591913 6.48772031,0.0761917404 L7.875,5.1026166 L7.86700469,5.1026166 C7.45775625,4.78521296 6.94549844,4.59436194 6.3875,4.59436194 C5.82950156,4.59436194 5.31705781,4.78521296 4.90799531,5.1026166 L4.9,5.1026166 L6.28746563,0.0761917404 C6.30141094,0.0254591913 6.3443625,4.26325641e-14 6.3875,4.26325641e-14 Z M7.63885938,9.07499378 C7.65708125,9.06384377 7.67604688,9.0590121 7.69445469,9.0590121 C7.75841719,9.0590121 7.8140125,9.11847882 7.79430313,9.18946722 L6.48772031,13.9237618 C6.45964375,14.0254127 6.31535625,14.0254127 6.28746563,13.9237618 L4.98069688,9.18946722 C4.95540938,9.09803713 5.05488594,9.02556206 5.13614063,9.07499378 C5.50113594,9.29725066 5.92879219,9.42603328 6.3875,9.42603328 C6.84620781,9.42603328 7.27386406,9.29725066 7.63885938,9.07499378 Z" id="Combined-Shape"></path>
                <path d="M4.2272627,5.612425 C4.23675402,5.60982188 4.24606625,5.60852031 4.25502033,5.60852031 C4.32683199,5.60852031 4.37804929,5.69014688 4.34044218,5.76229063 C4.1615398,6.10422969 4.05946337,6.49581406 4.05946337,6.9125 C4.05946337,7.31951719 4.15652552,7.70310625 4.32790648,8.03946719 C4.36891614,8.12035 4.29925345,8.212575 4.21401067,8.18840313 L0.0734681701,7.00249375 C-0.02448939,6.97423125 -0.02448939,6.83031563 0.0734681701,6.80205313 L4.2272627,5.612425 Z M8.43460259,5.76229063 C8.39699548,5.69014688 8.44821278,5.60852031 8.52002444,5.60852031 C8.52897852,5.60852031 8.53829075,5.60982188 8.54778207,5.612425 L12.7013975,6.80205313 C12.7995342,6.83031563 12.7995342,6.97423125 12.7013975,7.00249375 L8.56085502,8.18840313 C8.47579132,8.212575 8.40594955,8.12035 8.44731737,8.03946719 C8.61851925,7.70310625 8.7155814,7.31951719 8.7155814,6.9125 C8.7155814,6.49581406 8.61350497,6.10422969 8.43460259,5.76229063 Z M4.95487068,6.9125 C4.95487068,6.09084219 5.59634048,5.425 6.38752239,5.425 C7.17888337,5.425 7.82017409,6.09084219 7.82017409,6.9125 C7.82017409,7.73397188 7.17888337,8.4 6.38752239,8.4 C5.59634048,8.4 4.95487068,7.73397188 4.95487068,6.9125 Z" id="Combined-Shape"></path>
            </g>
            <circle id="Oval" stroke="#8791AD" cx="11.9566643" cy="12.1652685" r="9"></circle>
        </g>
    </g>
</svg>