<?xml version="1.0" encoding="UTF-8"?>
<svg width="24px" height="24px" viewBox="0 0 24 24" version="1.1" xmlns="http://www.w3.org/2000/svg" xmlns:xlink="http://www.w3.org/1999/xlink">
    <!-- Generator: Sketch 52.6 (67491) - http://www.bohemiancoding.com/sketch -->
    <title>icon/slot</title>
    <desc>Created with Sketch.</desc>
    <defs>
        <path d="M8.90254227,13.677312 C9.29964632,13.677312 9.61943807,13.4237516 9.61943807,13.108891 C9.61943807,12.7940303 9.29964632,12.5404699 8.90254227,12.5404699 L4.80368997,12.5404699 C4.40658592,12.5404699 4.08679417,12.7940303 4.08679417,13.108891 C4.08679417,13.4237516 4.40658592,13.677312 4.80368997,13.677312 L8.90254227,13.677312 Z" id="path-1"></path>
    </defs>
    <g id="icon/slot" stroke="none" stroke-width="1" fill="none" fill-rule="evenodd">
        <g id="icon/epoch-copy-4">
            <rect id="Rectangle" fill-opacity="0" fill="#FFFFFF" x="0" y="0" width="24" height="24"></rect>
            <g id="hourglass-(1)" transform="translate(5.000000, 3.000000)">
                <path d="M7.89141285,8.31579128 C11.1072541,6.18256351 13.4526316,3.52443275 13.4526316,0.657314715 C13.4526316,0.368043809 13.2250297,0.136842105 12.9432129,0.136842105 C12.6613961,0.136842105 12.4337942,0.368043809 12.4337942,0.657314715 C12.4337942,3.30329838 10.0094348,5.76424569 6.92538812,7.70485669 L6.72429384,7.70531049 C3.66248307,5.79792735 1.21173703,3.31108303 1.21173703,0.657314715 C1.21173703,0.368043809 0.984135149,0.136842105 0.702318327,0.136842105 C0.420501506,0.136842105 0.192899627,0.368043809 0.192899627,0.657314715 C0.192899627,3.52200094 2.54162715,6.18478575 5.75411835,8.31579128 L5.99214197,8.47368421 L5.75411835,8.63157714 C2.53492336,10.7670296 0.189473684,13.4233332 0.189473684,16.2900537 C0.189473684,16.5793246 0.417075562,16.8105263 0.698892384,16.8105263 C0.980709206,16.8105263 1.20831108,16.5793246 1.20831108,16.2900537 C1.20831108,13.64407 3.6326705,11.1831227 6.71671714,9.24251173 L6.91801112,9.2421825 C9.98449374,11.1577677 12.4269423,13.6370765 12.4269423,16.2900537 C12.4269423,16.5793246 12.6545442,16.8105263 12.936361,16.8105263 C13.2181778,16.8105263 13.4457797,16.5793246 13.44578,16.2896991 C13.4511433,13.4240105 11.1122845,10.7723149 7.89127092,8.6314829 L7.65362139,8.47353021 L7.89141285,8.31579128 Z" id="Path" stroke="#8791AD" stroke-width="0.2" fill="#8791AD"></path>
                <path d="M12.684247,15.7937949 L0.904939598,15.7937949 C0.0624954599,15.7937949 0.0624954599,16.1428223 0.123692574,16.4755446 C0.184889687,16.8082669 0.380942143,16.930637 0.904939598,16.930637 L12.684247,16.930637 C13.3565216,16.930637 13.5062714,16.628479 13.54338,16.362216 C13.5804887,16.0959529 13.5266912,15.7937949 12.684247,15.7937949 Z" id="Path" fill="#8791AD"></path>
                <mask id="mask-2" fill="white">
                    <use xlink:href="#path-1"></use>
                </mask>
                <use id="Path" fill="#8791AD" xlink:href="#path-1"></use>
            </g>
            <text id="20" font-family="Montserrat-SemiBold, Montserrat" font-size="5.5" font-weight="500" fill="#8791AD">
                <tspan x="8.63804877" y="6.91216586">20</tspan>
            </text>
        </g>
    </g>
</svg>