<?xml version="1.0" encoding="UTF-8"?>
<svg width="24px" height="24px" viewBox="0 0 24 24" version="1.1" xmlns="http://www.w3.org/2000/svg" xmlns:xlink="http://www.w3.org/1999/xlink">
    <!-- Generator: Sketch 52.6 (67491) - http://www.bohemiancoding.com/sketch -->
    <title>icon/stakepool-list</title>
    <desc>Created with Sketch.</desc>
    <g id="icon/stakepool-list" stroke="none" stroke-width="1" fill="none" fill-rule="evenodd">
        <g id="icon/epoch-copy-2">
            <rect id="Rectangle" fill-opacity="0" fill="#FFFFFF" x="0" y="0" width="24" height="24"></rect>
            <g id="list-copy-2" transform="translate(2.000000, 5.000000)" fill="#8791AD">
                <path d="M16.4775523,1.77663446 L4.17681159,1.77663446 C3.66983897,1.77663446 3.2589372,1.46326779 3.2589372,1.07663446 C3.2589372,0.690001127 3.66983897,0.376634461 4.17681159,0.376634461 L16.4772464,0.376634461 C16.984219,0.376634461 17.3951208,0.690001127 17.3951208,1.07663446 C17.3951208,1.46326779 16.984525,1.77663446 16.4775523,1.77663446 Z" id="Path"></path>
                <circle id="Oval" cx="1" cy="1" r="1"></circle>
                <path d="M6.47755233,7.77663446 L4.17681159,7.77663446 C3.66983897,7.77663446 3.2589372,7.46326779 3.2589372,7.07663446 C3.2589372,6.69000113 3.66983897,6.37663446 4.17681159,6.37663446 L6.47724638,6.37663446 C6.984219,6.37663446 7.39512077,6.69000113 7.39512077,7.07663446 C7.39512077,7.46326779 6.98452496,7.77663446 6.47755233,7.77663446 Z" id="Path"></path>
                <circle id="Oval" cx="1" cy="7" r="1"></circle>
                <path d="M6.47755233,13.7766345 L4.17681159,13.7766345 C3.66983897,13.7766345 3.2589372,13.4632678 3.2589372,13.0766345 C3.2589372,12.6900011 3.66983897,12.3766345 4.17681159,12.3766345 L6.47724638,12.3766345 C6.984219,12.3766345 7.39512077,12.6900011 7.39512077,13.0766345 C7.39512077,13.4632678 6.98452496,13.7766345 6.47755233,13.7766345 Z" id="Path"></path>
                <circle id="Oval" cx="1" cy="13" r="1"></circle>
            </g>
            <g id="Group-3" transform="translate(10.000000, 8.000000)" fill="#8791AD" stroke="#8791AD" stroke-width="3.2">
                <path d="M5.318,-0.0216 C8.04314716,-0.0216 10.2572,2.19263594 10.2572,4.9176 C10.2572,7.6428556 8.0432556,9.8568 5.318,9.8568 C2.5927444,9.8568 0.3788,7.6428556 0.3788,4.9176 C0.3788,2.19263594 2.59285284,-0.0216 5.318,-0.0216 Z M11.2845176,9.75228037 C11.2916362,9.75924604 11.2986565,9.76632486 11.3055753,9.77351539 L11.2845176,9.75228037 Z M11.2845176,9.75228037 L9.04244152,7.49131918 L8.09167358,6.53265207 L7.30529125,7.0849773 L6.61075495,7.91103304 L9.86583944,11.1928243 C9.46130853,10.7720603 9.47381005,10.1327879 9.87692142,9.74549835 C10.064855,9.56505476 10.316732,9.46368517 10.5770231,9.46368517 C10.840947,9.46368517 11.0968791,9.5686733 11.2845176,9.75228037 Z" id="Fill-1"></path>
            </g>
        </g>
    </g>
</svg>