<?xml version="1.0" encoding="UTF-8"?>
<svg width="24px" height="24px" viewBox="0 0 24 24" version="1.1" xmlns="http://www.w3.org/2000/svg" xmlns:xlink="http://www.w3.org/1999/xlink">
    <!-- Generator: Sketch 52.6 (67491) - http://www.bohemiancoding.com/sketch -->
    <desc>Created with Sketch.</desc>
    <g id="icon/stakepool-history" stroke="none" stroke-width="1" fill="none" fill-rule="evenodd">
        <g id="icon/epoch-copy-6">
            <rect id="Rectangle" fill-opacity="0" fill="#FFFFFF" x="0" y="0" width="24" height="24"></rect>
            <g id="list-copy-3" transform="translate(12.000000, 10.000000) rotate(90.000000) translate(-12.000000, -10.000000) translate(11.000000, 1.000000)" fill="currentColor">
                <path d="M8.91758553,9.7 L-7.51732463,9.7 C-7.94962233,9.7 -8.3,9.38663333 -8.3,9 C-8.3,8.61336667 -7.94962233,8.3 -7.51732463,8.3 L8.91732463,8.3 C9.34962233,8.3 9.7,8.61336667 9.7,9 C9.7,9.38663333 9.34988322,9.7 8.91758553,9.7 Z" id="Path-Copy-4" transform="translate(0.700000, 9.000000) rotate(90.000000) translate(-0.700000, -9.000000) "></path>
            </g>
            <g id="list-copy-4" transform="translate(12.000000, 14.000000) rotate(90.000000) translate(-12.000000, -14.000000) translate(11.000000, 5.000000)" fill="currentColor">
                <path d="M8.91758553,9.7 L-7.51732463,9.7 C-7.94962233,9.7 -8.3,9.38663333 -8.3,9 C-8.3,8.61336667 -7.94962233,8.3 -7.51732463,8.3 L8.91732463,8.3 C9.34962233,8.3 9.7,8.61336667 9.7,9 C9.7,9.38663333 9.34988322,9.7 8.91758553,9.7 Z" id="Path-Copy-4" transform="translate(0.700000, 9.000000) rotate(90.000000) translate(-0.700000, -9.000000) "></path>
            </g>
            <g id="list-copy-5" transform="translate(8.500000, 18.000000) rotate(90.000000) translate(-8.500000, -18.000000) translate(7.500000, 12.500000)" fill="currentColor">
                <path d="M5.41758553,6.2 L-4.01732463,6.2 C-4.44962233,6.2 -4.8,5.88663333 -4.8,5.5 C-4.8,5.11336667 -4.44962233,4.8 -4.01732463,4.8 L5.41732463,4.8 C5.84962233,4.8 6.2,5.11336667 6.2,5.5 C6.2,5.88663333 5.84988322,6.2 5.41758553,6.2 Z" id="Path-Copy-4" transform="translate(0.700000, 5.500000) rotate(90.000000) translate(-0.700000, -5.500000) "></path>
            </g>
            <g id="list-copy-7" transform="translate(15.500000, 6.000000) rotate(90.000000) translate(-15.500000, -6.000000) translate(14.500000, 0.500000)" fill="currentColor">
                <path d="M5.41758553,6.2 L-4.01732463,6.2 C-4.44962233,6.2 -4.8,5.88663333 -4.8,5.5 C-4.8,5.11336667 -4.44962233,4.8 -4.01732463,4.8 L5.41732463,4.8 C5.84962233,4.8 6.2,5.11336667 6.2,5.5 C6.2,5.88663333 5.84988322,6.2 5.41758553,6.2 Z" id="Path-Copy-4" transform="translate(0.700000, 5.500000) rotate(90.000000) translate(-0.700000, -5.500000) "></path>
            </g>
            <g id="list-copy-6" transform="translate(18.500000, 18.000000) rotate(90.000000) translate(-18.500000, -18.000000) translate(17.500000, 15.500000)" fill="currentColor">
                <path d="M2.41758553,3.2 L-1.01732463,3.2 C-1.44962233,3.2 -1.8,2.88663333 -1.8,2.5 C-1.8,2.11336667 -1.44962233,1.8 -1.01732463,1.8 L2.41732463,1.8 C2.84962233,1.8 3.2,2.11336667 3.2,2.5 C3.2,2.88663333 2.84988322,3.2 2.41758553,3.2 Z" id="Path-Copy-4" transform="translate(0.700000, 2.500000) rotate(90.000000) translate(-0.700000, -2.500000) "></path>
            </g>
            <g id="list-copy-8" transform="translate(5.500000, 6.000000) rotate(90.000000) translate(-5.500000, -6.000000) translate(4.500000, 3.500000)" fill="currentColor">
                <path d="M2.41758553,3.2 L-1.01732463,3.2 C-1.44962233,3.2 -1.8,2.88663333 -1.8,2.5 C-1.8,2.11336667 -1.44962233,1.8 -1.01732463,1.8 L2.41732463,1.8 C2.84962233,1.8 3.2,2.11336667 3.2,2.5 C3.2,2.88663333 2.84988322,3.2 2.41758553,3.2 Z" id="Path-Copy-4" transform="translate(0.700000, 2.500000) rotate(90.000000) translate(-0.700000, -2.500000) "></path>
            </g>
        </g>
    </g>
</svg>