<?xml version="1.0" encoding="UTF-8"?>
<svg width="24px" height="24px" viewBox="0 0 24 24" version="1.1" xmlns="http://www.w3.org/2000/svg" xmlns:xlink="http://www.w3.org/1999/xlink">
    <!-- Generator: Sketch 52.6 (67491) - http://www.bohemiancoding.com/sketch -->
    <title>icon/stakepool-charts</title>
    <desc>Created with Sketch.</desc>
    <g id="icon/stakepool-charts" stroke="none" stroke-width="1" fill="none" fill-rule="evenodd">
        <g id="icon/epoch-copy-5">
            <rect id="Rectangle" fill-opacity="0" fill="#FFFFFF" x="0" y="0" width="24" height="24"></rect>
            <g id="list-copy-2" transform="translate(3.000000, 4.000000)" fill="#8791AD">
                <path d="M22.6101602,9.26809179 L10.7900592,9.26809179 C10.4265405,9.26809179 10.1319082,8.95472512 10.1319082,8.56809179 C10.1319082,8.18145845 10.4265405,7.86809179 10.7900592,7.86809179 L22.6099408,7.86809179 C22.9734595,7.86809179 23.2680918,8.18145845 23.2680918,8.56809179 C23.2680918,8.95472512 22.9736789,9.26809179 22.6101602,9.26809179 Z" id="Path" transform="translate(16.700000, 8.568092) rotate(90.000000) translate(-16.700000, -8.568092) "></path>
                <path d="M7.61016017,8.26809179 L-6.20994079,8.26809179 C-6.57345952,8.26809179 -6.86809179,7.95472512 -6.86809179,7.56809179 C-6.86809179,7.18145845 -6.57345952,6.86809179 -6.20994079,6.86809179 L7.60994079,6.86809179 C7.97345952,6.86809179 8.26809179,7.18145845 8.26809179,7.56809179 C8.26809179,7.95472512 7.97367891,8.26809179 7.61016017,8.26809179 Z" id="Path-Copy-4" transform="translate(0.700000, 7.568092) rotate(90.000000) translate(-0.700000, -7.568092) "></path>
                <path d="M16.1101602,11.7680918 L9.29005921,11.7680918 C8.92654048,11.7680918 8.63190821,11.4547251 8.63190821,11.0680918 C8.63190821,10.6814585 8.92654048,10.3680918 9.29005921,10.3680918 L16.1099408,10.3680918 C16.4734595,10.3680918 16.7680918,10.6814585 16.7680918,11.0680918 C16.7680918,11.4547251 16.4736789,11.7680918 16.1101602,11.7680918 Z" id="Path-Copy" transform="translate(12.700000, 11.068092) rotate(90.000000) translate(-12.700000, -11.068092) "></path>
                <path d="M13.1101602,10.7680918 L4.29005921,10.7680918 C3.92654048,10.7680918 3.63190821,10.4547251 3.63190821,10.0680918 C3.63190821,9.68145845 3.92654048,9.36809179 4.29005921,9.36809179 L13.1099408,9.36809179 C13.4734595,9.36809179 13.7680918,9.68145845 13.7680918,10.0680918 C13.7680918,10.4547251 13.4736789,10.7680918 13.1101602,10.7680918 Z" id="Path-Copy-2" transform="translate(8.700000, 10.068092) rotate(90.000000) translate(-8.700000, -10.068092) "></path>
                <path d="M7.61016017,12.2680918 L1.79005921,12.2680918 C1.42654048,12.2680918 1.13190821,11.9547251 1.13190821,11.5680918 C1.13190821,11.1814585 1.42654048,10.8680918 1.79005921,10.8680918 L7.60994079,10.8680918 C7.97345952,10.8680918 8.26809179,11.1814585 8.26809179,11.5680918 C8.26809179,11.9547251 7.97367891,12.2680918 7.61016017,12.2680918 Z" id="Path-Copy-3" transform="translate(4.700000, 11.568092) rotate(90.000000) translate(-4.700000, -11.568092) "></path>
            </g>
        </g>
    </g>
</svg>