<?xml version="1.0" encoding="UTF-8"?>
<svg width="22px" height="22px" viewBox="0 0 22 22" version="1.1" xmlns="http://www.w3.org/2000/svg" xmlns:xlink="http://www.w3.org/1999/xlink">
    <!-- Generator: Sketch 52.6 (67491) - http://www.bohemiancoding.com/sketch -->
    <title>icon/syncing alert</title>
    <desc>Created with Sketch.</desc>
    <g id="icon/syncing-alert" stroke="none" stroke-width="1" fill="none" fill-rule="evenodd">
        <g id="icon">
            <rect id="Rectangle" fill="#FFFFFF" opacity="0" x="0" y="0" width="22" height="22"></rect>
            <g id="icon/error-copy-3" transform="translate(1.000000, 1.000000)">
                <circle id="Oval" fill="#FFFFFF" cx="10" cy="10" r="10"></circle>
                <path d="M9.29878458,4.89570133 C9.29878458,4.6531844 9.38121253,4.46608289 9.54626705,4.33419817 C9.71112295,4.20231345 9.92464114,4.13637109 10.1870202,4.13637109 C10.4492007,4.13637109 10.6420622,4.20489553 10.7648104,4.34214303 C10.8877571,4.47939053 10.9493298,4.66371134 10.9493298,4.89570133 C10.9493298,5.6552302 10.9360222,6.00818073 10.9104,7.72705176 C10.8841819,9.4459228 10.8714701,9.98776243 10.8714701,10.7468941 C10.8714701,10.9053941 10.7971857,11.0293339 10.649014,11.1189123 C10.5006437,11.208292 10.346712,11.2533791 10.1870202,11.2533791 C9.71946506,11.2533791 9.48568748,11.0845507 9.48568748,10.7468941 C9.48568748,9.98776243 9.45450389,9.4459228 9.39233534,7.72705176 C9.32996817,6.00798211 9.29878458,5.65503158 9.29878458,4.89570133 M9.20543244,13.2803121 C9.20543244,13.0423635 9.30255839,12.8401667 9.49661166,12.6737219 C9.69066493,12.507277 9.92682597,12.4236573 10.2041017,12.4236573 C10.4484062,12.4236573 10.6595409,12.507277 10.8375059,12.6737219 C11.0156694,12.8401667 11.1048505,13.0423635 11.1048505,13.2803121 C11.1048505,13.5085283 11.0156694,13.7083416 10.8375059,13.8795534 C10.6595409,14.0509638 10.4482076,14.1363711 10.2041017,14.1363711 C9.92662735,14.1363711 9.69066493,14.0509638 9.49661166,13.8795534 C9.30255839,13.7083416 9.20543244,13.5085283 9.20543244,13.2803121" id="Fill-1" fill="#4D20C0"></path>
            </g>
        </g>
    </g>
</svg>