<?xml version="1.0" encoding="UTF-8"?>
<svg width="24px" height="24px" viewBox="0 0 24 24" version="1.1" xmlns="http://www.w3.org/2000/svg" xmlns:xlink="http://www.w3.org/1999/xlink">
    <!-- Generator: Sketch 52.6 (67491) - http://www.bohemiancoding.com/sketch -->
    <desc>Created with Sketch.</desc>
    <g id="icon/transactions" stroke="none" stroke-width="1" fill="none" fill-rule="evenodd">
        <g id="icon/price-copy">
            <rect id="Rectangle" fill="#FFFFFF" opacity="0" x="0" y="0" width="24" height="24"></rect>
            <path d="M10.0060562,12.1903433 L10.0057989,12.1909931 L10.3440277,11.3283459 C10.3795163,11.2706421 10.3795163,11.2706421 10.4424535,11.2574277 L12.8818593,11.2574277 C12.9447965,11.2706421 12.9447965,11.2706421 12.9781478,11.3225395 L13.3284208,12.1903433 C13.3320412,12.2935048 13.3320412,12.2935048 13.2320157,12.3330727 L10.1029696,12.3330727 C10.0054494,12.2979624 10.0054494,12.2979624 10.0060562,12.1903433 Z M11.7393328,8.25149939 L11.7401556,8.2534773 L12.6458954,10.4985138 C12.6465022,10.6061328 12.6465022,10.6061328 12.5489821,10.6412432 L10.7656748,10.6412432 C10.6681547,10.6061328 10.6681547,10.6061328 10.668482,10.4992201 L11.5478807,8.25149939 C11.6436068,8.16713116 11.6436068,8.16713116 11.7393328,8.25149939 Z M15.7407541,12.6273168 C15.7332978,12.4650284 15.5798531,12.3330727 15.3985129,12.3330727 L14.1345958,12.3330727 C14.0605738,12.3109709 14.0605738,12.3109709 14.0388155,12.2679609 L13.6885425,11.4001571 C13.6849221,11.2969956 13.6849221,11.2969956 13.7849477,11.2574277 L14.5726724,11.2574277 C14.7540513,11.2574277 14.9075226,11.1254158 14.9149091,10.9632872 C14.922545,10.7876613 14.7792524,10.6412432 14.5990993,10.6412432 L13.4525786,10.6412432 C13.3896414,10.6280287 13.3896414,10.6280287 13.3562834,10.5761149 L11.9317455,7.04500892 C11.8839193,6.92621478 11.7708749,6.85117214 11.6360263,6.84999956 C11.5059337,6.85038559 11.3896317,6.92927346 11.3431184,7.04767077 L9.96406149,10.5703249 C9.9285729,10.6280287 9.9285729,10.6280287 9.8656357,10.6412432 L8.74909934,10.6412432 C8.56719266,10.6412432 8.41336637,10.7732321 8.40634524,10.9350823 C8.39833265,11.1109777 8.54141874,11.2574277 8.72165602,11.2574277 L9.54241443,11.2574277 C9.63993454,11.292538 9.63993454,11.292538 9.63958506,11.3995073 L9.30135625,12.2621544 C9.26586766,12.3198583 9.26586766,12.3198583 9.20293046,12.3330727 L7.94307901,12.3330727 C7.76141813,12.3330727 7.60734205,12.4652932 7.60032446,12.6274299 C7.59231531,12.8028683 7.73545913,12.9492572 7.9156357,12.9492572 L8.88072561,12.9492572 C8.98322482,12.993656 8.98322482,12.993656 8.97690109,13.0912825 L7.85528069,15.9580975 C7.79331894,16.1164442 7.87380082,16.2939534 8.03663545,16.3555461 C8.07323192,16.3692698 8.11156026,16.3761142 8.1504285,16.3761142 C8.28056179,16.3761142 8.39852502,16.2980212 8.44557587,16.1779474 L9.68132249,13.0201755 C9.71681108,12.9624716 9.71681108,12.9624716 9.77974828,12.9492572 L13.5643847,12.9492572 C13.6273219,12.9624716 13.6273219,12.9624716 13.6606794,13.0143842 L14.9474549,16.2038799 C14.9956506,16.3232395 15.1127076,16.4 15.2414762,16.4 C15.2815266,16.4 15.3204357,16.3927589 15.3587751,16.3778066 C15.5203573,16.3150973 15.5989678,16.1364479 15.5354833,15.9788841 L14.3710679,13.0919866 C14.3704612,12.9843676 14.3704612,12.9843676 14.4679813,12.9492572 L15.4249398,12.9492572 C15.6050575,12.9492572 15.7483291,12.8028967 15.7407541,12.6273168 Z M15.7407541,12.6273168 C15.7407526,12.6272823 15.7407511,12.6272477 15.7407496,12.6272132 L15.7407589,12.6274205 C15.7407573,12.627386 15.7407557,12.6273514 15.7407541,12.6273168 Z" id="Fill-1" stroke="currentColor" stroke-width="0.2" fill="currentColor"></path>
            <g id="continuous" transform="translate(2.000000, 3.000000)" fill="currentColor" stroke="currentColor" stroke-width="0.2">
                <path d="M19.3358833,9.26271803 L18.3516017,9.26271803 L18.3515557,9.07045636 C18.3515136,8.89428889 18.3463623,8.71633784 18.3362349,8.54163452 C18.2557461,7.15583435 17.8494257,5.79092863 17.1615108,4.59528373 C16.4907892,3.42953011 15.5505275,2.41783273 14.4430236,1.67017031 C13.317405,0.910248911 12.0138773,0.421461323 10.6741379,0.256888873 C9.1848042,0.0739078887 7.67009164,0.281540969 6.29401613,0.857167741 C4.94434648,1.42173004 3.74336135,2.33255721 2.82138381,3.4909955 C2.66280748,3.6901887 2.6932904,3.98328368 2.88882172,4.14403562 C3.08262359,4.30328567 3.36582245,4.27286674 3.52294119,4.07547382 C3.57037621,4.01586387 3.62028876,3.95518159 3.67377144,3.89192922 C4.47946179,2.93969723 5.499309,2.18970038 6.63637511,1.71405481 C7.87054356,1.19781973 9.22947432,1.01178115 10.5663108,1.17599844 C11.767705,1.32357949 12.9356539,1.76155377 13.9447376,2.44282916 C14.9381412,3.11352719 15.7806184,4.01994938 16.3818106,5.06486484 C16.9976063,6.13514398 17.361022,7.35610098 17.4330637,8.59655912 C17.4376096,8.67486929 17.4410567,8.75429782 17.4434058,8.83447275 C17.445661,8.91203903 17.4467947,8.99075299 17.4468394,9.07034606 L17.4469474,9.26276171 L16.4625978,9.26276171 C16.3369864,9.26276171 16.2722167,9.42166838 16.3636709,9.51458703 L17.8003351,10.9745548 C17.8553477,11.0304598 17.9432193,11.0304598 17.9982319,10.9745548 L19.4348548,9.51462907 C19.5262633,9.42168097 19.4614591,9.26271803 19.3358833,9.26271803 Z" id="Path"></path>
                <path d="M16.7872986,16.4784686 L15.8030171,16.4784686 L15.8029711,16.2862069 C15.8029289,16.1100394 15.7977777,15.9320884 15.7876502,15.7573851 C15.7071615,14.3715849 15.300841,13.0066792 14.6129261,11.8110343 C13.9422046,10.6452806 13.0019428,9.63358326 11.8944389,8.88592085 C10.7688204,8.12599944 9.46529265,7.63721186 8.12555324,7.47263941 C6.63621954,7.28965842 5.12150698,7.4972915 3.74543147,8.07291827 C2.39576181,8.63748057 1.19477668,9.54830775 0.272799145,10.706746 C0.114222816,10.9059392 0.144705728,11.1990342 0.340237052,11.3597861 C0.534038922,11.5190362 0.817237777,11.4886173 0.974356523,11.2912244 C1.02179154,11.2316144 1.07170409,11.1709321 1.12518678,11.1076798 C1.93087712,10.1554478 2.95072433,9.40545092 4.08779044,8.92980535 C5.32195889,8.41357027 6.68088965,8.22753168 8.01772617,8.39174897 C9.21912034,8.53933002 10.3870693,8.9773043 11.3961529,9.6585797 C12.3895565,10.3292777 13.2320338,11.2356999 13.833226,12.2806154 C14.4490217,13.3508945 14.8124373,14.5718515 14.8844791,15.8123097 C14.8890249,15.8906198 14.892472,15.9700484 14.8948211,16.0502233 C14.8970763,16.1277896 14.89821,16.2065035 14.8982547,16.2860966 L14.8983627,16.4785122 L13.9140131,16.4785122 C13.7884018,16.4785122 13.723632,16.6374189 13.8150862,16.7303376 L15.2517504,18.1903053 C15.306763,18.2462103 15.3946347,18.2462103 15.4496473,18.1903053 L16.8862702,16.7303796 C16.9776786,16.6374315 16.9128744,16.4784686 16.7872986,16.4784686 Z" id="Path-Copy" transform="translate(8.550183, 12.820146) rotate(-180.000000) translate(-8.550183, -12.820146) "></path>
            </g>
        </g>
    </g>
</svg>