<?xml version="1.0" encoding="UTF-8"?>
<svg width="48px" height="48px" viewBox="0 0 48 48" version="1.1" xmlns="http://www.w3.org/2000/svg" xmlns:xlink="http://www.w3.org/1999/xlink">
    <g id="icon/transaction-id" stroke="none" stroke-width="1" fill="none" fill-rule="evenodd">
        <g id="icon/bg-for-icon" fill="#4D20C0" opacity="0.1">
            <circle id="Oval-Copy-4" cx="24" cy="24" r="24"></circle>
        </g>
        <g id="icon/transaction" transform="translate(8.000000, 8.000000)">
            <g id="icon/price-copy">
                <rect id="Rectangle" fill="#FFFFFF" opacity="0" x="0" y="0" width="32" height="32"></rect>
                <path d="M13.4652052,16.3033099 L13.9185281,15.146625 C13.9192057,15.1445921 13.9212385,15.1432369 13.9232714,15.1432369 L17.1758124,15.1432369 C17.1778452,15.1432369 17.1798781,15.1445921 17.1805557,15.146625 L17.6474309,16.3033099 C17.6487861,16.3066979 17.6460756,16.3107636 17.6426876,16.3107636 L13.4706261,16.3107636 C13.4665604,16.3107636 13.4638499,16.3066979 13.4652052,16.3033099 M15.5298911,11.0545218 L16.737397,14.0475371 C16.7387522,14.0509252 16.7360418,14.0549909 16.7319761,14.0549909 L14.3542331,14.0549909 C14.3501674,14.0549909 14.3474569,14.0509252 14.3488121,14.0475371 L15.5197269,11.0545218 C15.5217598,11.0497785 15.5278583,11.0497785 15.5298911,11.0545218 M21.1208737,16.8304926 C21.1073214,16.5330206 20.8342435,16.3107636 20.5313506,16.3107636 L18.8461278,16.3107636 C18.8440949,16.3107636 18.8427397,16.3094084 18.8420621,16.3073756 L18.3751869,15.1506906 C18.3738317,15.1473026 18.3765421,15.1432369 18.3799302,15.1432369 L19.4302299,15.1432369 C19.7331228,15.1432369 20.0062007,14.9209799 20.019753,14.6235079 C20.0333052,14.3118061 19.7798781,14.0549909 19.4654658,14.0549909 L17.9367715,14.0549909 C17.9347387,14.0549909 17.9327058,14.0536357 17.9320282,14.0516028 L16.0326798,9.34354965 C15.9486558,9.13484493 15.7494376,9.00203284 15.514306,9 C15.2859505,9.00067761 15.0819891,9.13958822 14.999998,9.34829294 L13.1589242,14.0516028 C13.1582466,14.0536357 13.1562138,14.0549909 13.1541809,14.0549909 L11.6654658,14.0549909 C11.3618953,14.0549909 11.0881397,14.2772478 11.0752651,14.5740422 C11.0610352,14.8864217 11.3144624,15.1432369 11.6288747,15.1432369 L12.7232192,15.1432369 C12.7272849,15.1432369 12.7299954,15.1473026 12.7286401,15.1506906 L12.2753172,16.3073756 C12.2746396,16.3094084 12.2726068,16.3107636 12.2705739,16.3107636 L10.590772,16.3107636 C10.2878791,16.3107636 10.013446,16.5330206 10.0005713,16.8304926 C9.98634147,17.1421944 10.2397686,17.3990096 10.5541809,17.3990096 L11.8409675,17.3990096 C11.8436779,17.3990096 11.8463884,17.4030753 11.8450332,17.4064634 L10.3495419,21.2288767 C10.2397686,21.5094084 10.3820673,21.8238207 10.6686975,21.9322387 C10.7337483,21.9566328 10.800832,21.9681522 10.867238,21.9681522 C11.0901726,21.9681522 11.3002325,21.8353401 11.3849341,21.6191817 L13.0349211,17.4023977 C13.0355987,17.4003649 13.0376315,17.3990096 13.0396644,17.3990096 L18.0858463,17.3990096 C18.0878791,17.3990096 18.089912,17.4003649 18.0905896,17.4023977 L19.806305,21.6550951 C19.8930394,21.8698984 20.1017441,22 20.3219683,22 C20.3904071,22 20.458846,21.987803 20.5266073,21.9613761 C20.8112046,21.8509252 20.9501153,21.5344801 20.8376315,21.2553036 L19.2852208,17.4064634 C19.2838656,17.4030753 19.286576,17.3990096 19.2906417,17.3990096 L20.5665865,17.3990096 C20.8809988,17.3990096 21.1344259,17.1421944 21.1208737,16.8304926" id="Fill-1" stroke="#4D20C0" stroke-width="0.2" fill="#4D20C0" stroke-linecap="round" stroke-linejoin="round"></path>
                <g id="continuous" transform="translate(3.000000, 4.000000)" fill="#92B9FC">
                    <path d="M25.1366483,12.0415334 L23.8570823,12.0415334 L23.8570225,11.7915933 C23.8569677,11.5625756 23.850271,11.3312392 23.8371053,11.1041249 C23.73247,9.30258465 23.2042534,7.52820722 22.309964,5.97386885 C21.438026,4.45838915 20.2156858,3.14318255 18.7759307,2.17122141 C17.3126265,1.18332358 15.6180405,0.54789972 13.8763793,0.333955534 C11.9402455,0.0960802554 9.97111914,0.36600326 8.18222097,1.11431806 C6.42765042,1.84824905 4.86636976,3.03232438 3.66779896,4.53829416 C3.46164973,4.79724531 3.50127751,5.17826879 3.75546824,5.3872463 C4.00741067,5.59427137 4.37556918,5.55472676 4.57982355,5.29811597 C4.64148907,5.22062303 4.70637539,5.14173607 4.77590288,5.05950798 C5.82330033,3.8216064 7.14910169,2.8466105 8.62728764,2.22827126 C10.2317066,1.55716565 11.9983166,1.31531549 13.7362041,1.52879797 C15.2980165,1.72065333 16.8163501,2.2900199 18.1281589,3.17567791 C19.4195836,4.04758534 20.5148039,5.22593419 21.2963538,6.5843243 C22.0968883,7.97568717 22.5693286,9.56293128 22.6629829,11.1755269 C22.6688924,11.2773301 22.6733737,11.3805872 22.6764276,11.4848146 C22.6793592,11.5856507 22.6808331,11.6879789 22.6808912,11.7914499 L22.6810316,12.0415902 L21.4013771,12.0415902 C21.2380824,12.0415902 21.1538817,12.2481689 21.2727721,12.3689631 L23.1404356,14.2669213 C23.211952,14.3395977 23.3261851,14.3395977 23.3977015,14.2669213 L25.2653113,12.3690178 C25.3841422,12.2481853 25.2998968,12.0415334 25.1366483,12.0415334 Z" id="Path"></path>
                    <path d="M21.8234882,21.4220091 L20.5439222,21.4220091 L20.5438624,21.172069 C20.5438076,20.9430513 20.537111,20.7117149 20.5239453,20.4846006 C20.4193099,18.6830603 19.8910933,16.9086829 18.9968039,15.3543445 C18.124866,13.8388648 16.9025257,12.5236582 15.4627706,11.5516971 C13.9994665,10.5637993 12.3048804,9.92837541 10.5632192,9.71443123 C8.6270854,9.47655595 6.65795907,9.74647895 4.8690609,10.4947938 C3.11449035,11.2287247 1.55320969,12.4128001 0.354638889,13.9187698 C0.14848966,14.177721 0.188117447,14.5587445 0.442308167,14.767722 C0.694250599,14.9747471 1.06240911,14.9352025 1.26666348,14.6785917 C1.328329,14.6010987 1.39321532,14.5222118 1.46274281,14.4399837 C2.51014026,13.2020821 3.83594163,12.2270862 5.31412757,11.608747 C6.91854656,10.9376413 8.68515655,10.6957912 10.423044,10.9092737 C11.9848564,11.101129 13.50319,11.6704956 14.8149988,12.5561536 C16.1064235,13.428061 17.2016439,14.6064099 17.9831937,15.9648 C18.7837282,17.3561629 19.2561685,18.943407 19.3498228,20.5560025 C19.3557324,20.6578058 19.3602136,20.7610629 19.3632675,20.8652903 C19.3661992,20.9661264 19.367673,21.0684546 19.3677311,21.1719256 L19.3678715,21.4220659 L18.0882171,21.4220659 C17.9249223,21.4220659 17.8407216,21.6286446 17.9596121,21.7494388 L19.8272756,23.6473969 C19.898792,23.7200734 20.0130251,23.7200734 20.0845415,23.6473969 L21.9521512,21.7494935 C22.0709822,21.628661 21.9867367,21.4220091 21.8234882,21.4220091 Z" id="Path-Copy" transform="translate(11.115238, 16.666190) rotate(-180.000000) translate(-11.115238, -16.666190) "></path>
                </g>
            </g>
        </g>
    </g>
</svg>
