<?xml version="1.0" encoding="UTF-8"?>
<svg width="24px" height="24px" viewBox="0 0 24 24" version="1.1" xmlns="http://www.w3.org/2000/svg" xmlns:xlink="http://www.w3.org/1999/xlink">
    <g id="icon/comparison-matrix" stroke="none" stroke-width="1" fill="none" fill-rule="evenodd">
        <g id="icon/epoch-copy-5">
            <rect id="Rectangle" fill-opacity="0" fill="#FFFFFF" x="0" y="0" width="24" height="24"></rect>
            <g id="list-copy-2" transform="translate(3.000000, 7.000000)" fill="currentColor">
                <path d="M23.1101602,7.76809179 L10.2900592,7.76809179 C9.92654048,7.76809179 9.63190821,7.45472512 9.63190821,7.06809179 C9.63190821,6.68145845 9.92654048,6.36809179 10.2900592,6.36809179 L23.1099408,6.36809179 C23.4734595,6.36809179 23.7680918,6.68145845 23.7680918,7.06809179 C23.7680918,7.45472512 23.4736789,7.76809179 23.1101602,7.76809179 Z" id="Path" transform="translate(16.700000, 7.068092) rotate(90.000000) translate(-16.700000, -7.068092) "></path>
                <path d="M18.1101602,8.76809179 L7.29005921,8.76809179 C6.92654048,8.76809179 6.63190821,8.45472512 6.63190821,8.06809179 C6.63190821,7.68145845 6.92654048,7.36809179 7.29005921,7.36809179 L18.1099408,7.36809179 C18.4734595,7.36809179 18.7680918,7.68145845 18.7680918,8.06809179 C18.7680918,8.45472512 18.4736789,8.76809179 18.1101602,8.76809179 Z" id="Path-Copy" transform="translate(12.700000, 8.068092) rotate(90.000000) translate(-12.700000, -8.068092) "></path>
                <path d="M13.1101602,9.76809179 L4.29005921,9.76809179 C3.92654048,9.76809179 3.63190821,9.45472512 3.63190821,9.06809179 C3.63190821,8.68145845 3.92654048,8.36809179 4.29005921,8.36809179 L13.1099408,8.36809179 C13.4734595,8.36809179 13.7680918,8.68145845 13.7680918,9.06809179 C13.7680918,9.45472512 13.4736789,9.76809179 13.1101602,9.76809179 Z" id="Path-Copy-2" transform="translate(8.700000, 9.068092) rotate(90.000000) translate(-8.700000, -9.068092) "></path>
                <path d="M7.61016017,11.2680918 L1.79005921,11.2680918 C1.42654048,11.2680918 1.13190821,10.9547251 1.13190821,10.5680918 C1.13190821,10.1814585 1.42654048,9.86809179 1.79005921,9.86809179 L7.60994079,9.86809179 C7.97345952,9.86809179 8.26809179,10.1814585 8.26809179,10.5680918 C8.26809179,10.9547251 7.97367891,11.2680918 7.61016017,11.2680918 Z" id="Path-Copy-3" transform="translate(4.700000, 10.568092) rotate(90.000000) translate(-4.700000, -10.568092) "></path>
                <path d="M2.43749012,12.4407618 L-1.03727074,12.4407618 C-1.40078947,12.4407618 -1.69542174,12.1273952 -1.69542174,11.7407618 C-1.69542174,11.3541285 -1.40078947,11.0407618 -1.03727074,11.0407618 L2.43727074,11.0407618 C2.80078947,11.0407618 3.09542174,11.3541285 3.09542174,11.7407618 C3.09542174,12.1273952 2.80100886,12.4407618 2.43749012,12.4407618 Z" id="Path-Copy-4" transform="translate(0.700000, 11.740762) rotate(90.000000) translate(-0.700000, -11.740762) "></path>
            </g>
            <g id="right-arrow" transform="translate(1.500000, 0.500000)" fill="currentColor" stroke="currentColor" stroke-width="0.6">
                <path d="M16.3232046,5.35938044 C16.2025484,5.23450544 16.0017359,5.23450544 15.8768609,5.35938044 C15.7562046,5.48003669 15.7562046,5.68084919 15.8768609,5.80122419 L17.6676894,7.64864839 L0.718595456,7.48295637 C0.544501706,7.48323762 0.406126706,7.62161262 0.406126706,7.79570637 C0.406126706,7.96980012 0.544501706,8.11267512 0.718595456,8.11267512 L17.6676894,8.27836714 L15.8951197,10.1801403 C15.7744634,10.3050153 15.7744634,10.5061091 15.8951197,10.6264841 C16.0199947,10.7513591 16.2210884,10.7513591 16.3414634,10.6264841 L18.6498144,8.18471089 C18.7746894,8.06405464 18.7746894,7.86324214 18.6498144,7.74286714 L16.3232046,5.35938044 Z" id="Path" transform="translate(9.574799, 7.992932) rotate(-35.000000) translate(-9.574799, -7.992932) "></path>
            </g>
        </g>
    </g>
</svg>