<?xml version="1.0" encoding="UTF-8"?>
<svg width="48px" height="48px" viewBox="0 0 48 48" version="1.1" xmlns="http://www.w3.org/2000/svg" xmlns:xlink="http://www.w3.org/1999/xlink">
    <defs>
        <circle id="compare-path-1" cx="24" cy="24" r="24"></circle>
    </defs>
    <g id="icon/compare-all" stroke="none" stroke-width="1" fill="none" fill-rule="evenodd">
        <g id="Icon-Circle-Copy-4" opacity="0.1">
            <g id="Oval">
                <mask id="mask-2" fill="white">
                    <use xlink:href="#compare-path-1"></use>
                </mask>
                <use fill="#4D20C0" xlink:href="#compare-path-1"></use>
            </g>
        </g>
        <g id="icon/comparison-matrix" transform="translate(9.000000, 8.000000)">
            <g id="icon/epoch-copy-5">
                <rect id="Rectangle" fill-opacity="0" fill="#FFFFFF" x="0" y="0" width="32" height="32"></rect>
                <g id="list-copy-2" transform="translate(4.000000, 2.333333)" fill="#4D20C0">
                    <path d="M30.8135469,13.3574557 L13.720079,13.3574557 C13.2353873,13.3574557 12.8425443,12.9396335 12.8425443,12.4241224 C12.8425443,11.9086113 13.2353873,11.490789 13.720079,11.490789 L30.8132544,11.490789 C31.297946,11.490789 31.690789,11.9086113 31.690789,12.4241224 C31.690789,12.9396335 31.2982385,13.3574557 30.8135469,13.3574557 Z" id="Path" transform="translate(22.266667, 12.424122) rotate(90.000000) translate(-22.266667, -12.424122) "></path>
                    <path d="M18.6468802,20.190789 L15.220079,20.190789 C14.7353873,20.190789 14.3425443,19.7729668 14.3425443,19.2574557 C14.3425443,18.7419446 14.7353873,18.3241224 15.220079,18.3241224 L18.6465877,18.3241224 C19.1312794,18.3241224 19.5241224,18.7419446 19.5241224,19.2574557 C19.5241224,19.7729668 19.1315719,20.190789 18.6468802,20.190789 Z" id="Path-Copy" transform="translate(16.933333, 19.257456) rotate(90.000000) translate(-16.933333, -19.257456) "></path>
                    <path d="M17.4802136,16.0241224 L5.72007895,16.0241224 C5.2353873,16.0241224 4.84254428,15.6063002 4.84254428,15.090789 C4.84254428,14.5752779 5.2353873,14.1574557 5.72007895,14.1574557 L17.479921,14.1574557 C17.9646127,14.1574557 18.3574557,14.5752779 18.3574557,15.090789 C18.3574557,15.6063002 17.9649052,16.0241224 17.4802136,16.0241224 Z" id="Path-Copy-2" transform="translate(11.600000, 15.090789) rotate(90.000000) translate(-11.600000, -15.090789) "></path>
                    <path d="M10.1468802,18.0241224 L2.38674562,18.0241224 C1.90205397,18.0241224 1.50921095,17.6063002 1.50921095,17.090789 C1.50921095,16.5752779 1.90205397,16.1574557 2.38674562,16.1574557 L10.1465877,16.1574557 C10.6312794,16.1574557 11.0241224,16.5752779 11.0241224,17.090789 C11.0241224,17.6063002 10.6315719,18.0241224 10.1468802,18.0241224 Z" id="Path-Copy-3" transform="translate(6.266667, 17.090789) rotate(90.000000) translate(-6.266667, -17.090789) "></path>
                    <path d="M10.7499868,12.0876825 L-8.88302765,12.0876825 C-9.3677193,12.0876825 -9.76056232,11.6698602 -9.76056232,11.1543491 C-9.76056232,10.638838 -9.3677193,10.2210158 -8.88302765,10.2210158 L10.7496943,10.2210158 C11.234386,10.2210158 11.627229,10.638838 11.627229,11.1543491 C11.627229,11.6698602 11.2346785,12.0876825 10.7499868,12.0876825 Z" id="Path-Copy-4" transform="translate(0.933333, 11.154349) rotate(90.000000) translate(-0.933333, -11.154349) "></path>
                </g>
                <path d="M4.7462423,27.2588726 L9.7462423,27.2588726" id="Path-5" stroke="#92B9FC" stroke-width="1.5" stroke-linecap="round" stroke-linejoin="round"></path>
                <path d="M16.7462423,27.2588726 L21.7462423,27.2588726" id="Path-5-Copy" stroke="#92B9FC" stroke-width="1.5" stroke-linecap="round" stroke-linejoin="round"></path>
                <path d="M24.7462423,27.2588726 L26.7462423,27.2588726" id="Path-5-Copy-3" stroke="#92B9FC" stroke-width="1.5" stroke-linecap="round" stroke-linejoin="round"></path>
                <path d="M12.7462423,27.2588726 L13.7462423,27.2588726" id="Path-5-Copy-2" stroke="#92B9FC" stroke-width="1.5" stroke-linecap="round" stroke-linejoin="round"></path>
            </g>
        </g>
    </g>
</svg>