<?xml version="1.0" encoding="UTF-8"?>
<svg width="48px" height="48px" viewBox="0 0 48 48" version="1.1" xmlns="http://www.w3.org/2000/svg" xmlns:xlink="http://www.w3.org/1999/xlink">
    <defs>
        <circle id="download-or-share-path-1" cx="24" cy="24" r="24"></circle>
    </defs>
    <g id="icon/download-or-share" stroke="none" stroke-width="1" fill="none" fill-rule="evenodd">
        <g id="Icon-Circle-Copy-3" opacity="0.1">
            <g id="Oval">
                <mask id="mask-2" fill="white">
                    <use xlink:href="#download-or-share-path-1"></use>
                </mask>
                <use fill="#4D20C0" xlink:href="#download-or-share-path-1"></use>
            </g>
        </g>
        <g id="download-(1)" transform="translate(10.000000, 12.000000)">
            <path d="M26.6375078,16.6666667 C26.253293,16.6666667 25.9416823,16.9701576 25.9416823,17.3443609 L25.9416823,19.9338868 C25.9416823,21.4285681 24.6931042,22.6446116 23.1584336,22.6446116 L4.17489974,22.6446116 C2.64022917,22.6446116 1.39165104,21.4285681 1.39165104,19.9338868 L1.39165104,17.3443609 C1.39165104,16.9701576 1.08014714,16.6666667 0.695825521,16.6666667 C0.311503906,16.6666667 0,16.9701056 0,17.3443609 L0,19.9338868 C0,22.1759347 1.87286719,24 4.17489974,24 L23.1584336,24 C25.4604661,24 27.3333333,22.1759347 27.3333333,19.9338868 L27.3333333,17.3443609 C27.3333333,16.9701056 27.0218294,16.6666667 26.6375078,16.6666667 Z" id="Path" fill="#4D20C0"></path>
            <path d="M22.6455754,19.3333333 L5.35447734,19.3333333 C4.97468807,19.3333333 4.66666667,19.6318858 4.66666667,20 C4.66666667,20.3681142 4.97458252,20.6666667 5.35447734,20.6666667 L22.6455227,20.6666667 C23.0254175,20.6666667 23.3333333,20.3682165 23.3333333,20 C23.3333333,19.6318858 23.0254175,19.3333333 22.6455754,19.3333333 Z" id="Path" fill="#7CA2FF"></path>
            <path d="M20.487001,9.39980076 C20.2269808,9.11464435 19.7802016,9.08983197 19.4890007,9.34465033 L14.0401273,14.1139935 L14.0401273,0.692515109 C14.0401273,0.31012818 13.7237106,0 13.3333279,0 C12.9430536,0 12.6265285,0.310021917 12.6265285,0.692515109 L12.6265285,14.1139935 L7.177655,9.34470346 C6.88661676,9.0898851 6.43978333,9.11475061 6.17965469,9.39985389 C5.91968873,9.68511656 5.944796,10.1229196 6.23588846,10.3776848 L12.1561061,15.5594342 C12.4916108,15.8531978 12.9123609,16 13.3332736,16 C13.7540237,16 14.174828,15.8531978 14.5104411,15.5595935 L20.4306588,10.3776848 C20.7218597,10.1227602 20.7470212,9.68495716 20.487001,9.39980076 Z" id="Path" fill="#4D20C0"></path>
        </g>
    </g>
</svg>