<?xml version="1.0" encoding="UTF-8"?>
<svg width="24px" height="24px" viewBox="0 0 24 24" version="1.1" xmlns="http://www.w3.org/2000/svg" xmlns:xlink="http://www.w3.org/1999/xlink">
    <g id="icon/export" stroke="none" stroke-width="1" fill="none" fill-rule="evenodd">
        <g id="export-(4)" transform="translate(2.000000, 2.000000)" fill="currentColor">
            <path d="M19.2462109,0 L13.7939844,0 C13.3776562,0 13.0402344,0.337421875 13.0402344,0.753789063 C13.0402344,1.17011719 13.3776562,1.50753906 13.7939844,1.50753906 L18.4924609,1.50753906 L18.4924609,6.20601563 C18.4924609,6.62234375 18.8298828,6.95976563 19.2462109,6.95976563 C19.6625391,6.95976563 20,6.62234375 20,6.20601563 L20,0.753789063 C20,0.337421875 19.6625781,0 19.2462109,0 Z" id="Path"></path>
            <path d="M19.7791406,0.220859375 C19.4846875,-0.0736328125 19.0077734,-0.0736328125 18.7133203,0.220859375 L7.95953125,10.9746094 C7.66503906,11.2688281 7.66503906,11.7462109 7.95953125,12.0404297 C8.10652344,12.1876562 8.29949219,12.2612891 8.49246094,12.2612891 C8.68515625,12.2612891 8.878125,12.1876562 9.02539063,12.0404297 L19.7791406,1.28667969 C20.0736328,0.992460938 20.0736328,0.515078125 19.7791406,0.220859375 Z" id="Path"></path>
            <path d="M16.6834375,9.371875 C16.2671094,9.371875 15.9296484,9.70929687 15.9296484,10.125625 L15.9296484,18.4924609 L1.50753906,18.4924609 L1.50753906,4.07035156 L9.874375,4.07035156 C10.2907031,4.07035156 10.628125,3.73292969 10.628125,3.31660156 C10.628125,2.90027344 10.2907031,2.5628125 9.874375,2.5628125 L0.753789063,2.5628125 C0.337421875,2.5628125 0,2.90023437 0,3.31660156 L0,19.24625 C0,19.6625781 0.337421875,20 0.753789063,20 L16.6834375,20 C17.1,20 17.4371875,19.6625781 17.4371875,19.2462109 L17.4371875,10.125625 C17.4371875,9.70929687 17.0997656,9.371875 16.6834375,9.371875 Z" id="Path"></path>
        </g>
    </g>
</svg>