<?xml version="1.0" encoding="UTF-8"?>
<svg width="24px" height="24px" viewBox="0 0 24 24" version="1.1" xmlns="http://www.w3.org/2000/svg" xmlns:xlink="http://www.w3.org/1999/xlink">
    <g id="icon/import" stroke="none" stroke-width="1" fill="none" fill-rule="evenodd">
        <g id="import" transform="translate(3.000000, 3.000000)" fill="currentColor">
            <path d="M12.2462109,6 L6.79398437,6 C6.37765625,6 6.04023437,6.33742188 6.04023437,6.75378906 C6.04023437,7.17011719 6.37765625,7.50753906 6.79398437,7.50753906 L11.4924609,7.50753906 L11.4924609,12.2060156 C11.4924609,12.6223438 11.8298828,12.9597656 12.2462109,12.9597656 C12.6625391,12.9597656 13,12.6223438 13,12.2060156 L13,6.75378906 C13,6.33742188 12.6625781,6 12.2462109,6 Z" id="Path" transform="translate(9.520117, 9.479883) scale(-1, -1) translate(-9.520117, -9.479883) "></path>
            <path d="M18.7791406,0.220859375 C18.4846875,-0.0736328125 18.0077734,-0.0736328125 17.7133203,0.220859375 L6.95953125,10.9746094 C6.66503906,11.2688281 6.66503906,11.7462109 6.95953125,12.0404297 C7.10652344,12.1876562 7.29949219,12.2612891 7.49246094,12.2612891 C7.68515625,12.2612891 7.878125,12.1876562 8.02539063,12.0404297 L18.7791406,1.28667969 C19.0736328,0.992460937 19.0736328,0.515078125 18.7791406,0.220859375 Z" id="Path" transform="translate(12.869336, 6.130640) scale(-1, -1) translate(-12.869336, -6.130640) "></path>
            <path d="M16.6834375,8.371875 C16.2671094,8.371875 15.9296484,8.70929687 15.9296484,9.125625 L15.9296484,17.4924609 L1.50753906,17.4924609 L1.50753906,3.07035156 L9.874375,3.07035156 C10.2907031,3.07035156 10.628125,2.73292969 10.628125,2.31660156 C10.628125,1.90027344 10.2907031,1.5628125 9.874375,1.5628125 L0.753789063,1.5628125 C0.337421875,1.5628125 0,1.90023437 0,2.31660156 L0,18.24625 C0,18.6625781 0.337421875,19 0.753789063,19 L16.6834375,19 C17.1,19 17.4371875,18.6625781 17.4371875,18.2462109 L17.4371875,9.125625 C17.4371875,8.70929687 17.0997656,8.371875 16.6834375,8.371875 Z" id="Path"></path>
        </g>
    </g>
</svg>