<?xml version="1.0" encoding="UTF-8"?>
<svg width="24px" height="24px" viewBox="0 0 24 24" version="1.1" xmlns="http://www.w3.org/2000/svg" xmlns:xlink="http://www.w3.org/1999/xlink">
    <!-- Generator: Sketch 52.6 (67491) - http://www.bohemiancoding.com/sketch -->
    <g id="icon/stakepool-list" stroke="none" stroke-width="1" fill="none" fill-rule="evenodd">
        <g id="icon/epoch-copy-2">
            <rect id="Rectangle" fill-opacity="0" fill="#FFFFFF" x="0" y="0" width="24" height="24"></rect>
            <path d="M18.4775523,6.77663446 L6.17681159,6.77663446 C5.66983897,6.77663446 5.2589372,6.46326779 5.2589372,6.07663446 C5.2589372,5.69000113 5.66983897,5.37663446 6.17681159,5.37663446 L18.4772464,5.37663446 C18.984219,5.37663446 19.3951208,5.69000113 19.3951208,6.07663446 C19.3951208,6.46326779 18.984525,6.77663446 18.4775523,6.77663446 Z" id="Path" fill="currentColor"></path>
            <circle id="Oval" fill="currentColor" cx="3" cy="6" r="1"></circle>
            <path d="M8.47755233,12.7766345 L6.17681159,12.7766345 C5.66983897,12.7766345 5.2589372,12.4632678 5.2589372,12.0766345 C5.2589372,11.6900011 5.66983897,11.3766345 6.17681159,11.3766345 L8.47724638,11.3766345 C8.984219,11.3766345 9.39512077,11.6900011 9.39512077,12.0766345 C9.39512077,12.4632678 8.98452496,12.7766345 8.47755233,12.7766345 Z" id="Path" fill="currentColor"></path>
            <circle id="Oval" fill="currentColor" cx="3" cy="12" r="1"></circle>
            <path d="M8.47755233,18.7766345 L6.17681159,18.7766345 C5.66983897,18.7766345 5.2589372,18.4632678 5.2589372,18.0766345 C5.2589372,17.6900011 5.66983897,17.3766345 6.17681159,17.3766345 L8.47724638,17.3766345 C8.984219,17.3766345 9.39512077,17.6900011 9.39512077,18.0766345 C9.39512077,18.4632678 8.98452496,18.7766345 8.47755233,18.7766345 Z" id="Path" fill="currentColor"></path>
            <circle id="Oval" fill="currentColor" cx="3" cy="18" r="1"></circle>
            <path d="M15.318,9.5784 C17.1596,9.5784 18.6572,11.0764 18.6572,12.9176 C18.6572,14.7592 17.1596,16.2568 15.318,16.2568 C13.4764,16.2568 11.9788,14.7592 11.9788,12.9176 C11.9788,11.0764 13.4764,9.5784 15.318,9.5784 M18.776,15.822 C19.4604,15.008 19.836,13.984 19.836,12.9176 C19.836,10.4268 17.8092,8.4 15.318,8.4 C12.8268,8.4 10.8,10.4268 10.8,12.9176 C10.8,15.4088 12.8268,17.4356 15.318,17.4356 C16.2532,17.4356 17.1444,17.1532 17.9064,16.618 L20.1526231,18.8828852 C20.2646231,18.9992852 20.4154231,19.0636852 20.5770231,19.0636852 C20.7298231,19.0636852 20.8750231,19.0052852 20.9854231,18.8992852 C21.2198231,18.6740852 21.2270231,18.3004852 21.0018231,18.0660852 L18.776,15.822 Z" id="Fill-1" fill="currentColor"></path>
        </g>
    </g>
</svg>