<?xml version="1.0" encoding="UTF-8"?>
<svg width="24px" height="24px" viewBox="0 0 24 24" version="1.1" xmlns="http://www.w3.org/2000/svg" xmlns:xlink="http://www.w3.org/1999/xlink">
    <defs>
        <path d="M11.8554827,1.95512472 C8.47187352,1.95512472 5.71911906,4.61364359 5.71911906,7.88138905 C5.71911906,11.9367633 11.2105634,17.8902897 11.4443665,18.1417531 C11.6639726,18.3779714 12.0473899,18.377556 12.2665989,18.1417531 C12.500402,17.8902897 17.9918463,11.9367633 17.9918463,7.88138905 C17.9917802,4.61364359 15.2390588,1.95512472 11.8554827,1.95512472 Z M11.8554827,10.8630582 C10.1531048,10.8630582 8.7681565,9.52548906 8.7681565,7.88138905 C8.7681565,6.23728903 10.1531379,4.89975189 11.8554827,4.89975189 C13.5578275,4.89975189 14.9427758,6.23732099 14.9427758,7.88142101 C14.9427758,9.52552102 13.5578275,10.8630582 11.8554827,10.8630582 Z" id="location-path-1"></path>
    </defs>
    <g id="icon/location" stroke="none" stroke-width="1" fill="none" fill-rule="evenodd">
        <g id="icon/epoch-copy-7">
            <rect id="Rectangle" fill-opacity="0" fill="#FFFFFF" x="0" y="0" width="24" height="24"></rect>
            <path d="M20.6363636,19.4546511 C20.6363636,20.8789216 17.1371258,21.9090881 11.8181818,21.9090881 C6.49923782,21.9090881 3,20.8789216 3,19.4546511 C3,18.3093155 5.1868263,17.3447925 8.30887441,17.0033119 C8.5631074,16.9736358 8.79816972,17.1465468 8.8298975,17.3954327 C8.86138673,17.6458479 8.67285922,17.8678921 8.41707991,17.8956356 C5.82723449,18.1788022 3.93939394,18.9734432 3.93939394,19.4546511 C3.93939394,20.1404705 7.46042748,21.0107179 11.8181818,21.0107179 C16.1759362,21.0107179 19.6969697,20.1404705 19.6969697,19.4546511 C19.6969697,18.9734432 17.8091291,18.1788022 15.2194392,17.8956526 C14.9634483,17.867886 14.7750052,17.6460792 14.806461,17.3954734 C14.8376493,17.1469991 15.0722399,16.9746072 15.3265138,17.0032005 C18.449694,17.3448616 20.6363636,18.3093565 20.6363636,19.4546511 Z" id="Path" fill="currentColor" fill-rule="nonzero"></path>
            <mask id="mask-2" fill="white">
                <use xlink:href="#location-path-1"></use>
            </mask>
            <use id="Shape" stroke="currentColor" fill-rule="nonzero" xlink:href="#location-path-1"></use>
        </g>
    </g>
</svg>