<?xml version="1.0" encoding="UTF-8"?>
<svg width="24px" height="24px" viewBox="0 0 24 24" version="1.1" xmlns="http://www.w3.org/2000/svg" xmlns:xlink="http://www.w3.org/1999/xlink">
    <g id="icon/people" stroke="none" stroke-width="1" fill="none" fill-rule="evenodd">
        <g>
            <rect id="Rectangle" fill-opacity="0" fill="#FFFFFF" x="0" y="0" width="24" height="24"></rect>
            <g id="Group-2" transform="translate(1.000000, 4.000000)" fill="currentColor" fill-rule="nonzero">
                <g id="user-copy-5" transform="translate(0.000000, 1.222222)">
                    <path d="M10.6218306,5.87496141 C11.8233046,5.87496141 12.7972918,4.90097426 12.7972918,3.69950023 C12.7972918,2.4980262 11.8233046,1.52403906 10.6218306,1.52403906 C9.42035655,1.52403906 8.4463694,2.4980262 8.4463694,3.69950023 C8.4463694,4.90097426 9.42035655,5.87496141 10.6218306,5.87496141 Z M10.6218306,7.09718363 C8.74534185,7.09718363 7.22414718,5.57598896 7.22414718,3.69950023 C7.22414718,1.82301151 8.74534185,0.301816833 10.6218306,0.301816833 C12.4983193,0.301816833 14.019514,1.82301151 14.019514,3.69950023 C14.019514,5.57598896 12.4983193,7.09718363 10.6218306,7.09718363 Z" id="Oval"></path>
                    <path d="M15.2042942,13.0425457 C14.3575505,10.6314467 12.8953056,9.53333333 10.6531567,9.53333333 C8.41641711,9.53333333 7.05806016,10.6189211 6.38651546,13.0425074 L15.2042942,13.0425457 Z M5.08202084,13.2187218 C5.82928283,9.94698133 7.68632812,8.31111111 10.6531567,8.31111111 C13.6035007,8.31111111 15.5618481,9.92885301 16.5281991,13.1643368 C16.6634605,13.6170929 16.4060459,14.0937567 15.9532801,14.2289856 C15.8738276,14.2527159 15.7913473,14.2647701 15.7084267,14.2647701 L5.91605626,14.2647276 C5.44356945,14.2647276 5.06054321,13.8817014 5.06054321,13.4092145 C5.06054321,13.3451128 5.06774764,13.2812142 5.08202084,13.2187218 Z" id="Path-3"></path>
                    <path d="M5.80884698,8.88726043 C5.36410883,8.66246794 4.84700409,8.55555556 4.2478072,8.55555556 C2.76709256,8.55555556 1.85873897,9.20120334 1.34827582,10.6908494 L4.54596992,10.6908494 C4.32479462,11.0960652 4.14404684,11.5034777 4.00402618,11.9130714 L0.855556224,11.9130717 C0.383045569,11.9130717 6.78469626e-17,11.5300261 0,11.0575155 C0,10.9842275 0.00941673555,10.9112433 0.0280189088,10.8403555 C0.641553993,8.50234073 2.04815009,7.33333333 4.2478072,7.33333333 C5.18501117,7.33333333 5.99208544,7.54554806 6.66903001,7.96997753 C6.35866642,8.2744162 6.07189308,8.58017954 5.80884698,8.88726043 Z" id="Combined-Shape"></path>
                    <path d="M20.4755136,8.88726043 C20.0307755,8.66246794 19.5136708,8.55555556 18.9144739,8.55555556 C17.4337592,8.55555556 16.5254056,9.20120334 16.0149425,10.6908494 L19.2126366,10.6908494 C18.9914613,11.0960652 18.8107135,11.5034777 18.6706928,11.9130714 L15.5222229,11.9130717 C15.0497122,11.9130717 14.6666667,11.5300261 14.6666667,11.0575155 C14.6666667,10.9842275 14.6760834,10.9112433 14.6946856,10.8403555 C15.3082207,8.50234073 16.7148168,7.33333333 18.9144739,7.33333333 C19.8516778,7.33333333 20.6587521,7.54554806 21.3356967,7.96997753 C21.0253331,8.2744162 20.7385598,8.58017954 20.4755136,8.88726043 Z" id="Combined-Shape-Copy" transform="translate(18.001182, 9.623203) scale(-1, 1) translate(-18.001182, -9.623203) "></path>
                </g>
                <g id="user-copy-6" transform="translate(0.699289, 1.209149)">
                    <path d="M3.18773292,5.17732074 C3.95617109,5.17732074 4.57911331,4.55437852 4.57911331,3.78594035 C4.57911331,3.01750218 3.95617109,2.39455996 3.18773292,2.39455996 C2.41929475,2.39455996 1.79635253,3.01750218 1.79635253,3.78594035 C1.79635253,4.55437852 2.41929475,5.17732074 3.18773292,5.17732074 Z M3.18773292,6.39954296 C1.74428006,6.39954296 0.574130309,5.22939321 0.574130309,3.78594035 C0.574130309,2.34248748 1.74428006,1.17233774 3.18773292,1.17233774 C4.63118579,1.17233774 5.80133554,2.34248748 5.80133554,3.78594035 C5.80133554,5.22939321 4.63118579,6.39954296 3.18773292,6.39954296 Z" id="Oval"></path>
                </g>
                <g id="user-copy-7" transform="translate(17.564571, 4.864655) scale(-1, 1) translate(-17.564571, -4.864655) translate(14.509015, 1.197989)">
                    <path d="M3.18773292,5.17732074 C3.95617109,5.17732074 4.57911331,4.55437852 4.57911331,3.78594035 C4.57911331,3.01750218 3.95617109,2.39455996 3.18773292,2.39455996 C2.41929475,2.39455996 1.79635253,3.01750218 1.79635253,3.78594035 C1.79635253,4.55437852 2.41929475,5.17732074 3.18773292,5.17732074 Z M3.18773292,6.39954296 C1.74428006,6.39954296 0.574130309,5.22939321 0.574130309,3.78594035 C0.574130309,2.34248748 1.74428006,1.17233774 3.18773292,1.17233774 C4.63118579,1.17233774 5.80133554,2.34248748 5.80133554,3.78594035 C5.80133554,5.22939321 4.63118579,6.39954296 3.18773292,6.39954296 Z" id="Oval"></path>
                </g>
            </g>
        </g>
    </g>
</svg>