<?xml version="1.0" encoding="UTF-8"?>
<svg width="24px" height="24px" viewBox="0 0 24 24" version="1.1" xmlns="http://www.w3.org/2000/svg" xmlns:xlink="http://www.w3.org/1999/xlink">
    <!-- Generator: Sketch 52.6 (67491) - http://www.bohemiancoding.com/sketch -->
    <title>icon/profitability position</title>
    <desc>Created with Sketch.</desc>
    <g id="icon/profitability-position" stroke="none" stroke-width="1" fill="none" fill-rule="evenodd">
        <g id="profitability-position">
            <rect id="Rectangle" fill="#FFFFFF" opacity="0" x="0" y="0" width="24" height="24"></rect>
            <path d="M11.9952131,2.859375 C17.0329376,2.859375 21.1310513,6.9575079 21.1310513,11.9952131 C21.1310513,17.0328977 17.0328977,21.1310513 11.9952131,21.1310513 C6.9575079,21.1310513 2.859375,17.0329376 2.859375,11.9952131 C2.859375,8.56832451 4.75123285,5.45817024 7.79585222,3.87972198 C8.07366936,3.73566514 8.41574095,3.844129 8.5597711,4.12198913 C8.70380303,4.3998527 8.59535286,4.74185189 8.31750337,4.88587652 C5.64960007,6.26903022 3.99274364,8.99272377 3.99274364,11.9952131 C3.99274364,16.4076261 7.58281847,19.9976826 11.9952131,19.9976826 C16.4075867,19.9976826 19.9976826,16.4075867 19.9976826,11.9952131 C19.9976826,7.58283962 16.4075867,3.99274364 11.9952131,3.99274364 C11.682285,3.99274364 11.4285288,3.7389875 11.4285288,3.42605932 C11.4285288,3.11313114 11.682285,2.859375 11.9952131,2.859375 Z" id="Combined-Shape" fill="#8791AD" fill-rule="nonzero"></path>
            <path d="M18.0289641,10.2932472 C18.1087873,10.567839 17.9508767,10.8551312 17.6762328,10.9349696 C17.4015658,11.0147032 17.1142951,10.8568311 17.034563,10.5822556 C16.3711857,8.29923912 14.2447969,6.70420774 11.864545,6.70420774 C8.89631624,6.70420774 6.48135578,9.11916821 6.48135578,12.087397 C6.48135578,15.0556028 8.89635923,17.4705862 11.864545,17.4705862 C13.3026891,17.4705862 14.6541228,16.9108092 15.6710216,15.8939104 C15.873153,15.6916927 16.2010742,15.6916927 16.4032735,15.893892 C16.6054697,16.0960882 16.6054697,16.4239292 16.4032759,16.626123 C15.1911497,17.8383165 13.5788495,18.506147 11.864545,18.506147 C8.32514518,18.506147 5.44579502,15.6267968 5.44579502,12.087397 C5.44579502,8.54799714 8.32514518,5.66864699 11.864545,5.66864699 C13.282327,5.66864699 14.6269069,6.12195171 15.7517795,6.97922492 C16.8404248,7.80877462 17.6489885,8.98546652 18.0289641,10.2932472 Z" id="Combined-Shape" fill="#8791AD" fill-rule="nonzero"></path>
            <path d="M14.2688497,11.5602514 L13.3728497,11.5602514 L13.2118497,12.4352514 L14.0308497,12.4352514 L14.0308497,13.1982514 L13.0718497,13.1982514 L12.8408497,14.4302514 L11.9868497,14.4302514 L12.2178497,13.1982514 L11.4128497,13.1982514 L11.1818497,14.4302514 L10.3278497,14.4302514 L10.5588497,13.1982514 L9.83784973,13.1982514 L9.83784973,12.4352514 L10.6988497,12.4352514 L10.8598497,11.5602514 L10.1178497,11.5602514 L10.1178497,10.7972514 L11.0068497,10.7972514 L11.2308497,9.58625137 L12.0848497,9.58625137 L11.8608497,10.7972514 L12.6658497,10.7972514 L12.8898497,9.58625137 L13.7438497,9.58625137 L13.5198497,10.7972514 L14.2688497,10.7972514 L14.2688497,11.5602514 Z M12.3578497,12.4352514 L12.5188497,11.5602514 L11.7138497,11.5602514 L11.5528497,12.4352514 L12.3578497,12.4352514 Z" id="#" fill="#8791AD"></path>
        </g>
    </g>
</svg>