<?xml version="1.0" encoding="UTF-8"?>
<svg width="24px" height="24px" viewBox="0 0 24 24" version="1.1" xmlns="http://www.w3.org/2000/svg" xmlns:xlink="http://www.w3.org/1999/xlink">
    <g id="icon/reset-settings" stroke="none" stroke-width="1" fill="none" fill-rule="evenodd">
        <rect id="Rectangle" opacity="0" x="0" y="0" width="24" height="24"></rect>
        <g id="reset" transform="translate(12.500000, 12.000000) scale(-1, 1) translate(-12.500000, -12.000000) translate(3.000000, 1.000000)" fill="currentColor">
            <path d="M18.4710414,13.4335851 C19.0867088,8.02015563 14.9279103,3.31511978 9.58700281,3.25495195 L9.09263518,3.24938266 L9.09263518,0.80917726 L4.66599093,4.08170384 L9.09263518,7.35426126 L9.09263518,4.90486204 L9.60065071,4.91300711 C13.8322463,4.98085275 17.1692798,8.6070666 16.8843391,12.8809145 C16.6404876,16.582265 13.6459287,19.5851108 9.9636534,19.8213025 C6.12291965,20.0679851 2.76109541,17.3286178 2.15892773,13.5644836 C2.09572154,13.1688926 1.7507813,12.8766163 1.35030585,12.8766163 C0.85422796,12.8766163 0.469878278,13.3209744 0.546313014,13.8073646 C1.2966451,18.5693658 5.65595405,21.9676221 10.5223826,21.4205721 C14.6705919,20.9527752 17.9977416,17.6110064 18.4710414,13.4335851 Z" id="Path" fill-rule="nonzero"></path>
            <circle id="Oval" cx="9" cy="12" r="2"></circle>
        </g>
    </g>
</svg>