<?xml version="1.0" encoding="UTF-8"?>
<svg width="48px" height="48px" viewBox="0 0 48 48" version="1.1" xmlns="http://www.w3.org/2000/svg" xmlns:xlink="http://www.w3.org/1999/xlink">
    <defs>
        <circle id="search-for-stakepool-path-1" cx="24" cy="24" r="24"></circle>
    </defs>
    <g id="icon/search-for-stakepool" stroke="none" stroke-width="1" fill="none" fill-rule="evenodd">
        <g id="Icon-Circle-Copy-2" opacity="0.1">
            <g id="Oval">
                <mask id="mask-2" fill="white">
                    <use xlink:href="#search-for-stakepool-path-1"></use>
                </mask>
                <use fill="#4D20C0" xlink:href="#search-for-stakepool-path-1"></use>
            </g>
        </g>
        <g id="icon/epoch" transform="translate(8.000000, 8.000000)">
            <rect id="Rectangle" fill-opacity="0" fill="#FFFFFF" x="0" y="0" width="32" height="32"></rect>
            <path d="M14.405205,6.35767776 L14.405205,5.87573219 C19.1088073,5.87573219 22.9337139,9.70095514 22.9337139,14.4042411 C22.9337139,19.1081672 19.1091311,22.9327501 14.405205,22.9327501 C9.70127894,22.9327501 5.87669608,19.1081672 5.87669608,14.4042411 C5.87669608,9.70095514 9.70160272,5.87573219 14.405205,5.87573219 L14.405205,6.35767776 Z M22.0902355,21.4246423 L22.3691588,21.0929012 C23.9483994,19.214611 24.81041,16.8557907 24.81041,14.4042411 C24.81041,8.66811944 20.1420053,4 14.405205,4 C8.66840476,4 4,8.66811944 4,14.4042411 C4,20.141184 8.66826209,24.8094461 14.405205,24.8094461 C16.5570948,24.8094461 18.6083763,24.160978 20.3655421,22.9268112 L20.7036,22.6893721 L20.9899384,22.9871486 L25.6085024,27.6310042 C25.7878385,27.8173856 26.0259688,27.9188973 26.2839033,27.9188973 C26.5277763,27.9188973 26.7580361,27.8262277 26.9341378,27.6571446 C27.3068167,27.299093 27.3184734,26.7039584 26.9600707,26.330853 L22.0902355,21.4246423 Z" id="Fill-1" fill="#4D20C0" fill-rule="nonzero"></path>
            <path d="M14.405205,6.35767776 L14.405205,5.87573219 C19.1088073,5.87573219 22.9337139,9.70095514 22.9337139,14.4042411 C22.9337139,19.1081672 19.1091311,22.9327501 14.405205,22.9327501 C9.70127894,22.9327501 5.87669608,19.1081672 5.87669608,14.4042411 C5.87669608,9.70095514 9.70160272,5.87573219 14.405205,5.87573219 L14.405205,6.35767776 Z M22.0902355,21.4246423 L22.3691588,21.0929012 C23.9483994,19.214611 24.81041,16.8557907 24.81041,14.4042411 C24.81041,8.66811944 20.1420053,4 14.405205,4 C8.66840476,4 4,8.66811944 4,14.4042411 C4,20.141184 8.66826209,24.8094461 14.405205,24.8094461 C16.5570948,24.8094461 18.6083763,24.160978 20.3655421,22.9268112 L20.7036,22.6893721 L20.9899384,22.9871486 L25.6085024,27.6310042 C25.7878385,27.8173856 26.0259688,27.9188973 26.2839033,27.9188973 C26.5277763,27.9188973 26.7580361,27.8262277 26.9341378,27.6571446 C27.3068167,27.299093 27.3184734,26.7039584 26.9600707,26.330853 L22.0902355,21.4246423 Z" id="Fill-1-Copy" fill="#4D20C0" fill-rule="nonzero"></path>
            <path d="M10.5,18.0107778 L10.5,14.6573967" id="Path-6" stroke="#7CA2FF" stroke-width="1.4" stroke-linecap="round" stroke-linejoin="round"></path>
            <path d="M14.5,18.0107778 L14.5,12.2599677" id="Path-6-Copy" stroke="#7CA2FF" stroke-width="1.4" stroke-linecap="round" stroke-linejoin="round"></path>
            <path d="M18.5,18.0107778 L18.5,9.6520779" id="Path-6-Copy-2" stroke="#7CA2FF" stroke-width="1.4" stroke-linecap="round" stroke-linejoin="round"></path>
        </g>
    </g>
</svg>