<?xml version="1.0" encoding="UTF-8"?>
<svg width="44px" height="44px" viewBox="0 0 44 44" version="1.1" xmlns="http://www.w3.org/2000/svg" xmlns:xlink="http://www.w3.org/1999/xlink">
    <g id="icon/search" stroke="none" stroke-width="1" fill="none" fill-rule="evenodd">
        <g>
            <g id="icon/bg-for-icon" fill="#F0F3F5">
                <circle id="Oval-Copy-4" cx="22" cy="22" r="22"></circle>
            </g>
            <path d="M20.405205,12.3576778 L20.405205,11.8757322 C25.1088073,11.8757322 28.9337139,15.7009551 28.9337139,20.4042411 C28.9337139,25.1081672 25.1091311,28.9327501 20.405205,28.9327501 C15.7012789,28.9327501 11.8766961,25.1081672 11.8766961,20.4042411 C11.8766961,15.7009551 15.7016027,11.8757322 20.405205,11.8757322 L20.405205,12.3576778 Z M28.0902355,27.4246423 L28.3691588,27.0929012 C29.9483994,25.214611 30.81041,22.8557907 30.81041,20.4042411 C30.81041,14.6681194 26.1420053,10 20.405205,10 C14.6684048,10 10,14.6681194 10,20.4042411 C10,26.141184 14.6682621,30.8094461 20.405205,30.8094461 C22.5570948,30.8094461 24.6083763,30.160978 26.3655421,28.9268112 L26.7036,28.6893721 L26.9899384,28.9871486 L31.6085024,33.6310042 C31.7878385,33.8173856 32.0259688,33.9188973 32.2839033,33.9188973 C32.5277763,33.9188973 32.7580361,33.8262277 32.9341378,33.6571446 C33.3068167,33.299093 33.3184734,32.7039584 32.9600707,32.330853 L28.0902355,27.4246423 Z" id="Fill-1" fill="#3154CB" fill-rule="nonzero"></path>
            <path d="M16.5,19.9573967 C16.8543827,19.9573967 17.1472582,20.2207403 17.1936098,20.5624109 L17.2,20.6573967 L17.2,24.0107778 C17.2,24.3973771 16.8865993,24.7107778 16.5,24.7107778 C16.1456173,24.7107778 15.8527418,24.4474342 15.8063902,24.1057636 L15.8,24.0107778 L15.8,20.6573967 C15.8,20.2707974 16.1134007,19.9573967 16.5,19.9573967 Z M20.5,17.5599677 C20.8543827,17.5599677 21.1472582,17.8233113 21.1936098,18.1649818 L21.2,18.2599677 L21.2,24.0107778 C21.2,24.3973771 20.8865993,24.7107778 20.5,24.7107778 C20.1456173,24.7107778 19.8527418,24.4474342 19.8063902,24.1057636 L19.8,24.0107778 L19.8,18.2599677 C19.8,17.8733684 20.1134007,17.5599677 20.5,17.5599677 Z M24.5,14.9520779 C24.8543827,14.9520779 25.1472582,15.2154215 25.1936098,15.557092 L25.2,15.6520779 L25.2,24.0107778 C25.2,24.3973771 24.8865993,24.7107778 24.5,24.7107778 C24.1456173,24.7107778 23.8527418,24.4474342 23.8063902,24.1057636 L23.8,24.0107778 L23.8,15.6520779 C23.8,15.2654786 24.1134007,14.9520779 24.5,14.9520779 Z" id="Combined-Shape" fill="#F14D78" fill-rule="nonzero"></path>
        </g>
    </g>
</svg>