<?xml version="1.0" encoding="UTF-8"?>
<svg width="20px" height="20px" viewBox="0 0 20 20" version="1.1" xmlns="http://www.w3.org/2000/svg" xmlns:xlink="http://www.w3.org/1999/xlink">
    <!-- Generator: Sketch 52.6 (67491) - http://www.bohemiancoding.com/sketch -->
    <title>fb</title>
    <desc>Created with Sketch.</desc>
    <g id="fb" stroke="none" stroke-width="1" fill="none" fill-rule="evenodd">
        <g fill="#FFFFFF">
            <polygon id="Fill-10" fill-opacity="0" opacity="0" points="0 19.2 19.2 19.2 19.2 0 0 0"></polygon>
            <path d="M16.6222222,4.62222222 C16.6222222,3.36142222 15.4838222,2.22222222 14.2222222,2.22222222 L4.62222222,2.22222222 C3.36062222,2.22222222 2.22222222,3.36142222 2.22222222,4.62222222 L2.22222222,14.2222222 C2.22222222,15.4830222 3.36062222,16.6222222 4.62222222,16.6222222 L9.42222222,16.6222222 L9.42222222,11.1822222 L7.66222222,11.1822222 L7.66222222,8.78222222 L9.42222222,8.78222222 L9.42222222,7.84702222 C9.42222222,6.23502222 10.6334222,4.78222222 12.1222222,4.78222222 L14.0622222,4.78222222 L14.0622222,7.18222222 L12.1222222,7.18222222 C11.9094222,7.18222222 11.6622222,7.43982222 11.6622222,7.82622222 L11.6622222,8.78222222 L14.0622222,8.78222222 L14.0622222,11.1822222 L11.6622222,11.1822222 L11.6622222,16.6222222 L14.2222222,16.6222222 C15.4838222,16.6222222 16.6222222,15.4830222 16.6222222,14.2222222 L16.6222222,4.62222222 Z" id="Fill-12"></path>
        </g>
    </g>
</svg>