<?xml version="1.0" encoding="UTF-8"?>
<svg width="20px" height="20px" viewBox="0 0 20 20" version="1.1" xmlns="http://www.w3.org/2000/svg" xmlns:xlink="http://www.w3.org/1999/xlink">
    <!-- Generator: Sketch 52.6 (67491) - http://www.bohemiancoding.com/sketch -->
    <title>linked in</title>
    <desc>Created with Sketch.</desc>
    <g id="linked-in" stroke="none" stroke-width="1" fill="none" fill-rule="evenodd">
        <g fill="#FFFFFF">
            <polygon id="Fill-22" fill-opacity="0" opacity="0" points="0 20 20 20 20 0 0 0"></polygon>
            <path d="M15.1578947,14.0526316 L12.981933,14.0526316 L12.981933,10.5869939 C12.981933,9.60979251 12.617799,9.1211918 11.8895311,9.1211918 C11.6130144,9.1211918 11.3799043,9.19691296 11.1918086,9.34994939 C11.0029091,9.50218877 10.8614354,9.68710779 10.7681914,9.90550354 C10.723177,10.0178897 10.7022775,10.1916498 10.7022775,10.428378 L10.7022775,14.0526316 L8.52631579,14.0526316 C8.54480383,10.1422318 8.54480383,7.98138917 8.52631579,7.57010374 L10.7022775,7.57010374 L10.7022775,8.48513411 C11.1588517,7.77574646 11.8091483,7.42105263 12.6523636,7.42105263 C13.4055502,7.42105263 14.0116364,7.66654858 14.470622,8.15833755 C14.9288038,8.65092358 15.1578947,9.37625253 15.1578947,10.3343244 L15.1578947,14.0526316 Z M7.11562711,7.10279342 C6.91104279,7.31496623 6.64189107,7.42105263 6.3074465,7.42105263 L6.29874078,7.42105263 C5.97517835,7.42105263 5.71400687,7.31496623 5.51232446,7.10279342 C5.31064205,6.89140644 5.21052632,6.62894082 5.21052632,6.31539656 C5.21052632,5.99635153 5.31354395,5.73231426 5.5203047,5.52407057 C5.72779092,5.31504107 5.99549168,5.21052632 6.32413245,5.21052632 C6.65277322,5.21052632 6.91612112,5.31504107 7.11490163,5.52407057 C7.31295666,5.73231426 7.41524882,5.99635153 7.42105263,6.31539656 C7.42105263,6.62894082 7.31948595,6.89140644 7.11562711,7.10279342 Z M5.21052632,14.0526316 L7.42105263,14.0526316 L7.42105263,7.42105263 L5.21052632,7.42105263 L5.21052632,14.0526316 Z M16.5781579,3.79026316 C16.052114,3.26342105 15.4175088,3 14.6751404,3 L5.69407895,3 C4.95250877,3 4.31790351,3.26342105 3.7910614,3.79026316 C3.26342105,4.31710526 3,4.95171053 3,5.69407895 L3,14.6743421 C3,15.4159123 3.26342105,16.0505175 3.7910614,16.5773596 C4.31790351,17.105 4.95250877,17.3684211 5.69407895,17.3684211 L14.6751404,17.3684211 C15.4167105,17.3684211 16.052114,17.105 16.5781579,16.5773596 C17.105,16.0505175 17.3684211,15.4159123 17.3684211,14.6743421 L17.3684211,5.69407895 C17.3684211,4.95171053 17.105,4.31710526 16.5781579,3.79026316 Z" id="Fill-24"></path>
        </g>
    </g>
</svg>