<?xml version="1.0" encoding="UTF-8"?>
<svg width="20px" height="20px" viewBox="0 0 20 20" version="1.1" xmlns="http://www.w3.org/2000/svg" xmlns:xlink="http://www.w3.org/1999/xlink">
    <!-- Generator: Sketch 52.6 (67491) - http://www.bohemiancoding.com/sketch -->
    <title>medium</title>
    <desc>Created with Sketch.</desc>
    <g id="medium" stroke="none" stroke-width="1" fill="none" fill-rule="evenodd">
        <g fill="#FFFFFF">
            <g fill-opacity="0" id="Fill-14" opacity="0">
                <polygon points="8.86402063e-13 19.9445983 19.9445983 19.9445983 19.9445983 -2.84217094e-14 8.86402063e-13 -2.84217094e-14"></polygon>
            </g>
            <path d="M4.86116343,6.53686427 C4.8779169,6.35975623 4.81170083,6.18663712 4.6792687,6.06696953 L3.33899169,4.45225485 L3.33899169,4.21052632 L7.50262604,4.21052632 L10.7200886,11.2685208 L13.5498283,4.21052632 L17.5180055,4.21052632 L17.5180055,4.45225485 L16.37159,5.55160111 C16.2734626,5.6265928 16.224,5.75104709 16.2447424,5.87310803 L16.2447424,13.9490748 C16.224,14.0711357 16.2734626,14.19559 16.37159,14.2705817 L17.4908809,15.369928 L17.4908809,15.6108587 L11.8593241,15.6108587 L11.8593241,15.369928 L13.0200997,14.2442548 C13.133385,14.1301717 13.133385,14.0966648 13.133385,13.9227479 L13.133385,7.39448199 L9.90874238,15.5845319 L9.47315235,15.5845319 L5.71878116,7.39448199 L5.71878116,12.8832355 C5.68766759,13.113795 5.76425485,13.3467479 5.92700277,13.5134848 L7.43561219,15.3428033 L7.43561219,15.5845319 L3.15789474,15.5845319 L3.15789474,15.3428033 L4.66650416,13.5134848 C4.82765651,13.3459501 4.90025485,13.1121994 4.86116343,12.8832355 L4.86116343,6.53686427 Z" id="Fill-16"></path>
        </g>
    </g>
</svg>