<?xml version="1.0" encoding="UTF-8"?>
<svg width="20px" height="20px" viewBox="0 0 20 20" version="1.1" xmlns="http://www.w3.org/2000/svg" xmlns:xlink="http://www.w3.org/1999/xlink">
    <!-- Generator: Sketch 52.6 (67491) - http://www.bohemiancoding.com/sketch -->
    <title>redit</title>
    <desc>Created with Sketch.</desc>
    <g id="redit" stroke="none" stroke-width="1" fill="none" fill-rule="evenodd">
        <g id="reddit" fill="#FFFFFF">
            <polygon id="Fill-18" fill-opacity="0" opacity="0" points="0 20 20 20 20 0 0 0"></polygon>
            <path d="M12.1054444,11.9706667 C11.4738889,11.9706667 10.959,11.4565556 10.959,10.8242222 C10.959,10.1934444 11.4738889,9.67933333 12.1054444,9.67933333 C12.737,9.67933333 13.2511111,10.1934444 13.2511111,10.8242222 C13.2511111,11.4565556 12.737,11.9706667 12.1054444,11.9706667 M10.0738889,14.4502222 C9.18488889,14.4502222 8.31844444,14.199 7.56866667,13.723 L8.00888889,13.0315556 C8.62722222,13.4251111 9.34355556,13.6335556 10.077,13.6335556 C10.8088889,13.6335556 11.5228889,13.4251111 12.1435556,13.0315556 L12.5837778,13.723 C11.8293333,14.199 10.9621111,14.4502222 10.0738889,14.4502222 M6.92077778,10.8242222 C6.92077778,10.1934444 7.43488889,9.67933333 8.06722222,9.67933333 C8.698,9.67933333 9.21211111,10.1934444 9.21211111,10.8242222 C9.21211111,11.4565556 8.698,11.9706667 8.06722222,11.9706667 C7.43488889,11.9706667 6.92077778,11.4565556 6.92077778,10.8242222 M17,9.67622222 C17,8.59044444 16.1164444,7.71 15.0337778,7.71 C14.6075556,7.71 14.1992222,7.84688889 13.864,8.09655556 C12.9088889,7.61433333 11.7741111,7.32422222 10.574,7.25577778 L11.3587778,5.08811111 L13.2557778,5.561 C13.297,6.34033333 13.9456667,6.95866667 14.7327778,6.95866667 C15.5478889,6.95866667 16.2121111,6.29366667 16.2121111,5.47855556 C16.2121111,4.66422222 15.5478889,4 14.7327778,4 C14.1782222,4 13.6936667,4.30644444 13.4401111,4.75988889 L10.8392222,4.10966667 L9.70755556,7.24022222 C8.40244444,7.27833333 7.16655556,7.57388889 6.136,8.09033333 C5.8,7.84144444 5.39477778,7.70766667 4.96855556,7.70766667 C3.88355556,7.71 3,8.59355556 3,9.67622222 C3,10.2066667 3.21855556,10.7184444 3.59344444,11.084 C3.56855556,11.2411111 3.55533333,11.399 3.55533333,11.5576667 C3.55533333,12.7468889 4.24911111,13.8521111 5.50755556,14.6664444 C6.71,15.4488889 8.30444444,15.8774444 9.99455556,15.8774444 C11.6838889,15.8774444 13.276,15.4488889 14.4815556,14.6664444 C15.7392222,13.849 16.4337778,12.7445556 16.4337778,11.5576667 C16.4337778,11.4021111 16.4205556,11.2457778 16.3987778,11.0902222 C16.7783333,10.7262222 17,10.2121111 17,9.67622222" id="Fill-20"></path>
        </g>
    </g>
</svg>