<?xml version="1.0" encoding="UTF-8"?>
<svg width="26px" height="20px" viewBox="0 0 26 20" version="1.1" xmlns="http://www.w3.org/2000/svg" xmlns:xlink="http://www.w3.org/1999/xlink">
    <!-- Generator: Sketch 52.6 (67491) - http://www.bohemiancoding.com/sketch -->
    <title>twitter-emurgo</title>
    <desc>Created with Sketch.</desc>
    <defs>
        <polygon id="path-1" points="0.00185328185 0.00383011583 6.07042472 0.00383011583 6.07042472 3.14872587 0.00185328185 3.14872587"></polygon>
    </defs>
    <g id="twitter-emurgo" stroke="none" stroke-width="1" fill="none" fill-rule="evenodd">
        <g id="twitter-copy">
            <polygon id="Fill-6" fill-opacity="0" fill="#FFFFFF" opacity="0" points="0 20 26 20 26 0 0 0"></polygon>
            <g id="twitter" transform="translate(2.000000, 0.000000)">
                <path d="M14.6312758,5.82764444 C14.1295495,6.06284444 13.5906863,6.22204444 13.0245389,6.29324444 C13.6028126,5.92764444 14.0454232,5.34764444 14.2546021,4.65964444 C13.7127074,4.99804444 13.1139705,5.24444444 12.4758232,5.37724444 C11.9650021,4.80204444 11.2389389,4.44444444 10.4340547,4.44444444 C8.88870737,4.44444444 7.63514947,5.76684444 7.63514947,7.39724444 C7.63514947,7.62844444 7.66016,7.85404444 7.70714947,8.07084444 C5.38192842,7.94684444 3.31969684,6.77084444 1.93957053,4.98364444 C1.69856,5.41884444 1.56138105,5.92684444 1.56138105,6.46844444 C1.56138105,7.49324444 2.05552842,8.39804444 2.80584421,8.92684444 C2.34731789,8.91084444 1.91607579,8.77804444 1.53864421,8.55644444 L1.53864421,8.59324444 C1.53864421,10.0236444 2.50344421,11.2180444 3.78352842,11.4892444 C3.54858105,11.5564444 3.30150737,11.5932444 3.04533895,11.5932444 C2.86496,11.5932444 2.68988632,11.5748444 2.51860211,11.5388444 C2.87481263,12.7124444 3.90858105,13.5668444 5.13258105,13.5900444 C4.17460211,14.3812444 2.96727579,14.8524444 1.65687579,14.8524444 C1.43102316,14.8524444 1.20820211,14.8380444 0.989170526,14.8116444 C2.22832842,15.6508444 3.69864421,16.1412444 5.27885474,16.1412444 C10.4272337,16.1412444 13.2412968,11.6404444 13.2412968,7.73644444 L13.2314442,7.35404444 C13.7816758,6.94044444 14.2576337,6.41964444 14.6312758,5.82764444" id="Fill-8" fill="#FFFFFF"></path>
                <g id="Emurgo_Logo_White" transform="translate(15.000000, 0.000000)">
                    <path d="M5.51728185,2.20345946 C5.10943629,2.20352124 4.77877992,1.87295753 4.77871815,1.46511197 C4.77865637,1.05726641 5.10922008,0.726610039 5.51706564,0.726548263 C5.9249112,0.726486486 6.25556757,1.05705019 6.25562934,1.46489575 C6.25569112,1.87271042 5.92512741,2.20339768 5.51728185,2.20345946" id="Fill-2" fill="#FFFFFE"></path>
                    <path d="M6.71592278,3.7837529 C6.34217761,3.78381467 6.03913514,3.48089575 6.03910425,3.10711969 C6.03904247,2.73340541 6.34199228,2.43033205 6.71573745,2.43030116 C7.08948263,2.43023938 7.3925251,2.73318919 7.39258687,3.10693436 C7.39264865,3.48067954 7.08969884,3.78372201 6.71592278,3.7837529" id="Fill-3" fill="#FFFFFE"></path>
                    <path d="M6.71589189,5.83616988 C6.37621622,5.83623166 6.10084942,5.56089575 6.10078764,5.22125097 C6.10075676,4.88157529 6.37606178,4.60617761 6.71573745,4.60614672 C7.05538224,4.60608494 7.33077992,4.88142085 7.33081081,5.22106564 C7.33087259,5.56074131 7.05556757,5.83610811 6.71589189,5.83616988" id="Fill-4" fill="#FFFFFE"></path>
                    <g id="Group-10" transform="translate(0.000000, 4.849421)">
                        <mask id="mask-2" fill="white">
                            <use xlink:href="#path-1"></use>
                        </mask>
                        <g id="Clip-6"></g>
                        <path d="M5.51722008,2.56701158 C5.21164479,2.56704247 4.96389189,2.31935135 4.96383012,2.01380695 C4.96379923,1.70820077 5.21145946,1.46047876 5.51706564,1.46041699 C5.82264093,1.4603861 6.07039382,1.70804633 6.07042471,2.01362162 C6.07048649,2.31919691 5.82276448,2.56694981 5.51722008,2.56701158" id="Fill-5" fill="#FFFFFE" mask="url(#mask-2)"></path>
                        <path d="M3.54211583,3.15057915 C3.27061004,3.15061004 3.05050193,2.93056371 3.05047104,2.6590888 C3.05044015,2.38758301 3.27048649,2.1674749 3.54196139,2.16744402 C3.81343629,2.16741313 4.0335444,2.38745946 4.03360618,2.65893436 C4.03363707,2.93044015 3.81359073,3.15051737 3.54211583,3.15057915" id="Fill-7" fill="#FFFFFE" mask="url(#mask-2)"></path>
                        <path d="M1.56701158,2.44370656 C1.32960618,2.44373745 1.13714286,2.25130502 1.13708108,2.0139305 C1.13705019,1.7765251 1.32948263,1.58406178 1.56685714,1.58403089 C1.80426255,1.584 1.99672587,1.77640154 1.99675676,2.01380695 C1.99681853,2.25118147 1.8043861,2.44367568 1.56701158,2.44370656" id="Fill-8" fill="#FFFFFE" mask="url(#mask-2)"></path>
                        <path d="M0.36815444,0.74007722 C0.164880309,0.740108108 3.08880309e-05,0.575320463 0,0.372015444 C-3.08880309e-05,0.168710425 0.164756757,0.00386100386 0.368061776,0.00383011583 C0.571366795,0.00383011583 0.736185328,0.168586873 0.736216216,0.37192278 C0.736247104,0.575227799 0.571459459,0.740046332 0.36815444,0.74007722" id="Fill-9" fill="#FFFFFE" mask="url(#mask-2)"></path>
                    </g>
                    <path d="M0.367969112,3.41365251 C0.198733591,3.4136834 0.0615598456,3.27654054 0.0615289575,3.10733591 C0.0614980695,2.93813127 0.198640927,2.80092664 0.367876448,2.80089575 C0.537081081,2.80086486 0.674285714,2.93803861 0.674285714,3.10724324 C0.674316602,3.27644788 0.537173745,3.41365251 0.367969112,3.41365251" id="Fill-11" fill="#FFFFFE"></path>
                    <g id="Group-15" transform="translate(1.297297, 0.000000)" fill="#FFFFFE">
                        <path d="M0.269158301,1.70983784 C0.134054054,1.70983784 0.0244942085,1.60033977 0.0244633205,1.46520463 C0.0244324324,1.3300695 0.13396139,1.22054054 0.269096525,1.22050965 C0.404200772,1.22047876 0.513760618,1.33000772 0.513791506,1.46514286 C0.513822394,1.6002471 0.404293436,1.70980695 0.269158301,1.70983784" id="Fill-12"></path>
                        <path d="M2.24497297,1.619861 C1.80302703,1.61992278 1.44472587,1.2616834 1.44466409,0.819737452 C1.44460232,0.377822394 1.80281081,0.0195212355 2.24472587,0.0194594595 C2.68667181,0.0193976834 3.04497297,0.377606178 3.04503475,0.819552124 C3.04509653,1.26146718 2.68691892,1.61976834 2.24497297,1.619861" id="Fill-14"></path>
                    </g>
                    <path d="M4.57337452,3.26900386 C4.34733591,3.26903475 4.16410811,3.08586873 4.16407722,2.85983012 C4.16404633,2.63382239 4.34724324,2.45056371 4.57325097,2.45053282 C4.79925869,2.45050193 4.98251737,2.63369884 4.98254826,2.85970656 C4.98257915,3.08574517 4.79938224,3.26897297 4.57337452,3.26900386" id="Fill-16" fill="#FFFFFE"></path>
                    <path d="M5.23765251,4.14480309 C5.03051737,4.14483398 4.86257915,3.97692664 4.86254826,3.76979151 C4.86251737,3.56268726 5.03042471,3.39474903 5.23752896,3.39471815 C5.44466409,3.39468726 5.61260232,3.56256371 5.6126332,3.76969884 C5.61266409,3.97680309 5.44475676,4.1447722 5.23765251,4.14480309" id="Fill-17" fill="#FFFFFE"></path>
                    <path d="M5.23762162,5.28216216 C5.04938996,5.28219305 4.8967722,5.12963707 4.89674131,4.94140541 C4.89671042,4.75317375 5.04926641,4.60055598 5.23752896,4.6005251 C5.42576062,4.60049421 5.57837838,4.75305019 5.57840927,4.94131274 C5.57844015,5.1295444 5.42585328,5.28213127 5.23762162,5.28216216" id="Fill-18" fill="#FFFFFE"></path>
                    <path d="M4.57334363,6.1579305 C4.40398456,6.15796139 4.26668726,6.02066409 4.26668726,5.85133591 C4.26665637,5.68200772 4.40389189,5.54471042 4.57325097,5.54467954 C4.74257915,5.54464865 4.87987645,5.68191506 4.87990734,5.85124324 C4.87993822,6.02057143 4.74267181,6.15789961 4.57334363,6.1579305" id="Fill-19" fill="#FFFFFE"></path>
                    <path d="M3.47876448,6.48132819 C3.32833977,6.48132819 3.20633205,6.35941313 3.20630116,6.20895753 C3.20630116,6.05850193 3.3282471,5.9365251 3.4787027,5.9365251 C3.62912741,5.93649421 3.75113514,6.05844015 3.75113514,6.20886486 C3.75116602,6.35932046 3.62922008,6.4812973 3.47876448,6.48132819" id="Fill-20" fill="#FFFFFE"></path>
                    <path d="M2.38421622,6.08960618 C2.25266409,6.08960618 2.14597683,5.98298069 2.14597683,5.85142857 C2.14594595,5.71987645 2.25257143,5.61318919 2.38415444,5.61318919 C2.51570656,5.6131583 2.62236293,5.71978378 2.62239382,5.8513668 C2.62239382,5.98291892 2.51576834,6.08957529 2.38421622,6.08960618" id="Fill-21" fill="#FFFFFE"></path>
                    <path d="M1.71984556,5.14548263 C1.60719691,5.14548263 1.51583012,5.05417761 1.51583012,4.94152896 C1.51579923,4.82884942 1.60713514,4.73748263 1.71978378,4.73748263 C1.83246332,4.73745174 1.92379923,4.82878764 1.92383012,4.94146718 C1.92383012,5.05411583 1.83249421,5.14545174 1.71984556,5.14548263" id="Fill-22" fill="#FFFFFE"></path>
                    <path d="M1.7197529,3.93967568 C1.62594595,3.93967568 1.5499305,3.86369112 1.5499305,3.76991506 C1.54989961,3.676139 1.62591506,3.60012355 1.71969112,3.60009266 C1.81346718,3.60009266 1.88948263,3.67607722 1.88951351,3.76985328 C1.88951351,3.86362934 1.81349807,3.93967568 1.7197529,3.93967568" id="Fill-23" fill="#FFFFFE"></path>
                    <path d="M2.38393822,2.99545946 C2.30903475,2.99545946 2.24830888,2.93476448 2.24830888,2.85989189 C2.24830888,2.78498842 2.30900386,2.72429344 2.38387645,2.72429344 C2.45874903,2.72429344 2.5194749,2.78498842 2.5194749,2.85983012 C2.51950579,2.93473359 2.45881081,2.99545946 2.38393822,2.99545946" id="Fill-24" fill="#FFFFFE"></path>
                    <path d="M3.47885714,2.94560618 C3.23394595,2.94563707 3.03539768,2.74711969 3.03533591,2.50220849 C3.03530502,2.2572973 3.23382239,2.05871815 3.47873359,2.05868726 C3.72364479,2.05865637 3.92222394,2.25717375 3.92225483,2.50205405 C3.92228571,2.74699614 3.72376834,2.9455444 3.47885714,2.94560618" id="Fill-25" fill="#FFFFFE"></path>
                    <path d="M3.95289575,3.88376834 C3.85099614,3.88376834 3.76837066,3.80117375 3.76837066,3.69927413 C3.76833977,3.59737452 3.85093436,3.51477992 3.95283398,3.51477992 C4.05473359,3.51474903 4.13735907,3.59731274 4.13735907,3.69921236 C4.13738996,3.80114286 4.05479537,3.88373745 3.95289575,3.88376834" id="Fill-26" fill="#FFFFFE"></path>
                    <path d="M4.25235521,4.27861004 C4.15898069,4.27861004 4.08327413,4.20293436 4.08327413,4.10952896 C4.08324324,4.01615444 4.15894981,3.94044788 4.25232432,3.94044788 C4.34569884,3.94041699 4.42140541,4.01612355 4.42143629,4.10946718 C4.42143629,4.20287259 4.34576062,4.27857915 4.25235521,4.27861004" id="Fill-27" fill="#FFFFFE"></path>
                    <path d="M4.25235521,4.79138224 C4.16750579,4.79141313 4.09868726,4.72259459 4.09868726,4.63774517 C4.09865637,4.55286486 4.16744402,4.48404633 4.25232432,4.48404633 C4.33717375,4.48404633 4.40599228,4.55283398 4.40599228,4.6376834 C4.40599228,4.72256371 4.33723552,4.79138224 4.25235521,4.79138224" id="Fill-28" fill="#FFFFFE"></path>
                    <path d="M3.95286486,5.18619305 C3.87654054,5.18622394 3.81461004,5.12432432 3.81461004,5.04796911 C3.81461004,4.97164479 3.87647876,4.90974517 3.95283398,4.90974517 C4.02918919,4.90971429 4.0910888,4.9716139 4.0910888,5.04793822 C4.0910888,5.12429344 4.02922008,5.18619305 3.95286486,5.18619305" id="Fill-29" fill="#FFFFFE"></path>
                    <path d="M3.45939768,5.33201544 C3.39156757,5.33201544 3.33658687,5.27703475 3.33655598,5.20920463 C3.33655598,5.14137452 3.39153668,5.08636293 3.4593668,5.08636293 C3.52719691,5.08636293 3.58217761,5.14134363 3.58217761,5.20917375 C3.58220849,5.27700386 3.5272278,5.33201544 3.45939768,5.33201544" id="Fill-30" fill="#FFFFFE"></path>
                    <path d="M2.9659305,5.15539768 C2.90659459,5.15539768 2.85853282,5.10733591 2.85850193,5.048 C2.85850193,4.98869498 2.90656371,4.9406332 2.96589961,4.9406332 C3.02520463,4.94060232 3.0732973,4.98866409 3.0732973,5.04796911 C3.0732973,5.10730502 3.02523552,5.15539768 2.9659305,5.15539768" id="Fill-31" fill="#FFFFFE"></path>
                    <path d="M2.66640927,4.72972973 C2.61559846,4.72972973 2.57442471,4.68858687 2.57442471,4.63780695 C2.57442471,4.58699614 2.61559846,4.54579151 2.66637838,4.54579151 C2.71718919,4.54579151 2.75836293,4.58696525 2.75836293,4.63777606 C2.75836293,4.68855598 2.71718919,4.72972973 2.66640927,4.72972973" id="Fill-32" fill="#FFFFFE"></path>
                    <path d="M2.66634749,4.18613127 C2.62406178,4.18613127 2.58980695,4.15184556 2.58980695,4.10959073 C2.58977606,4.06730502 2.62403089,4.03305019 2.66634749,4.03301931 C2.70860232,4.03301931 2.74288803,4.06727413 2.74288803,4.10955985 C2.74288803,4.15184556 2.7086332,4.18613127 2.66634749,4.18613127" id="Fill-33" fill="#FFFFFE"></path>
                    <path d="M2.96577606,3.76043243 C2.93204633,3.76043243 2.90464865,3.73306564 2.90464865,3.69930502 C2.90464865,3.6655444 2.93201544,3.63817761 2.96577606,3.63817761 C2.99953668,3.63817761 3.02690347,3.66551351 3.02690347,3.69927413 C3.02690347,3.73306564 2.99956757,3.76043243 2.96577606,3.76043243" id="Fill-34" fill="#FFFFFE"></path>
                    <path d="M3.45942857,3.73794595 C3.34903475,3.73794595 3.25949035,3.64846332 3.25949035,3.53803861 C3.25945946,3.4276139 3.34897297,3.33813127 3.4593668,3.33810039 C3.56979151,3.3380695 3.65930502,3.42755212 3.65933591,3.53797683 C3.65933591,3.64840154 3.56985328,3.73791506 3.45942857,3.73794595" id="Fill-35" fill="#FFFFFE"></path>
                </g>
            </g>
        </g>
    </g>
</svg>