<?xml version="1.0" encoding="UTF-8"?>
<svg width="20px" height="20px" viewBox="0 0 20 20" version="1.1" xmlns="http://www.w3.org/2000/svg" xmlns:xlink="http://www.w3.org/1999/xlink">
    <!-- Generator: Sketch 52.6 (67491) - http://www.bohemiancoding.com/sketch -->
    <title>youtube</title>
    <desc>Created with Sketch.</desc>
    <g id="youtube" stroke="none" stroke-width="1" fill="none" fill-rule="evenodd">
        <g fill="#FFFFFF">
            <polygon id="Fill-2" fill-opacity="0" opacity="0" points="-3.55271368e-13 19.0989474 19.0989474 19.0989474 19.0989474 -1.95399252e-14 -3.55271368e-13 -1.95399252e-14"></polygon>
            <path d="M12.1961432,10.3835158 L9.19124211,11.9544042 C9.12439579,11.9894189 9.05038737,12.0061305 8.97717474,12.0061305 C8.89441263,12.0061305 8.81085474,11.9838484 8.73764211,11.9392842 C8.59917474,11.8557263 8.51482105,11.7061179 8.51482105,11.5445726 L8.51482105,8.41234526 C8.51482105,8.25159579 8.59837895,8.10198737 8.73684632,8.01763368 C8.87531368,7.93407579 9.04640842,7.92850526 9.19044632,8.00330947 L12.1953474,9.56385263 C12.3473432,9.64263579 12.4444295,9.80099789 12.4444295,9.97288842 C12.4444295,10.1447789 12.3489347,10.3031411 12.1961432,10.3835158 M16.7655663,5.86581895 C16.2490989,5.25146947 15.2949474,5 13.4717937,5 L6.85321263,5 C4.98788211,5 4.01781474,5.26738526 3.50214316,5.92232 C3,6.55974737 3,7.49957474 3,8.80069053 L3,11.2811663 C3,13.8014316 3.59525053,15.0810611 6.85321263,15.0810611 L13.4717937,15.0810611 C15.0522316,15.0810611 15.9276,14.8598316 16.4949979,14.3171032 C17.07672,13.7608463 17.3242105,12.8536463 17.3242105,11.2811663 L17.3242105,8.80069053 C17.3242105,7.42874947 17.2860126,6.48335158 16.7655663,5.86581895" id="Fill-4"></path>
        </g>
    </g>
</svg>