<?xml version="1.0" encoding="UTF-8"?>
<svg width="822px" height="345px" viewBox="0 0 822 345" version="1.1" xmlns="http://www.w3.org/2000/svg" xmlns:xlink="http://www.w3.org/1999/xlink">
    <!-- Generator: Sketch 52.6 (67491) - http://www.bohemiancoding.com/sketch -->
    <desc>Created with Sketch.</desc>
    <defs>
        <linearGradient x1="100%" y1="0%" x2="0.397398844%" y2="99.6026012%" id="error-screen-linearGradient-1">
            <stop stop-color="#B1E1F2" offset="0%"></stop>
            <stop stop-color="#92A7FC" offset="33.9211525%"></stop>
            <stop stop-color="#4D20C0" offset="100%"></stop>
        </linearGradient>
        <linearGradient x1="104.274606%" y1="-8.2626312%" x2="0%" y2="81.3303366%" id="error-screen-linearGradient-2">
            <stop stop-color="#B1E1F2" offset="0%"></stop>
            <stop stop-color="#92A7FC" offset="34.9733562%"></stop>
            <stop stop-color="#4D20C0" offset="100%"></stop>
        </linearGradient>
        <path d="M49.2265416,130.088094 C57.3805569,110.029365 69.7138902,100 86.2265416,100 C102.739193,100 115.359705,110.029365 124.088077,130.088094 C124.930001,135.435807 122.06981,137.314848 115.507504,135.725216 C105.664045,133.340767 87.9065859,127.811424 60.2265416,135.725216 C51.6790033,137.317923 48.0123366,135.438882 49.2265416,130.088094 Z" id="error-screen-path-3"></path>
        <polygon id="error-screen-path-5" points="0 0 122 0 122 30 0 30"></polygon>
        <polygon id="error-screen-path-7" points="0 0 122 0 122 30 0 30"></polygon>
        <polygon id="error-screen-path-9" points="0 0 62 0 62 15 0 15"></polygon>
        <path d="M16.0004963,0 L14.9215881,4.49677419 C13.3846154,9.48188586 9.48238213,13.3841191 4.49727047,14.9215881 L0,15.9995037 L4.49727047,17.0789082 C9.48238213,18.6153846 13.3846154,22.5181141 14.9215881,27.5027295 L16.0004963,32 L17.0784119,27.5027295 C18.6158809,22.5181141 22.5181141,18.6153846 27.5032258,17.0789082 L32,15.9995037 L27.5032258,14.9215881 C22.5181141,13.3841191 18.6158809,9.48188586 17.0784119,4.49677419 L16.0004963,0 Z" id="error-screen-path-11"></path>
        <path d="M8.50026365,0 L7.92709367,2.38891129 C7.11057692,5.03725186 5.03751551,7.11031328 2.38917494,7.92709367 L0,8.49973635 L2.38917494,9.07316998 C5.03751551,9.88942308 7.11057692,11.9627481 7.92709367,14.6108251 L8.50026365,17 L9.07290633,14.6108251 C9.88968672,11.9627481 11.9627481,9.88942308 14.6110887,9.07316998 L17,8.49973635 L14.6110887,7.92709367 C11.9627481,7.11031328 9.88968672,5.03725186 9.07290633,2.38891129 L8.50026365,0 Z" id="error-screen-path-13"></path>
        <path d="M8.50026365,0 L7.92709367,2.38891129 C7.11057692,5.03725186 5.03751551,7.11031328 2.38917494,7.92709367 L0,8.49973635 L2.38917494,9.07316998 C5.03751551,9.88942308 7.11057692,11.9627481 7.92709367,14.6108251 L8.50026365,17 L9.07290633,14.6108251 C9.88968672,11.9627481 11.9627481,9.88942308 14.6110887,9.07316998 L17,8.49973635 L14.6110887,7.92709367 C11.9627481,7.11031328 9.88968672,5.03725186 9.07290633,2.38891129 L8.50026365,0 Z" id="error-screen-path-15"></path>
        <path d="M16.0004963,0 L14.9215881,4.49677419 C13.3846154,9.48188586 9.48238213,13.3841191 4.49727047,14.9215881 L0,15.9995037 L4.49727047,17.0789082 C9.48238213,18.6153846 13.3846154,22.5181141 14.9215881,27.5027295 L16.0004963,32 L17.0784119,27.5027295 C18.6158809,22.5181141 22.5181141,18.6153846 27.5032258,17.0789082 L32,15.9995037 L27.5032258,14.9215881 C22.5181141,13.3841191 18.6158809,9.48188586 17.0784119,4.49677419 L16.0004963,0 Z" id="error-screen-path-17"></path>
    </defs>
    <g id="Search-error" stroke="none" stroke-width="1" fill="none" fill-rule="evenodd">
        <g transform="translate(3.000000, 3.000000)">
            <path d="M354.071249,0.102334268 C306.191618,1.90546407 281.433905,36.7270865 233.742257,47.0437451 C218.633887,50.3129839 198.207304,48.8182213 178.186765,47.3248233 C155.749788,45.6499524 133.820708,43.9757638 120.454086,49.0037875 C80.9749059,63.8538542 88.1442386,104.151042 91.0063664,117.579345 C100.822501,163.622943 39.0888589,147.388635 9.53518515,186.15422 C3.24424609,194.405773 0.0471666625,204.740852 0,215.889829 L0,216.394678 C0.211908194,266.073872 62.7220911,331.367228 192.516543,299.793695 C242.589766,287.613189 298.117232,279.219732 357.015406,278.839048 C396.287463,278.585259 435.165097,293.75188 479.671286,308.918501 C523.66958,323.911836 573.159029,338.90517 633.980099,339 L635.153797,339 C652.230179,338.972711 670.210931,337.76926 689.197906,335.061495 C817.413984,316.779137 829.613744,237.856903 808.950644,217.503982 C782.656938,191.603861 658.90187,167.032721 744.166208,128.355825 C829.430545,89.6775656 780.351241,14.3622734 687.234679,22.5531082 C594.117433,30.7432607 580.983227,74.1336725 471.03842,52.2921286 C434.191003,44.9718173 423.361127,-0.00409337071 359.429792,0 C357.686676,0 355.89571,0.0334291941 354.071249,0.102334268" id="bg" fill-opacity="0.1" fill="url(#error-screen-linearGradient-1)"></path>
            <g id="sad-planet" transform="translate(338.000000, 66.000000)">
                <circle id="Oval" fill="url(#error-screen-linearGradient-2)" cx="86" cy="86" r="86"></circle>
                <path d="M103,69 C105.45103,72.7091728 112.136888,75.370491 120.000485,75.370491 C127.861641,75.370491 134.54579,72.7108241 136.998687,69.0034524 C136.916687,78.3219724 129.337241,85.8507367 119.999358,85.8507367 C110.660322,85.8507367 103.080158,78.3201127 103,69 Z" id="Combined-Shape-Copy" fill="#4D20C0"></path>
                <path d="M36,69 C38.4510303,72.7091728 45.1368883,75.370491 53.0004847,75.370491 C60.8616412,75.370491 67.54579,72.7108241 69.9986867,69.0034524 C69.9166869,78.3219724 62.3372412,85.8507367 52.9993583,85.8507367 C43.6603223,85.8507367 36.0801578,78.3201127 36,69 Z" id="Combined-Shape-Copy-2" fill="#4D20C0"></path>
                <mask id="mask-4" fill="white">
                    <use xlink:href="#error-screen-path-3"></use>
                </mask>
                <use id="Path-15" fill="#4D20C0" xlink:href="#error-screen-path-3"></use>
                <path d="M50.2265416,105.088094 C58.3805569,85.0293647 70.7138902,75 87.2265416,75 C103.739193,75 116.359705,85.0293647 125.088077,105.088094 C125.930001,110.435807 123.06981,112.314848 116.507504,110.725216 C106.664045,108.340767 88.9065859,102.811424 61.2265416,110.725216 C52.6790033,112.317923 49.0123366,110.438882 50.2265416,105.088094 Z" id="Path-15-Copy" fill="#FFFFFF" mask="url(#mask-4)" transform="translate(87.615839, 93.136611) rotate(1.000000) translate(-87.615839, -93.136611) "></path>
            </g>
            <g id="planet" transform="translate(547.000000, 206.000000)">
                <circle id="Oval-Copy-4" fill="url(#error-screen-linearGradient-1)" cx="60" cy="37" r="37"></circle>
                <g id="Group-3" transform="translate(0.000000, 26.000000)">
                    <mask id="mask-6" fill="white">
                        <use xlink:href="#error-screen-path-5"></use>
                    </mask>
                    <g id="Clip-2"></g>
                    <path d="M95.3012586,-0.0528080957 C95.4774889,0.397325595 95.9778789,2.69201688 96.350341,4.09272854 C100.318466,4.75203277 103.738785,5.81166763 104.916972,7.07187438 C105.282528,7.46302644 105.495557,7.88128805 105.542546,8.32603956 C105.737409,10.169334 103.066672,12.2017756 98.3389106,14.1674502 C90.5401766,17.410217 77.142952,20.4714273 61.771123,22.2017911 C46.0799764,23.9684042 32.1083706,23.9233249 23.8750224,22.4022468 C19.152816,21.529939 16.3178408,20.1721379 16.1295831,18.3922023 C16.0168386,17.3256352 16.863548,16.1957092 18.5128298,15.0519961 C19.6725515,14.2478494 21.1801561,13.5275504 23.0792472,12.7269667 C23.0191969,12.0874767 23.0191969,8.70696745 23.0792472,8.32603956 C8.34995656,12.4612527 -0.451208842,17.3479425 0.0168833407,21.7742347 C0.487677787,26.2271718 10.7378157,29.0671681 26.1389192,29.8070264 C36.4019679,30.3001104 48.9520327,29.8607808 62.4205671,28.344505 C75.6667652,26.8533249 87.8275539,24.542507 97.6607925,21.8361994 C112.829802,17.6614838 122.459169,12.5453698 121.98312,8.0433257 C121.510074,3.56885593 110.826816,0.670319757 95.3012586,-0.0528080957 Z" id="Fill-1" fill="#FFFFFF" mask="url(#mask-6)"></path>
                </g>
            </g>
            <g id="planet-copy" transform="translate(547.000000, 206.000000)">
                <circle id="Oval-Copy-4" fill="url(#error-screen-linearGradient-1)" cx="60" cy="37" r="37"></circle>
                <g id="Group-3" transform="translate(0.000000, 26.000000)">
                    <mask id="mask-8" fill="white">
                        <use xlink:href="#error-screen-path-7"></use>
                    </mask>
                    <g id="Clip-2"></g>
                    <path d="M95.3012586,-0.0528080957 C95.4774889,0.397325595 95.9778789,2.69201688 96.350341,4.09272854 C100.318466,4.75203277 103.738785,5.81166763 104.916972,7.07187438 C105.282528,7.46302644 105.495557,7.88128805 105.542546,8.32603956 C105.737409,10.169334 103.066672,12.2017756 98.3389106,14.1674502 C90.5401766,17.410217 77.142952,20.4714273 61.771123,22.2017911 C46.0799764,23.9684042 32.1083706,23.9233249 23.8750224,22.4022468 C19.152816,21.529939 16.3178408,20.1721379 16.1295831,18.3922023 C16.0168386,17.3256352 16.863548,16.1957092 18.5128298,15.0519961 C19.6725515,14.2478494 21.1801561,13.5275504 23.0792472,12.7269667 C23.0191969,12.0874767 23.0191969,8.70696745 23.0792472,8.32603956 C8.34995656,12.4612527 -0.451208842,17.3479425 0.0168833407,21.7742347 C0.487677787,26.2271718 10.7378157,29.0671681 26.1389192,29.8070264 C36.4019679,30.3001104 48.9520327,29.8607808 62.4205671,28.344505 C75.6667652,26.8533249 87.8275539,24.542507 97.6607925,21.8361994 C112.829802,17.6614838 122.459169,12.5453698 121.98312,8.0433257 C121.510074,3.56885593 110.826816,0.670319757 95.3012586,-0.0528080957 Z" id="Fill-1" fill="#FFFFFF" mask="url(#mask-8)"></path>
                </g>
            </g>
            <g id="planet-copy-2" transform="translate(208.596452, 128.050975) scale(-1, 1) rotate(-11.000000) translate(-208.596452, -128.050975) translate(177.596452, 109.550975)">
                <ellipse id="Oval-Copy-4" fill="url(#error-screen-linearGradient-1)" cx="30" cy="18.5" rx="19" ry="18.5"></ellipse>
                <g id="Group-3" transform="translate(0.000000, 13.000000)">
                    <mask id="mask-10" fill="white">
                        <use xlink:href="#error-screen-path-9"></use>
                    </mask>
                    <g id="Clip-2"></g>
                    <path d="M48.4317872,-0.0264040478 C48.5213468,0.198662797 48.7756434,1.34600844 48.9649274,2.04636427 C50.9815153,2.37601639 52.7197103,2.90583382 53.3184611,3.53593719 C53.5042356,3.73151322 53.612496,3.94064402 53.6363759,4.16301978 C53.7354047,5.08466699 52.3781446,6.10088779 49.975512,7.08372512 C46.0122209,8.70510851 39.2037953,10.2357136 31.3918822,11.1008955 C23.4176929,11.9842021 16.3173687,11.9616624 12.1332081,11.2011234 C9.73339831,10.7649695 8.29267319,10.0860689 8.19700123,9.19610117 C8.13970486,8.66281762 8.56999981,8.09785462 9.40815942,7.52599805 C9.99752616,7.12392471 10.7636859,6.76377519 11.7287978,6.36348333 C11.6982804,6.04373835 11.6982804,4.35348373 11.7287978,4.16301978 C4.24342055,6.23062635 -0.229302854,8.67397126 0.00858005837,10.8871174 C0.247836252,13.1135859 5.45692272,14.5335841 13.283713,14.9035132 C18.4993607,15.1500552 24.8772625,14.9303904 31.7219275,14.1722525 C38.453602,13.4266625 44.6336749,12.2712535 49.6308945,10.9180997 C57.3397352,8.83074191 62.2333483,6.27268488 61.9914219,4.02166285 C61.7510213,1.78442796 56.3218247,0.335159878 48.4317872,-0.0264040478 Z" id="Fill-1" fill="#FFFFFF" mask="url(#mask-10)"></path>
                </g>
            </g>
            <circle id="Oval-Copy-6" fill="url(#error-screen-linearGradient-1)" cx="260" cy="37" r="11"></circle>
            <circle id="Oval-Copy-7" fill="url(#error-screen-linearGradient-1)" cx="575.5" cy="146.5" r="5.5"></circle>
            <circle id="Oval-Copy-8" fill="url(#error-screen-linearGradient-1)" cx="486.5" cy="281.5" r="5.5"></circle>
            <g id="Group-3" transform="translate(538.000000, 65.000000)">
                <mask id="mask-12" fill="white">
                    <use xlink:href="#error-screen-path-11"></use>
                </mask>
                <g id="Clip-2"></g>
                <path d="M16.0004963,0 L14.9215881,4.49677419 C13.3846154,9.48188586 9.48238213,13.3841191 4.49727047,14.9215881 L0,15.9995037 L4.49727047,17.0789082 C9.48238213,18.6153846 13.3846154,22.5181141 14.9215881,27.5027295 L16.0004963,32 L17.0784119,27.5027295 C18.6158809,22.5181141 22.5181141,18.6153846 27.5032258,17.0789082 L32,15.9995037 L27.5032258,14.9215881 C22.5181141,13.3841191 18.6158809,9.48188586 17.0784119,4.49677419 L16.0004963,0 Z" id="Fill-1" fill="url(#error-screen-linearGradient-1)" mask="url(#mask-12)"></path>
            </g>
            <g id="Group-3-Copy" transform="translate(286.000000, 270.000000)">
                <mask id="mask-14" fill="white">
                    <use xlink:href="#error-screen-path-13"></use>
                </mask>
                <g id="Clip-2"></g>
                <path d="M8.50026365,0 L7.92709367,2.38891129 C7.11057692,5.03725186 5.03751551,7.11031328 2.38917494,7.92709367 L0,8.49973635 L2.38917494,9.07316998 C5.03751551,9.88942308 7.11057692,11.9627481 7.92709367,14.6108251 L8.50026365,17 L9.07290633,14.6108251 C9.88968672,11.9627481 11.9627481,9.88942308 14.6110887,9.07316998 L17,8.49973635 L14.6110887,7.92709367 C11.9627481,7.11031328 9.88968672,5.03725186 9.07290633,2.38891129 L8.50026365,0 Z" id="Fill-1" fill="url(#error-screen-linearGradient-1)" mask="url(#mask-14)"></path>
            </g>
            <g id="Group-3-Copy-2" transform="translate(673.000000, 144.000000)">
                <mask id="mask-16" fill="white">
                    <use xlink:href="#error-screen-path-15"></use>
                </mask>
                <g id="Clip-2"></g>
                <path d="M8.50026365,0 L7.92709367,2.38891129 C7.11057692,5.03725186 5.03751551,7.11031328 2.38917494,7.92709367 L0,8.49973635 L2.38917494,9.07316998 C5.03751551,9.88942308 7.11057692,11.9627481 7.92709367,14.6108251 L8.50026365,17 L9.07290633,14.6108251 C9.88968672,11.9627481 11.9627481,9.88942308 14.6110887,9.07316998 L17,8.49973635 L14.6110887,7.92709367 C11.9627481,7.11031328 9.88968672,5.03725186 9.07290633,2.38891129 L8.50026365,0 Z" id="Fill-1" fill="url(#error-screen-linearGradient-1)" mask="url(#mask-16)"></path>
            </g>
            <g id="Group-3-Copy-3" transform="translate(155.000000, 190.000000)">
                <mask id="mask-18" fill="white">
                    <use xlink:href="#error-screen-path-17"></use>
                </mask>
                <g id="Clip-2"></g>
                <path d="M16.0004963,0 L14.9215881,4.49677419 C13.3846154,9.48188586 9.48238213,13.3841191 4.49727047,14.9215881 L0,15.9995037 L4.49727047,17.0789082 C9.48238213,18.6153846 13.3846154,22.5181141 14.9215881,27.5027295 L16.0004963,32 L17.0784119,27.5027295 C18.6158809,22.5181141 22.5181141,18.6153846 27.5032258,17.0789082 L32,15.9995037 L27.5032258,14.9215881 C22.5181141,13.3841191 18.6158809,9.48188586 17.0784119,4.49677419 L16.0004963,0 Z" id="Fill-1" fill="url(#error-screen-linearGradient-1)" mask="url(#mask-18)"></path>
            </g>
            <path d="" id="Path-12" stroke="#979797"></path>
        </g>
    </g>
</svg>