<?xml version="1.0" encoding="UTF-8"?>
<svg width="24px" height="24px" viewBox="0 0 24 24" version="1.1" xmlns="http://www.w3.org/2000/svg" xmlns:xlink="http://www.w3.org/1999/xlink">
    <!-- Generator: Sketch 52.6 (67491) - http://www.bohemiancoding.com/sketch -->
    <title>icon/japanese-language</title>
    <desc>Created with Sketch.</desc>
    <defs>
        <circle id="path-1" cx="8" cy="8" r="8"></circle>
        <circle id="path-3" cx="8" cy="8" r="8"></circle>
        <circle id="path-5" cx="8" cy="8" r="8"></circle>
    </defs>
    <g id="icon/japanese-language" stroke="none" stroke-width="1" fill="none" fill-rule="evenodd">
        <rect id="Rectangle" opacity="0" x="0" y="0" width="24" height="24"></rect>
        <g id="japanese" transform="translate(2.000000, 2.000000)">
            <circle id="Oval-Copy-15" stroke="#BFC5D2" stroke-width="0.5" cx="10" cy="10" r="9"></circle>
            <g id="if_210_Ensign_Flag_Nation_russia_2634398-Copy-Clipped" transform="translate(2.000000, 2.000000)">
                <mask id="mask-2" fill="white">
                    <use xlink:href="#path-1"></use>
                </mask>
                <g id="path-1"></g>
                <g id="united-states-Clipped" mask="url(#mask-2)">
                    <mask id="mask-4" fill="white">
                        <use xlink:href="#path-3"></use>
                    </mask>
                    <g id="path-1"></g>
                    <g id="united-states" mask="url(#mask-4)">
                        <g transform="translate(-2.000000, -1.000000)" id="Group">
                            <g>
                                <circle id="Oval" fill="#F0F0F0" cx="10" cy="9" r="9"></circle>
                                <g transform="translate(1.000000, 2.000000)" fill="#D80027" id="Shape">
                                    <path d="M8.45964286,7.00971007 L18,7.00971007 C18,6.20390728 17.89,5.42328364 17.6850357,4.68070774 L8.45964286,4.68070774 L8.45964286,7.00971007 Z"></path>
                                    <path d="M8.45964286,2.35174029 L16.6580714,2.35174029 C16.0983929,1.45993777 15.3827857,0.671676696 14.5484286,0.022737965 L8.45964286,0.022737965 L8.45964286,2.35174029 Z"></path>
                                    <path d="M8.85714286,15.9375 C11.0088929,15.9375 12.9866429,15.2112801 14.5484286,13.9966822 L3.16585714,13.9966822 C4.72764286,15.2112801 6.70539286,15.9375 8.85714286,15.9375 Z"></path>
                                    <path d="M1.05621429,11.6676798 L16.6580714,11.6676798 C17.1073929,10.9517478 17.4558571,10.1691712 17.6850357,9.33867752 L0.02925,9.33867752 C0.258428571,10.1691712 0.606892857,10.9517478 1.05621429,11.6676798 Z"></path>
                                </g>
                                <path d="M4.6321875,1.56164062 L5.54347656,1.56164062 L4.69582031,2.17746094 L5.01960937,3.17390625 L4.17199219,2.55808594 L3.324375,3.17390625 L3.6040625,2.31308594 C2.85773437,2.93476562 2.20359375,3.663125 1.66453125,4.4746875 L1.95652344,4.4746875 L1.41695312,4.86667969 C1.33289062,5.00691406 1.25226562,5.149375 1.175,5.29394531 L1.43265625,6.08695312 L0.951953125,5.73769531 C0.832460937,5.99085937 0.723164063,6.24972656 0.624921875,6.51398437 L0.908789063,7.38773437 L1.95652344,7.38773437 L1.10886719,8.00355469 L1.43265625,9 L0.585039062,8.38417969 L0.0773046875,8.75308594 C0.026484375,9.16160156 0,9.57769531 0,10 L10,10 C10,4.4771875 10,3.82609375 10,0 C8.02453125,0 6.18300781,0.573046875 4.6321875,1.56164062 Z M5.01960937,9 L4.17199219,8.38417969 L3.324375,9 L3.64816406,8.00355469 L2.80050781,7.38773438 L3.84824219,7.38773438 L4.17199219,6.39128906 L4.49574219,7.38773438 L5.54347656,7.38773438 L4.69582031,8.00355469 L5.01960937,9 Z M4.69582031,5.09050781 L5.01960937,6.08695313 L4.17199219,5.47113281 L3.324375,6.08695313 L3.64816406,5.09050781 L2.80050781,4.4746875 L3.84824219,4.4746875 L4.17199219,3.47824219 L4.49574219,4.4746875 L5.54347656,4.4746875 L4.69582031,5.09050781 Z M8.6065625,9 L7.75894531,8.38417969 L6.91132813,9 L7.23511719,8.00355469 L6.38746094,7.38773438 L7.43519531,7.38773438 L7.75894531,6.39128906 L8.08269531,7.38773438 L9.13042969,7.38773438 L8.28277344,8.00355469 L8.6065625,9 Z M8.28277344,5.09050781 L8.6065625,6.08695313 L7.75894531,5.47113281 L6.91132813,6.08695313 L7.23511719,5.09050781 L6.38746094,4.4746875 L7.43519531,4.4746875 L7.75894531,3.47824219 L8.08269531,4.4746875 L9.13042969,4.4746875 L8.28277344,5.09050781 Z M8.28277344,2.17746094 L8.6065625,3.17390625 L7.75894531,2.55808594 L6.91132813,3.17390625 L7.23511719,2.17746094 L6.38746094,1.56164063 L7.43519531,1.56164063 L7.75894531,0.565195312 L8.08269531,1.56164063 L9.13042969,1.56164063 L8.28277344,2.17746094 Z" id="Shape" fill="#0052B4" fill-rule="nonzero"></path>
                            </g>
                        </g>
                    </g>
                </g>
                <g id="if_127_Ensign_Flag_Nation_japan_2634321-Copy-Clipped" mask="url(#mask-2)">
                    <mask id="mask-6" fill="white">
                        <use xlink:href="#path-5"></use>
                    </mask>
                    <g id="path-1"></g>
                    <g id="if_127_Ensign_Flag_Nation_japan_2634321-Copy" mask="url(#mask-6)">
                        <g transform="translate(-7.000000, 0.000000)" id="Group">
                            <g>
                                <polygon id="Rectangle" fill="#FFFFFF" points="0 0 28 0 28 16 0 16"></polygon>
                                <path d="M15,4 C17.2098214,4 19,5.79017857 19,8 C19,10.2098214 17.2098214,12 15,12 C12.7901786,12 11,10.2098214 11,8 C11,5.79017857 12.7901786,4 15,4" id="Path" fill="#AD1F23"></path>
                            </g>
                        </g>
                    </g>
                </g>
                <circle id="Oval-Copy-16" stroke-opacity="0.1" stroke="#4D20C0" stroke-width="0.5" mask="url(#mask-2)" cx="8" cy="8" r="8"></circle>
            </g>
        </g>
    </g>
</svg>