<?xml version="1.0" encoding="UTF-8"?>
<svg width="24px" height="24px" viewBox="0 0 24 24" version="1.1" xmlns="http://www.w3.org/2000/svg" xmlns:xlink="http://www.w3.org/1999/xlink">
    <!-- Generator: Sketch 52.6 (67491) - http://www.bohemiancoding.com/sketch -->
    <title>icon/action-pool-retiring</title>
    <desc>Created with Sketch.</desc>
    <g id="icon/action-pool-retiring" stroke="none" stroke-width="1" fill="none" fill-rule="evenodd">
        <g id="icon/epoch-copy-4">
            <rect id="Rectangle" fill-opacity="0" fill="#FFFFFF" x="0" y="0" width="24" height="24"></rect>
            <g id="hourglass-(1)" transform="translate(5.000000, 2.000000)" fill="#8791AD">
                <path d="M7.89141285,9.31579128 C11.1072541,7.18256351 13.4526316,4.52443275 13.4526316,1.65731472 C13.4526316,1.36804381 13.2250297,1.13684211 12.9432129,1.13684211 C12.6613961,1.13684211 12.4337942,1.36804381 12.4337942,1.65731472 C12.4337942,4.30329838 10.0094348,6.76424569 6.92538812,8.70485669 L6.72429384,8.70531049 C3.66248307,6.79792735 1.21173703,4.31108303 1.21173703,1.65731472 C1.21173703,1.36804381 0.984135149,1.13684211 0.702318327,1.13684211 C0.420501506,1.13684211 0.192899627,1.36804381 0.192899627,1.65731472 C0.192899627,4.52200094 2.54162715,7.18478575 5.75411835,9.31579128 L5.99214197,9.47368421 L5.75411835,9.63157714 C2.53492336,11.7670296 0.189473684,14.4233332 0.189473684,17.2900537 C0.189473684,17.5793246 0.417075562,17.8105263 0.698892384,17.8105263 C0.980709206,17.8105263 1.20831108,17.5793246 1.20831108,17.2900537 C1.20831108,14.64407 3.6326705,12.1831227 6.71671714,10.2425117 L6.91801112,10.2421825 C9.98449374,12.1577677 12.4269423,14.6370765 12.4269423,17.2900537 C12.4269423,17.5793246 12.6545442,17.8105263 12.936361,17.8105263 C13.2181778,17.8105263 13.4457797,17.5793246 13.44578,17.2896991 C13.4511433,14.4240105 11.1122845,11.7723149 7.89127092,9.6314829 L7.65362139,9.47353021 L7.89141285,9.31579128 Z" id="Path" stroke="#8791AD" stroke-width="0.2"></path>
                <path d="M10.3546713,15.1281932 C10.4491467,15.2900061 10.5423479,15.4600486 10.6342799,15.6383848 C10.6087248,15.5888112 10.5953914,15.5338466 10.5953914,15.4780739 C10.5953914,15.2848454 10.7520341,15.1282027 10.9452626,15.1282027 L10.3546713,15.1281932 Z M3.60490334,15.1280839 L2.98745583,15.1280739 C3.04780903,15.1280739 3.10714325,15.1436931 3.15968111,15.1734128 C3.32783568,15.2685346 3.38704038,15.4819623 3.29191851,15.6501169 L2.85672357,15.4039353 L2.61054201,15.8391303 L3.04590263,16.0854056 L3.29208419,15.6502106 C3.39541496,15.4675445 3.49968749,15.293523 3.60490334,15.1280839 Z" id="Path-13" stroke="#8791AD"></path>
                <path d="M12.684247,16.7937949 L0.904939598,16.7937949 C0.0624954599,16.7937949 0.0624954599,17.1428223 0.123692574,17.4755446 C0.184889687,17.8082669 0.380942143,17.930637 0.904939598,17.930637 L12.684247,17.930637 C13.3565216,17.930637 13.5062714,17.628479 13.54338,17.362216 C13.5804887,17.0959529 13.5266912,16.7937949 12.684247,16.7937949 Z" id="Path"></path>
                <path d="M12.684247,0.793794904 L0.904939598,0.793794904 C0.0624954599,0.793794904 0.0624954599,1.14282227 0.123692574,1.4755446 C0.184889687,1.80826693 0.380942143,1.93063701 0.904939598,1.93063701 L12.684247,1.93063701 C13.3565216,1.93063701 13.5062714,1.628479 13.54338,1.36221596 C13.5804887,1.09595291 13.5266912,0.793794904 12.684247,0.793794904 Z" id="Path-Copy"></path>
            </g>
        </g>
    </g>
</svg>