<?xml version="1.0" encoding="UTF-8"?>
<svg width="20px" height="20px" viewBox="0 0 20 20" version="1.1" xmlns="http://www.w3.org/2000/svg" xmlns:xlink="http://www.w3.org/1999/xlink">
    <!-- Generator: Sketch 52.6 (67491) - http://www.bohemiancoding.com/sketch -->
    <title>close filte</title>
    <desc>Created with Sketch.</desc>
    <g id="close-filte" stroke="none" stroke-width="1" fill="none" fill-rule="evenodd">
        <rect id="Rectangle" opacity="0" x="0" y="0" width="20" height="20"></rect>
        <path d="M17.7136097,2.29894374 C17.331756,1.91709002 16.7155548,1.91709002 16.3335013,2.29914329 L9.99980045,8.61989184 L3.66629889,2.28639029 C3.28444517,1.90453657 2.66824401,1.90453657 2.28639029,2.28639029 C1.90453657,2.66824401 1.90453657,3.28444517 2.28639029,3.66629889 L8.6200914,10 L2.28639029,16.3337011 C1.90453657,16.7155548 1.90453657,17.331756 2.28639029,17.7136097 C2.66824401,18.0954634 3.28444517,18.0954634 3.66629889,17.7136097 L10,11.3799086 L16.3337011,17.7136097 C16.7155548,18.0954634 17.331756,18.0954634 17.7136097,17.7136097 C18.0954634,17.331756 18.0954634,16.7155548 17.7136097,16.3337011 L11.3799086,10 L17.7136097,3.66629889 C18.08291,3.29699862 18.08291,2.66824401 17.7136097,2.29894374 Z" id="Mask" fill="#FFFFFF" fill-rule="nonzero"></path>
    </g>
</svg>