<?xml version="1.0" encoding="UTF-8"?>
<svg width="82px" height="82px" viewBox="0 0 82 82" version="1.1" xmlns="http://www.w3.org/2000/svg" xmlns:xlink="http://www.w3.org/1999/xlink">
    <defs>
        <linearGradient x1="104.274606%" y1="-8.2626312%" x2="0%" y2="81.3303366%" id="linearGradient-1">
            <stop stop-color="#B1E1F2" offset="0%"></stop>
            <stop stop-color="#92A7FC" offset="34.9733562%"></stop>
            <stop stop-color="#4D20C0" offset="100%"></stop>
        </linearGradient>
        <linearGradient x1="104.274606%" y1="-8.2626312%" x2="0%" y2="81.3303366%" id="linearGradient-2">
            <stop stop-color="#B1E1F2" offset="0%"></stop>
            <stop stop-color="#92A7FC" offset="53.7007767%"></stop>
            <stop stop-color="#7A79E8" offset="100%"></stop>
        </linearGradient>
    </defs>
    <g id="cookies" stroke="none" stroke-width="1" fill="none" fill-rule="evenodd">
        <rect id="Rectangle" fill="#FFFFFF" opacity="0" x="0" y="0" width="82" height="82"></rect>
        <g id="Group-13" transform="translate(10.000000, 8.000000)">
            <path d="M31.046598,65.9061783 C47.8700411,65.9061783 61.5081364,52.2638747 61.5081364,35.4352403 C61.5081364,29.2578893 59.670496,23.5098746 56.5122154,18.708356 C56.538403,18.6348832 54.9536356,19.5441712 53.0732605,19.11765 C51.8196771,18.8333026 50.9145127,18.1783117 50.3577672,17.1526775 C46.848442,18.1897965 44.086585,17.935872 42.0721961,16.390904 C39.5774302,14.4775033 38.5603381,11.7802688 39.0209196,8.29920059 C36.3649528,9.04344905 34.2430725,9.22694148 32.6552788,8.8496779 C29.7772942,8.16586192 28.4092187,5.07692308 28.4092187,5.07692308 C12.8206133,6.41421827 0.585059513,19.495405 0.585059513,35.4352403 C0.585059513,52.2638747 14.2231548,65.9061783 31.046598,65.9061783 Z" id="Oval" fill="url(#linearGradient-1)"></path>
            <circle id="Oval" fill="url(#linearGradient-2)" cx="46.9615385" cy="10.7884615" r="4.44230769"></circle>
            <circle id="Oval-Copy-6" fill="url(#linearGradient-2)" cx="34.2692308" cy="3.80769231" r="1.90384615"></circle>
            <circle id="Oval-Copy-10" fill="url(#linearGradient-2)" cx="49.5" cy="1.90384615" r="1.90384615"></circle>
            <circle id="Oval-Copy-9" fill="url(#linearGradient-2)" cx="59.3365385" cy="12.375" r="2.22115385"></circle>
            <path d="M36.890735,29.1923077 C37.7909683,30.5362518 40.2466019,31.5005269 43.1348043,31.5005269 C46.0221106,31.5005269 48.4771163,30.5368501 49.3780352,29.1935586 C49.3479177,32.5699368 46.5640803,35.297833 43.1343906,35.297833 C39.7042773,35.297833 36.920176,32.569263 36.890735,29.1923077 Z" id="Combined-Shape-Copy-3" fill="#4D20C0"></path>
            <path d="M12.140735,29.1923077 C13.0409683,30.5362518 15.4966019,31.5005269 18.3848043,31.5005269 C21.2721106,31.5005269 23.7271163,30.5368501 24.6280352,29.1935586 C24.5979177,32.5699368 21.8140803,35.297833 18.3843906,35.297833 C14.9542773,35.297833 12.170176,32.569263 12.140735,29.1923077 Z" id="Combined-Shape-Copy-4" fill="#4D20C0"></path>
            <path d="M21.0253504,42.5192308 C28.3353703,50.0392037 35.4119896,50.0392037 42.2552083,42.5192308 C35.868457,45.6971255 28.7918377,45.6971255 21.0253504,42.5192308 Z" id="Path-4-Copy-2" stroke="#4D20C0" stroke-width="4" fill="#4D20C0" stroke-linecap="round" stroke-linejoin="round"></path>
        </g>
    </g>
</svg>
