<?xml version="1.0" encoding="UTF-8"?>
<svg width="20px" height="20px" viewBox="0 0 20 20" version="1.1" xmlns="http://www.w3.org/2000/svg" xmlns:xlink="http://www.w3.org/1999/xlink">
    <!-- Generator: Sketch 52.6 (67491) - http://www.bohemiancoding.com/sketch -->
    <title>filter</title>
    <desc>Created with Sketch.</desc>
    <g id="filter" stroke="none" stroke-width="1" fill="none" fill-rule="evenodd">
        <rect id="Rectangle" opacity="0" x="0" y="0" width="20" height="20"></rect>
        <path d="M18.8253159,3.2808319 L12.5538101,11.063524 L12.5469822,16.4144807 C12.5465756,16.7105842 12.3817525,16.9820513 12.1193415,17.1150869 L8.56590271,18.9171197 C8.4579686,18.9718125 8.33941982,19 8.21964313,19 C8.07473958,19 7.93244051,18.9588579 7.80865592,18.8803288 C7.58231193,18.7365838 7.44560257,18.4851424 7.44560257,18.2154252 L7.44560257,11.0631714 L1.17456351,3.28091019 C0.986358172,3.04736969 0.946999444,2.7253778 1.07277165,2.45241223 C1.19975103,2.17704913 1.47268745,2 1.77406519,2 L18.225951,2 C18.5273558,2 18.8003746,2.17708002 18.9272682,2.45246349 C19.053038,2.72533575 19.0135753,3.04745492 18.8253159,3.2808319 Z M11.0061911,10.7823946 C11.006394,10.6020015 11.06795,10.426987 11.1807364,10.2870448 L16.5942202,3.56907728 L3.40572519,3.56907728 L8.81917378,10.2870011 C8.9322187,10.4271974 8.99375447,10.6026102 8.99375447,10.7833883 L8.99375447,16.9455816 L10.9995864,15.9283713 L11.0061911,10.7823946 Z" id="Shape" fill="#FFFFFF" fill-rule="nonzero"></path>
    </g>
</svg>