<?xml version="1.0" encoding="UTF-8"?>
<svg width="48px" height="48px" viewBox="0 0 48 48" version="1.1" xmlns="http://www.w3.org/2000/svg" xmlns:xlink="http://www.w3.org/1999/xlink">
    <!-- Generator: Sketch 52.6 (67491) - http://www.bohemiancoding.com/sketch -->
    <title>icon/share-specific-views</title>
    <desc>Created with Sketch.</desc>
    <defs>
        <circle id="path-1" cx="24" cy="24" r="24"></circle>
    </defs>
    <g id="icon/share-specific-views" stroke="none" stroke-width="1" fill="none" fill-rule="evenodd">
        <g id="Icon-Circle-Copy-4" opacity="0.1">
            <g id="Oval">
                <mask id="mask-2" fill="white">
                    <use xlink:href="#path-1"></use>
                </mask>
                <use fill="#4D20C0" xlink:href="#path-1"></use>
            </g>
        </g>
        <g id="icon/share" transform="translate(8.000000, 8.000000)">
            <g id="decentralized" stroke-width="1" transform="translate(4.000000, 3.000000)">
                <path d="M19.5495769,17.6494664 C17.3841617,17.6494664 15.6223025,19.3944615 15.6223025,21.5388881 C15.6223025,23.6838379 17.3841617,25.4285714 19.5495769,25.4285714 C21.714992,25.4285714 23.4765872,23.6838379 23.4765872,21.5388881 C23.4765872,19.3944615 21.714992,17.6494664 19.5495769,17.6494664 Z M19.5495769,24.4241071 C17.9432767,24.4241071 16.6364742,23.1298131 16.6364742,21.5388881 C16.6364742,19.9482247 17.9432767,18.6539306 19.5495769,18.6539306 C21.1558771,18.6539306 22.4624154,19.9482247 22.4624154,21.5388881 C22.4624154,23.1298131 21.1558771,24.4241071 19.5495769,24.4241071 Z" id="Shape" stroke="#4D20C0" stroke-width="0.5" fill="#4D20C0" fill-rule="nonzero"></path>
                <path d="M19.5495769,8.17827496 C21.714992,8.17827496 23.4765872,6.43354145 23.4765872,4.28885324 C23.4765872,2.14416502 21.714992,0.399169955 19.5495769,0.399169955 C17.3841617,0.399169955 15.6223025,2.14416502 15.6223025,4.28885324 C15.6223025,6.43354145 17.3841617,8.17827496 19.5495769,8.17827496 Z M19.5495769,1.40363424 C21.1558771,1.40363424 22.4624154,2.69792826 22.4624154,4.28859167 C22.4624154,5.87951658 21.1558771,7.17381067 19.5495769,7.17381067 C17.9432767,7.17381067 16.6364742,5.87951658 16.6364742,4.28859167 C16.6364742,2.69792826 17.9432767,1.40363424 19.5495769,1.40363424 Z" id="Shape" stroke="#4D20C0" stroke-width="0.5" fill="#4D20C0" fill-rule="nonzero"></path>
                <path d="M6.00020179,7 C2.69141536,7 0,9.66565366 0,12.9423694 C0,16.2190852 2.69141536,18.8847387 6.00020179,18.8847387 C9.30818116,18.8847387 12,16.2190852 12,12.9423694 C12,9.66565366 9.30818116,7 6.00020179,7 Z M6.00020179,17.3504892 C3.54605063,17.3504892 1.54948048,15.3730298 1.54948048,12.9423694 C1.54948048,10.5121086 3.54605063,8.53464915 6.00020179,8.53464915 C8.45394937,8.53464915 10.4505195,10.5121086 10.4505195,12.9423694 C10.4505195,15.3730298 8.45394937,17.3504892 6.00020179,17.3504892 Z" id="Shape" stroke="#4D20C0" stroke-width="0.2" fill="#4D20C0" fill-rule="nonzero"></path>
                <path d="M5.9853229,10.4381013 C4.60666189,10.4381013 3.48523882,11.5595621 3.48523882,12.9381014 C3.48523882,14.3166406 4.60666189,15.4381013 5.9853229,15.4381013 C7.36364764,15.4381013 8.48523882,14.3166406 8.48523882,12.9381014 C8.48523882,11.5595621 7.36364764,10.4381013 5.9853229,10.4381013 Z" id="Path-Copy" fill="#92B9FC" fill-rule="nonzero"></path>
                <rect id="Rectangle" fill="#92B9FC" transform="translate(13.093536, 7.695875) rotate(-32.000000) translate(-13.093536, -7.695875) " x="11.0935356" y="6.9458746" width="4" height="1.5" rx="0.75"></rect>
                <rect id="Rectangle-Copy-5" fill="#92B9FC" transform="translate(13.093536, 18.695875) scale(1, -1) rotate(-32.000000) translate(-13.093536, -18.695875) " x="11.0935356" y="17.9458746" width="4" height="1.5" rx="0.75"></rect>
            </g>
            <rect id="Rectangle-Copy-9" fill="#FFFFFF" opacity="0" x="0" y="0" width="32" height="32"></rect>
        </g>
    </g>
</svg>