<?xml version="1.0" encoding="UTF-8"?>
<svg width="24px" height="24px" viewBox="0 0 24 24" version="1.1" xmlns="http://www.w3.org/2000/svg" xmlns:xlink="http://www.w3.org/1999/xlink">
    <g id="icon/time" stroke="none" stroke-width="1" fill="none" fill-rule="evenodd">
        <g id="icon/epoch-copy-3">
            <rect id="Rectangle" fill-opacity="0" fill="#FFFFFF" x="0" y="0" width="24" height="24"></rect>
            <g id="Group-2" transform="translate(3.000000, 4.000000)" fill="#8791AD" fill-rule="nonzero">
                <path d="M16.3552632,5.23026316 L1.01315789,5.23026316 L1.01315789,13.0263158 C1.01315789,13.2661236 1.20756057,13.4605263 1.44736842,13.4605263 L10.2645165,13.4605263 C10.3471446,13.8139118 10.4667664,14.1530666 10.6190752,14.4736842 L1.44736842,14.4736842 C0.648008915,14.4736842 0,13.8256753 0,13.0263158 L0,2.89473684 C0,2.09537734 0.648008915,1.44736842 1.44736842,1.44736842 L15.9210526,1.44736842 C16.7204121,1.44736842 17.3684211,2.09537734 17.3684211,2.89473684 L17.3684211,7.72433834 C17.0478034,7.57202951 16.7086486,7.45240779 16.3552632,7.36977968 L16.3552632,5.23026316 Z M16.3552632,4.17763158 L16.3552632,2.89473684 C16.3552632,2.65492899 16.1608605,2.46052632 15.9210526,2.46052632 L1.44736842,2.46052632 C1.20756057,2.46052632 1.01315789,2.65492899 1.01315789,2.89473684 L1.01315789,4.17763158 L16.3552632,4.17763158 Z" id="Combined-Shape"></path>
                <polygon id="Path-5" points="3 0 4.05263158 0 4.05263158 3.68445776 3 3.68445776"></polygon>
                <polygon id="Path-5-Copy-9" points="3 7 4.5 7 4.5 8.5 3 8.5"></polygon>
                <polygon id="Path-5-Copy-12" points="3 10 4.5 10 4.5 11.5 3 11.5"></polygon>
                <polygon id="Path-5-Copy-10" points="6.5219453 6.94962773 8.0219453 6.94962773 8.0219453 8.44962773 6.5219453 8.44962773"></polygon>
                <polygon id="Path-5-Copy-13" points="6.5219453 9.94962773 8.0219453 9.94962773 8.0219453 11.4496277 6.5219453 11.4496277"></polygon>
                <polygon id="Path-5-Copy-11" points="10.0069217 6.93762599 11.5069217 6.93762599 11.5069217 8.43762599 10.0069217 8.43762599"></polygon>
                <polygon id="Path-5-Copy" points="13.6052632 0 14.6578947 0 14.6578947 3.68445776 13.6052632 3.68445776"></polygon>
                <path d="M15.6710526,12.0657895 L17.5328947,12.0657895 L17.5328947,13.1184211 L14.6381579,13.1184211 L14.6381579,13.0263158 L14.6184211,13.0263158 L14.6184211,10.1315789 L15.6710526,10.1315789 L15.6710526,12.0657895 Z" id="Combined-Shape"></path>
                <path d="M15.1973684,16.4276316 C12.9191938,16.4276316 11.0723684,14.5808062 11.0723684,12.3026316 C11.0723684,10.024457 12.9191938,8.17763158 15.1973684,8.17763158 C17.475543,8.17763158 19.3223684,10.024457 19.3223684,12.3026316 C19.3223684,14.5808062 17.475543,16.4276316 15.1973684,16.4276316 Z M15.1973684,15.4144737 C16.9159914,15.4144737 18.3092105,14.0212545 18.3092105,12.3026316 C18.3092105,10.5840086 16.9159914,9.19078947 15.1973684,9.19078947 C13.4787455,9.19078947 12.0855263,10.5840086 12.0855263,12.3026316 C12.0855263,14.0212545 13.4787455,15.4144737 15.1973684,15.4144737 Z" id="Oval-Copy"></path>
            </g>
        </g>
    </g>
</svg>
