<?xml version="1.0" encoding="UTF-8"?>
<svg width="24px" height="24px" viewBox="0 0 24 24" version="1.1" xmlns="http://www.w3.org/2000/svg" xmlns:xlink="http://www.w3.org/1999/xlink">
    <g id="icon/total-sent" stroke="none" stroke-width="1" fill="none" fill-rule="evenodd">
        <g id="icon/price-copy-2">
            <rect id="Rectangle" fill="#FFFFFF" opacity="0" x="0" y="0" width="24" height="24"></rect>
            <path d="M9.17202023,12.95155 L9.17176294,12.9521998 L9.72793545,11.5334541 C9.76423849,11.4744472 9.76423849,11.4744472 9.82864168,11.460907 L13.8317691,11.460907 C13.8961723,11.4744472 13.8961723,11.4744472 13.9303381,11.5276476 L14.5050703,12.95155 C14.5086907,13.0573176 14.5086907,13.0573176 14.4063847,13.0978629 L9.27153977,13.0978629 C9.17141346,13.0617752 9.17141346,13.0617752 9.17202023,12.95155 Z M11.8979343,6.48925024 L11.8987571,6.49122815 L13.3850286,10.1752143 C13.3856353,10.2854396 13.3856353,10.2854396 13.285509,10.3215272 L10.3590561,10.3215272 C10.2589297,10.2854396 10.2589297,10.2854396 10.2592571,10.1759206 L11.7015956,6.48925024 C11.799765,6.40260158 11.799765,6.40260158 11.8979343,6.48925024 Z M18.587328,13.6419767 C18.5735012,13.3398355 18.2921565,13.0978629 17.9616623,13.0978629 L15.8875419,13.0978629 C15.8122167,13.0754354 15.8122167,13.0754354 15.7898069,13.0311222 L15.2150747,11.6072199 C15.2114543,11.5014522 15.2114543,11.5014522 15.3137603,11.460907 L16.6064368,11.460907 C16.9369688,11.460907 17.2183401,11.218879 17.2320981,10.9168968 C17.2462281,10.5919067 16.9816202,10.3215272 16.649804,10.3215272 L14.7683341,10.3215272 C14.703931,10.307987 14.703931,10.307987 14.6697585,10.2547701 L12.3320723,4.46017702 C12.2437754,4.24085893 12.0348206,4.10214768 11.7871349,4.09999956 C11.5474566,4.10071077 11.3329682,4.24619862 11.2469636,4.46511929 L8.98277506,10.2489801 C8.94647202,10.307987 8.94647202,10.307987 8.88206883,10.3215272 L7.04980404,10.3215272 C6.71840996,10.3215272 6.43637362,10.5635255 6.42329962,10.8649103 C6.40847263,11.1903979 6.67276823,11.460907 7.00476886,11.460907 L8.35165445,11.460907 C8.45178076,11.4969946 8.45178076,11.4969946 8.45143128,11.6065701 L7.89525877,13.0253158 C7.85895573,13.0843227 7.85895573,13.0843227 7.79455254,13.0978629 L5.72710402,13.0978629 C5.39611055,13.0978629 5.11366331,13.3402451 5.10059914,13.6420898 C5.08577342,13.9668435 5.35017845,14.2372426 5.68206883,14.2372426 L7.26580613,14.2372426 C7.37025999,14.2826187 7.37025999,14.2826187 7.36393626,14.3828514 L5.52332968,19.0873651 C5.40856399,19.3806552 5.55756084,19.7092797 5.85812462,19.8229686 C5.92543282,19.8482092 5.99595665,19.8608027 6.06736985,19.8608027 C6.30695265,19.8608027 6.52443173,19.7168291 6.61140958,19.4948617 L8.64041916,14.3097898 C8.6767222,14.2507828 8.6767222,14.2507828 8.74112539,14.2372426 L14.9518108,14.2372426 C15.016214,14.2507828 15.016214,14.2507828 15.0503859,14.3039985 L17.1620246,19.5380602 C17.2510274,19.7584813 17.4668383,19.9 17.7039609,19.9 C17.7776118,19.9 17.8493633,19.8866467 17.919644,19.8592374 C18.2179551,19.7434643 18.3634846,19.4127354 18.2458831,19.120857 L16.3351164,14.3835555 C16.3345096,14.2733303 16.3345096,14.2733303 16.4346359,14.2372426 L18.0050295,14.2372426 C18.3368104,14.2372426 18.6013972,13.9669207 18.587328,13.6419767 Z M18.587328,13.6419767 C18.5873265,13.6419422 18.587325,13.6419076 18.5873235,13.641873 L18.5873327,13.6420804 C18.5873312,13.6420458 18.5873296,13.6420113 18.587328,13.6419767 Z" id="Fill-1" stroke="#8791AD" stroke-width="0.2" fill="#8791AD"></path>
        </g>
    </g>
</svg>
