<?xml version="1.0" encoding="UTF-8"?>
<svg width="48px" height="48px" viewBox="0 0 48 48" version="1.1" xmlns="http://www.w3.org/2000/svg" xmlns:xlink="http://www.w3.org/1999/xlink">
    <g id="icon/warning" stroke="none" stroke-width="1" fill="none" fill-rule="evenodd">
        <circle id="Oval-Copy-4" fill="#FF805D" cx="24" cy="24" r="24"></circle>
        <g id="icon/error-copy-3" transform="translate(12.000000, 12.000000)">
            <rect id="Rectangle" fill="#FFFFFF" opacity="0" x="0" y="0" width="24" height="24"></rect>
            <circle id="Oval" fill="#FFFFFF" cx="12" cy="12" r="10"></circle>
            <path d="M11.2265512,7.45355325 C11.2265512,7.21103632 11.3089791,7.0239348 11.4740336,6.89205008 C11.6388895,6.76016536 11.8524077,6.694223 12.1147868,6.694223 C12.3769673,6.694223 12.5698288,6.76274744 12.6925769,6.89999495 C12.8155237,7.03724245 12.8770964,7.22156326 12.8770964,7.45355325 C12.8770964,8.21308212 12.8637887,8.56603264 12.8381666,10.2849037 C12.8119485,12.0037747 12.7992367,12.5456143 12.7992367,13.304746 C12.7992367,13.463246 12.7249523,13.5871858 12.5767806,13.6767642 C12.4284103,13.7661439 12.2744786,13.811231 12.1147868,13.811231 C11.6472316,13.811231 11.4134541,13.6424026 11.4134541,13.304746 C11.4134541,12.5456143 11.3822705,12.0037747 11.3201019,10.2849037 C11.2577348,8.56583402 11.2265512,8.2128835 11.2265512,7.45355325 M11.133199,15.8381641 C11.133199,15.6002154 11.230325,15.3980187 11.4243782,15.2315738 C11.6184315,15.0651289 11.8545926,14.9815092 12.1318683,14.9815092 C12.3761728,14.9815092 12.5873075,15.0651289 12.7652724,15.2315738 C12.943436,15.3980187 13.0326171,15.6002154 13.0326171,15.8381641 C13.0326171,16.0663802 12.943436,16.2661935 12.7652724,16.4374053 C12.5873075,16.6088157 12.3759742,16.694223 12.1318683,16.694223 C11.8543939,16.694223 11.6184315,16.6088157 11.4243782,16.4374053 C11.230325,16.2661935 11.133199,16.0663802 11.133199,15.8381641" id="Fill-1" fill="#FF805D"></path>
        </g>
    </g>
</svg>
