<?xml version="1.0" encoding="UTF-8"?>
<svg width="24px" height="24px" viewBox="0 0 24 24" version="1.1" xmlns="http://www.w3.org/2000/svg" xmlns:xlink="http://www.w3.org/1999/xlink">
    <!-- Generator: Sketch 52.6 (67491) - http://www.bohemiancoding.com/sketch -->
    <desc>Created with Sketch.</desc>
    <defs>
        <path d="M1.2416019,0.03356028 L0,0 L0.03356028,1.2416019 C0.0671205601,3.25502601 1.74497399,4.89931916 3.7583981,4.96643972 L5,5 L4.96643972,3.7583981 C4.89928704,1.74497399 3.2549939,0.0671205601 1.2416019,0.03356028 Z" id="rocket-path-1"></path>
        <linearGradient x1="88.0697734%" y1="0%" x2="24.9777897%" y2="100%" id="linearGradient-3">
            <stop stop-color="#FF887D" offset="0%"></stop>
            <stop stop-color="#FF2222" offset="100%"></stop>
        </linearGradient>
        <linearGradient x1="100%" y1="0%" x2="0.397398844%" y2="99.6026012%" id="linearGradient-4">
            <stop stop-color="#B1E1F2" offset="0%"></stop>
            <stop stop-color="#92A7FC" offset="38.2795936%"></stop>
            <stop stop-color="#4D20C0" offset="100%"></stop>
        </linearGradient>
    </defs>
    <g id="icon/rocket" stroke="none" stroke-width="1" fill="none" fill-rule="evenodd">
        <rect id="Rectangle" fill="#D8D8D8" opacity="0" x="0" y="0" width="24" height="24"></rect>
        <g id="Group-8" transform="translate(3.000000, 3.000000)">
            <g id="Group-7" transform="translate(1.000000, 12.000000)">
                <mask id="mask-2" fill="white">
                    <use xlink:href="#rocket-path-1"></use>
                </mask>
                <use id="Path" fill="#F5A623" transform="translate(2.500000, 2.500000) scale(-1, 1) translate(-2.500000, -2.500000) " xlink:href="#rocket-path-1"></use>
                <path d="M2.38955418,0.0699984916 L1.53909713,0.037284993 L1.57181063,0.887742043 C1.60452413,2.29429726 2.78208486,3.471858 4.18864008,3.50457149 L5.03909713,3.53728499 L5.00638364,2.68682794 C4.97367014,1.28027272 3.7960781,0.10271199 2.38955418,0.0699984916 Z" id="Path" fill="#F1ECB3" mask="url(#mask-2)" transform="translate(3.289097, 1.787285) scale(-1, 1) translate(-3.289097, -1.787285) "></path>
            </g>
            <path d="M14.4705464,10.7679723 C14.2924114,10.4464839 14.0429747,10.1607202 13.7935722,9.91064712 C13.1522318,9.26767036 12.3683561,8.83900779 11.5132129,8.62469359 C9.90986191,8.23175575 8.12834189,8.66041832 6.88126082,9.91064712 C5.63417975,11.1608759 5.20664222,12.9469415 5.59858004,14.5544176 C5.8123488,15.376018 6.23992043,16.1975842 6.88126082,16.840561 C7.13066339,17.0905999 7.45133359,17.340673 7.73640407,17.5192625 C5.88361642,17.5907119 3.95959526,16.9120104 2.53437923,15.483158 C1.3941996,14.3400692 0.752859208,12.9469415 0.539090445,11.4823643 C0.25405406,9.37481036 0.93102826,7.19580696 2.53437923,5.58836505 C4.13773021,3.98092314 6.34682186,3.30222165 8.41337827,3.5879853 C9.8742281,3.80229949 11.2994441,4.44531044 12.40399,5.58836505 C13.8648398,6.98152695 14.541814,8.91049143 14.4705464,10.7679723 Z" id="Path" fill="url(#linearGradient-3)" transform="translate(7.475634, 10.524366) scale(-1, 1) translate(-7.475634, -10.524366) "></path>
            <path d="M17.4756335,10.9013104 C16.4810778,4.82740537 11.2596346,0.351887483 4.79497117,0.529470942 L3.51626149,0.564994433 L3.480738,1.84370412 C3.30315454,8.30836751 7.77867243,13.5298107 13.8525774,14.5243665 L17.4756335,10.9013104 Z" id="Path" fill="url(#linearGradient-4)" transform="translate(10.475634, 7.524366) scale(-1, 1) translate(-10.475634, -7.524366) "></path>
            <path d="M3.4826165,13.7377839 C4.37241698,14.0928471 5.29784764,14.341381 6.25884034,14.5189296 L9.85370652,10.9327888 C9.71132209,9.97412861 9.4265873,9.05094414 9.07066029,8.16330336 L3.4826165,13.7377839 Z" id="Path" fill="#120546" transform="translate(6.668162, 11.341116) scale(-1, 1) translate(-6.668162, -11.341116) "></path>
            <path d="M17.4743648,1.09758492 C16.1574451,0.707012103 14.733737,0.49395385 13.2388368,0.529463559 L11.9575132,0.564973268 L11.9219171,1.84318686 C11.886321,3.3344587 12.0998636,4.75471113 12.4913867,6.06843443 L17.4743648,1.09758492 Z" id="Path" fill="#120546" transform="translate(14.696221, 3.297034) scale(-1, 1) translate(-14.696221, -3.297034) "></path>
            <circle id="Oval" fill="#4D20C0" transform="translate(11.475634, 6.524366) scale(-1, 1) translate(-11.475634, -6.524366) " cx="11.4756335" cy="6.52436647" r="3"></circle>
            <circle id="Oval" fill="#B1E1F2" transform="translate(11.428706, 6.555235) scale(-1, 1) translate(-11.428706, -6.555235) " cx="11.4287055" cy="6.55523548" r="2"></circle>
            <circle id="Oval-Copy" fill="#120546" transform="translate(8.500000, 9.500000) scale(-1, 1) translate(-8.500000, -9.500000) " cx="8.5" cy="9.5" r="1"></circle>
        </g>
    </g>
</svg>