<?xml version="1.0" encoding="UTF-8"?>
<svg width="26px" height="20px" viewBox="0 0 26 20" version="1.1" xmlns="http://www.w3.org/2000/svg" xmlns:xlink="http://www.w3.org/1999/xlink">
    <!-- Generator: Sketch 52.6 (67491) - http://www.bohemiancoding.com/sketch -->
    <desc>Created with Sketch.</desc>
    <g id="twitter-seiza" stroke="none" stroke-width="1" fill="none" fill-rule="evenodd">
        <g id="twitter" fill="#FFFFFF">
            <polygon id="Fill-6" fill-opacity="0" opacity="0" points="0 20 26 20 26 0 0 0"></polygon>
            <g transform="translate(2.000000, 0.000000)">
                <path d="M14.6312758,6.82764444 C14.1295495,7.06284444 13.5906863,7.22204444 13.0245389,7.29324444 C13.6028126,6.92764444 14.0454232,6.34764444 14.2546021,5.65964444 C13.7127074,5.99804444 13.1139705,6.24444444 12.4758232,6.37724444 C11.9650021,5.80204444 11.2389389,5.44444444 10.4340547,5.44444444 C8.88870737,5.44444444 7.63514947,6.76684444 7.63514947,8.39724444 C7.63514947,8.62844444 7.66016,8.85404444 7.70714947,9.07084444 C5.38192842,8.94684444 3.31969684,7.77084444 1.93957053,5.98364444 C1.69856,6.41884444 1.56138105,6.92684444 1.56138105,7.46844444 C1.56138105,8.49324444 2.05552842,9.39804444 2.80584421,9.92684444 C2.34731789,9.91084444 1.91607579,9.77804444 1.53864421,9.55644444 L1.53864421,9.59324444 C1.53864421,11.0236444 2.50344421,12.2180444 3.78352842,12.4892444 C3.54858105,12.5564444 3.30150737,12.5932444 3.04533895,12.5932444 C2.86496,12.5932444 2.68988632,12.5748444 2.51860211,12.5388444 C2.87481263,13.7124444 3.90858105,14.5668444 5.13258105,14.5900444 C4.17460211,15.3812444 2.96727579,15.8524444 1.65687579,15.8524444 C1.43102316,15.8524444 1.20820211,15.8380444 0.989170526,15.8116444 C2.22832842,16.6508444 3.69864421,17.1412444 5.27885474,17.1412444 C10.4272337,17.1412444 13.2412968,12.6404444 13.2412968,8.73644444 L13.2314442,8.35404444 C13.7816758,7.94044444 14.2576337,7.41964444 14.6312758,6.82764444" id="Fill-8"></path>
                <g id="logo-copy-3" transform="translate(14.000000, 0.000000)">
                    <g id="logo-copy-2">
                        <path d="M3.56609195,4.26325641e-14 C3.59017529,4.26325641e-14 3.61415481,0.014224818 3.62204418,0.0425706232 L4.39655172,2.85098578 L4.392088,2.85098578 C4.16360776,2.6736428 3.87761818,2.56700858 3.56609195,2.56700858 C3.25456573,2.56700858 2.96847234,2.6736428 2.74009591,2.85098578 L2.73563218,2.85098578 L3.51024353,0.0425706232 C3.51802909,0.014224818 3.54200862,4.26325641e-14 3.56609195,4.26325641e-14 Z M4.26471624,5.07047271 C4.27488937,5.06424287 4.28547773,5.06154327 4.29575467,5.06154327 C4.33146444,5.06154327 4.36250287,5.09476912 4.35149928,5.13443248 L3.62204418,7.77962564 C3.60636925,7.83642108 3.52581466,7.83642108 3.51024353,7.77962564 L2.78068463,5.13443248 C2.76656681,5.08334773 2.82210381,5.04285372 2.86746767,5.07047271 C3.07124174,5.19465434 3.30999892,5.26660907 3.56609195,5.26660907 C3.82218499,5.26660907 4.06094217,5.19465434 4.26471624,5.07047271 Z" id="Combined-Shape"></path>
                        <path d="M2.36004814,3.13583111 C2.36534707,3.13437667 2.37054602,3.13364944 2.37554501,3.13364944 C2.41563691,3.13364944 2.44423113,3.17925667 2.42323537,3.21956556 C2.32335555,3.41061722 2.26636707,3.62940722 2.26636707,3.86222222 C2.26636707,4.089635 2.32055612,4.30395778 2.41623679,4.49189278 C2.43913216,4.53708444 2.40024002,4.58861333 2.35264964,4.57510778 L0.0410167124,3.91250444 C-0.0136722375,3.89671333 -0.0136722375,3.81630333 0.0410167124,3.80051222 L2.36004814,3.13583111 Z M4.70897353,3.21956556 C4.68797777,3.17925667 4.71657199,3.13364944 4.75666389,3.13364944 C4.76166288,3.13364944 4.76686183,3.13437667 4.77216076,3.13583111 L7.09109221,3.80051222 C7.14588114,3.81630333 7.14588114,3.89671333 7.09109221,3.91250444 L4.77945929,4.57510778 C4.73196888,4.58861333 4.69297676,4.53708444 4.7160721,4.49189278 C4.81165278,4.30395778 4.86584183,4.089635 4.86584183,3.86222222 C4.86584183,3.62940722 4.80885335,3.41061722 4.70897353,3.21956556 Z M2.76626606,3.86222222 C2.76626606,3.40313722 3.1243937,3.03111111 3.56610445,3.03111111 C4.00791518,3.03111111 4.36594284,3.40313722 4.36594284,3.86222222 C4.36594284,4.32120333 4.00791518,4.69333333 3.56610445,4.69333333 C3.1243937,4.69333333 2.76626606,4.32120333 2.76626606,3.86222222 Z" id="Combined-Shape"></path>
                    </g>
                </g>
            </g>
        </g>
    </g>
</svg>